  0
SECTION
  2
BLOCKS
  0
ENDSEC
  0
SECTION
  2
ENTITIES
  0
LINE
  8
0
 10
-115.1
 20
-106.9
 11
-104.9
 21
-106.9
  0
LINE
  8
0
 10
-104.9
 20
-106.9
 11
-104.9
 21
-110
  0
LINE
  8
0
 10
-104.9
 20
-110
 11
-95.1
 21
-110
  0
LINE
  8
0
 10
-95.1
 20
-110
 11
-95.1
 21
-106.9
  0
LINE
  8
0
 10
-95.1
 20
-106.9
 11
-84.9
 21
-106.9
  0
LINE
  8
0
 10
-84.9
 20
-106.9
 11
-84.9
 21
-110
  0
LINE
  8
0
 10
-84.9
 20
-110
 11
-75.1
 21
-110
  0
LINE
  8
0
 10
-75.1
 20
-110
 11
-75.1
 21
-106.9
  0
LINE
  8
0
 10
-75.1
 20
-106.9
 11
-64.9
 21
-106.9
  0
LINE
  8
0
 10
-64.9
 20
-106.9
 11
-64.9
 21
-110
  0
LINE
  8
0
 10
-64.9
 20
-110
 11
-55.1
 21
-110
  0
LINE
  8
0
 10
-55.1
 20
-110
 11
-55.1
 21
-106.9
  0
LINE
  8
0
 10
-55.1
 20
-106.9
 11
-44.9
 21
-106.9
  0
LINE
  8
0
 10
-44.9
 20
-106.9
 11
-44.9
 21
-110
  0
LINE
  8
0
 10
-44.9
 20
-110
 11
-35.1
 21
-110
  0
LINE
  8
0
 10
-35.1
 20
-110
 11
-35.1
 21
-106.9
  0
LINE
  8
0
 10
-35.1
 20
-106.9
 11
-24.9
 21
-106.9
  0
LINE
  8
0
 10
-24.9
 20
-106.9
 11
-24.9
 21
-110
  0
LINE
  8
0
 10
-24.9
 20
-110
 11
-15.1
 21
-110
  0
LINE
  8
0
 10
-15.1
 20
-110
 11
-15.1
 21
-106.9
  0
LINE
  8
0
 10
-15.1
 20
-106.9
 11
-4.90001
 21
-106.9
  0
LINE
  8
0
 10
-4.90001
 20
-106.9
 11
-4.90001
 21
-110
  0
LINE
  8
0
 10
-4.90001
 20
-110
 11
4.89999
 21
-110
  0
LINE
  8
0
 10
4.89999
 20
-110
 11
4.89999
 21
-106.9
  0
LINE
  8
0
 10
4.89999
 20
-106.9
 11
15.1
 21
-106.9
  0
LINE
  8
0
 10
15.1
 20
-106.9
 11
15.1
 21
-110
  0
LINE
  8
0
 10
15.1
 20
-110
 11
24.9
 21
-110
  0
LINE
  8
0
 10
24.9
 20
-110
 11
24.9
 21
-106.9
  0
LINE
  8
0
 10
24.9
 20
-106.9
 11
35.1
 21
-106.9
  0
LINE
  8
0
 10
35.1
 20
-106.9
 11
35.1
 21
-110
  0
LINE
  8
0
 10
35.1
 20
-110
 11
44.9
 21
-110
  0
LINE
  8
0
 10
44.9
 20
-110
 11
44.9
 21
-106.9
  0
LINE
  8
0
 10
44.9
 20
-106.9
 11
55.1
 21
-106.9
  0
LINE
  8
0
 10
55.1
 20
-106.9
 11
55.1
 21
-110
  0
LINE
  8
0
 10
55.1
 20
-110
 11
64.9
 21
-110
  0
LINE
  8
0
 10
64.9
 20
-110
 11
64.9
 21
-106.9
  0
LINE
  8
0
 10
64.9
 20
-106.9
 11
75.1
 21
-106.9
  0
LINE
  8
0
 10
75.1
 20
-106.9
 11
75.1
 21
-110
  0
LINE
  8
0
 10
75.1
 20
-110
 11
84.9
 21
-110
  0
LINE
  8
0
 10
84.9
 20
-110
 11
84.9
 21
-106.9
  0
LINE
  8
0
 10
84.9
 20
-106.9
 11
95.1
 21
-106.9
  0
LINE
  8
0
 10
95.1
 20
-106.9
 11
95.1
 21
-110
  0
LINE
  8
0
 10
95.1
 20
-110
 11
104.9
 21
-110
  0
LINE
  8
0
 10
104.9
 20
-110
 11
104.9
 21
-106.9
  0
LINE
  8
0
 10
104.9
 20
-106.9
 11
115.1
 21
-106.9
  0
LINE
  8
0
 10
115.1
 20
-106.9
 11
115.1
 21
-110
  0
LINE
  8
0
 10
115.1
 20
-110
 11
125
 21
-110
  0
LINE
  8
0
 10
125
 20
-110
 11
125
 21
-100.535
  0
LINE
  8
0
 10
125
 20
-100.535
 11
121.9
 21
-100.535
  0
LINE
  8
0
 10
121.9
 20
-100.535
 11
121.9
 21
-90.7696
  0
LINE
  8
0
 10
121.9
 20
-90.7696
 11
125
 21
-90.7696
  0
LINE
  8
0
 10
125
 20
-90.7696
 11
125
 21
-81.4044
  0
LINE
  8
0
 10
125
 20
-81.4044
 11
121.9
 21
-81.4044
  0
LINE
  8
0
 10
121.9
 20
-81.4044
 11
121.9
 21
-71.6391
  0
LINE
  8
0
 10
121.9
 20
-71.6391
 11
125
 21
-71.6391
  0
LINE
  8
0
 10
125
 20
-71.6391
 11
125
 21
-62.2739
  0
LINE
  8
0
 10
125
 20
-62.2739
 11
121.9
 21
-62.2739
  0
LINE
  8
0
 10
121.9
 20
-62.2739
 11
121.9
 21
-52.5087
  0
LINE
  8
0
 10
121.9
 20
-52.5087
 11
125
 21
-52.5087
  0
LINE
  8
0
 10
125
 20
-52.5087
 11
125
 21
-43.1435
  0
LINE
  8
0
 10
125
 20
-43.1435
 11
121.9
 21
-43.1435
  0
LINE
  8
0
 10
121.9
 20
-43.1435
 11
121.9
 21
-33.3783
  0
LINE
  8
0
 10
121.9
 20
-33.3783
 11
125
 21
-33.3783
  0
LINE
  8
0
 10
125
 20
-33.3783
 11
125
 21
-24.013
  0
LINE
  8
0
 10
125
 20
-24.013
 11
121.9
 21
-24.013
  0
LINE
  8
0
 10
121.9
 20
-24.013
 11
121.9
 21
-14.2478
  0
LINE
  8
0
 10
121.9
 20
-14.2478
 11
125
 21
-14.2478
  0
LINE
  8
0
 10
125
 20
-14.2478
 11
125
 21
-10
  0
LINE
  8
0
 10
125
 20
-10
 11
140
 21
-10
  0
LINE
  8
0
 10
140
 20
-10
 11
140
 21
10
  0
LINE
  8
0
 10
140
 20
10
 11
125
 21
10
  0
LINE
  8
0
 10
125
 20
10
 11
125
 21
14.2478
  0
LINE
  8
0
 10
125
 20
14.2478
 11
121.9
 21
14.2478
  0
LINE
  8
0
 10
121.9
 20
14.2478
 11
121.9
 21
24.013
  0
LINE
  8
0
 10
121.9
 20
24.013
 11
125
 21
24.013
  0
LINE
  8
0
 10
125
 20
24.013
 11
125
 21
33.3783
  0
LINE
  8
0
 10
125
 20
33.3783
 11
121.9
 21
33.3783
  0
LINE
  8
0
 10
121.9
 20
33.3783
 11
121.9
 21
43.1435
  0
LINE
  8
0
 10
121.9
 20
43.1435
 11
125
 21
43.1435
  0
LINE
  8
0
 10
125
 20
43.1435
 11
125
 21
52.5087
  0
LINE
  8
0
 10
125
 20
52.5087
 11
121.9
 21
52.5087
  0
LINE
  8
0
 10
121.9
 20
52.5087
 11
121.9
 21
62.2739
  0
LINE
  8
0
 10
121.9
 20
62.2739
 11
125
 21
62.2739
  0
LINE
  8
0
 10
125
 20
62.2739
 11
125
 21
71.6391
  0
LINE
  8
0
 10
125
 20
71.6391
 11
121.9
 21
71.6391
  0
LINE
  8
0
 10
121.9
 20
71.6391
 11
121.9
 21
81.4043
  0
LINE
  8
0
 10
121.9
 20
81.4043
 11
125
 21
81.4043
  0
LINE
  8
0
 10
125
 20
81.4043
 11
125
 21
90.7696
  0
LINE
  8
0
 10
125
 20
90.7696
 11
121.9
 21
90.7696
  0
LINE
  8
0
 10
121.9
 20
90.7696
 11
121.9
 21
100.535
  0
LINE
  8
0
 10
121.9
 20
100.535
 11
125
 21
100.535
  0
LINE
  8
0
 10
125
 20
100.535
 11
125
 21
110
  0
LINE
  8
0
 10
125
 20
110
 11
115.1
 21
110
  0
LINE
  8
0
 10
115.1
 20
110
 11
115.1
 21
106.9
  0
LINE
  8
0
 10
115.1
 20
106.9
 11
104.9
 21
106.9
  0
LINE
  8
0
 10
104.9
 20
106.9
 11
104.9
 21
110
  0
LINE
  8
0
 10
104.9
 20
110
 11
95.1
 21
110
  0
LINE
  8
0
 10
95.1
 20
110
 11
95.1
 21
106.9
  0
LINE
  8
0
 10
95.1
 20
106.9
 11
84.9
 21
106.9
  0
LINE
  8
0
 10
84.9
 20
106.9
 11
84.9
 21
110
  0
LINE
  8
0
 10
84.9
 20
110
 11
75.1
 21
110
  0
LINE
  8
0
 10
75.1
 20
110
 11
75.1
 21
106.9
  0
LINE
  8
0
 10
75.1
 20
106.9
 11
64.9
 21
106.9
  0
LINE
  8
0
 10
64.9
 20
106.9
 11
64.9
 21
110
  0
LINE
  8
0
 10
64.9
 20
110
 11
55.1
 21
110
  0
LINE
  8
0
 10
55.1
 20
110
 11
55.1
 21
106.9
  0
LINE
  8
0
 10
55.1
 20
106.9
 11
44.9
 21
106.9
  0
LINE
  8
0
 10
44.9
 20
106.9
 11
44.9
 21
110
  0
LINE
  8
0
 10
44.9
 20
110
 11
35.1
 21
110
  0
LINE
  8
0
 10
35.1
 20
110
 11
35.1
 21
106.9
  0
LINE
  8
0
 10
35.1
 20
106.9
 11
24.9
 21
106.9
  0
LINE
  8
0
 10
24.9
 20
106.9
 11
24.9
 21
110
  0
LINE
  8
0
 10
24.9
 20
110
 11
15.1
 21
110
  0
LINE
  8
0
 10
15.1
 20
110
 11
15.1
 21
106.9
  0
LINE
  8
0
 10
15.1
 20
106.9
 11
4.89999
 21
106.9
  0
LINE
  8
0
 10
4.89999
 20
106.9
 11
4.89999
 21
110
  0
LINE
  8
0
 10
4.89999
 20
110
 11
-4.90001
 21
110
  0
LINE
  8
0
 10
-4.90001
 20
110
 11
-4.90001
 21
106.9
  0
LINE
  8
0
 10
-4.90001
 20
106.9
 11
-15.1
 21
106.9
  0
LINE
  8
0
 10
-15.1
 20
106.9
 11
-15.1
 21
110
  0
LINE
  8
0
 10
-15.1
 20
110
 11
-24.9
 21
110
  0
LINE
  8
0
 10
-24.9
 20
110
 11
-24.9
 21
106.9
  0
LINE
  8
0
 10
-24.9
 20
106.9
 11
-35.1
 21
106.9
  0
LINE
  8
0
 10
-35.1
 20
106.9
 11
-35.1
 21
110
  0
LINE
  8
0
 10
-35.1
 20
110
 11
-44.9
 21
110
  0
LINE
  8
0
 10
-44.9
 20
110
 11
-44.9
 21
106.9
  0
LINE
  8
0
 10
-44.9
 20
106.9
 11
-55.1
 21
106.9
  0
LINE
  8
0
 10
-55.1
 20
106.9
 11
-55.1
 21
110
  0
LINE
  8
0
 10
-55.1
 20
110
 11
-64.9
 21
110
  0
LINE
  8
0
 10
-64.9
 20
110
 11
-64.9
 21
106.9
  0
LINE
  8
0
 10
-64.9
 20
106.9
 11
-75.1
 21
106.9
  0
LINE
  8
0
 10
-75.1
 20
106.9
 11
-75.1
 21
110
  0
LINE
  8
0
 10
-75.1
 20
110
 11
-84.9
 21
110
  0
LINE
  8
0
 10
-84.9
 20
110
 11
-84.9
 21
106.9
  0
LINE
  8
0
 10
-84.9
 20
106.9
 11
-95.1
 21
106.9
  0
LINE
  8
0
 10
-95.1
 20
106.9
 11
-95.1
 21
110
  0
LINE
  8
0
 10
-95.1
 20
110
 11
-104.9
 21
110
  0
LINE
  8
0
 10
-104.9
 20
110
 11
-104.9
 21
106.9
  0
LINE
  8
0
 10
-104.9
 20
106.9
 11
-115.1
 21
106.9
  0
LINE
  8
0
 10
-115.1
 20
106.9
 11
-115.1
 21
110
  0
LINE
  8
0
 10
-115.1
 20
110
 11
-125
 21
110
  0
LINE
  8
0
 10
-125
 20
110
 11
-125
 21
100.535
  0
LINE
  8
0
 10
-125
 20
100.535
 11
-121.9
 21
100.535
  0
LINE
  8
0
 10
-121.9
 20
100.535
 11
-121.9
 21
90.7696
  0
LINE
  8
0
 10
-121.9
 20
90.7696
 11
-125
 21
90.7696
  0
LINE
  8
0
 10
-125
 20
90.7696
 11
-125
 21
81.4043
  0
LINE
  8
0
 10
-125
 20
81.4043
 11
-121.9
 21
81.4043
  0
LINE
  8
0
 10
-121.9
 20
81.4043
 11
-121.9
 21
71.6391
  0
LINE
  8
0
 10
-121.9
 20
71.6391
 11
-125
 21
71.6391
  0
LINE
  8
0
 10
-125
 20
71.6391
 11
-125
 21
62.2739
  0
LINE
  8
0
 10
-125
 20
62.2739
 11
-121.9
 21
62.2739
  0
LINE
  8
0
 10
-121.9
 20
62.2739
 11
-121.9
 21
52.5087
  0
LINE
  8
0
 10
-121.9
 20
52.5087
 11
-125
 21
52.5087
  0
LINE
  8
0
 10
-125
 20
52.5087
 11
-125
 21
43.1435
  0
LINE
  8
0
 10
-125
 20
43.1435
 11
-121.9
 21
43.1435
  0
LINE
  8
0
 10
-121.9
 20
43.1435
 11
-121.9
 21
33.3783
  0
LINE
  8
0
 10
-121.9
 20
33.3783
 11
-125
 21
33.3783
  0
LINE
  8
0
 10
-125
 20
33.3783
 11
-125
 21
24.013
  0
LINE
  8
0
 10
-125
 20
24.013
 11
-121.9
 21
24.013
  0
LINE
  8
0
 10
-121.9
 20
24.013
 11
-121.9
 21
14.2478
  0
LINE
  8
0
 10
-121.9
 20
14.2478
 11
-125
 21
14.2478
  0
LINE
  8
0
 10
-125
 20
14.2478
 11
-125
 21
10
  0
LINE
  8
0
 10
-125
 20
10
 11
-140
 21
10
  0
LINE
  8
0
 10
-140
 20
10
 11
-140
 21
-10
  0
LINE
  8
0
 10
-140
 20
-10
 11
-125
 21
-10
  0
LINE
  8
0
 10
-125
 20
-10
 11
-125
 21
-14.2478
  0
LINE
  8
0
 10
-125
 20
-14.2478
 11
-121.9
 21
-14.2478
  0
LINE
  8
0
 10
-121.9
 20
-14.2478
 11
-121.9
 21
-24.013
  0
LINE
  8
0
 10
-121.9
 20
-24.013
 11
-125
 21
-24.013
  0
LINE
  8
0
 10
-125
 20
-24.013
 11
-125
 21
-33.3783
  0
LINE
  8
0
 10
-125
 20
-33.3783
 11
-121.9
 21
-33.3783
  0
LINE
  8
0
 10
-121.9
 20
-33.3783
 11
-121.9
 21
-43.1435
  0
LINE
  8
0
 10
-121.9
 20
-43.1435
 11
-125
 21
-43.1435
  0
LINE
  8
0
 10
-125
 20
-43.1435
 11
-125
 21
-52.5087
  0
LINE
  8
0
 10
-125
 20
-52.5087
 11
-121.9
 21
-52.5087
  0
LINE
  8
0
 10
-121.9
 20
-52.5087
 11
-121.9
 21
-62.2739
  0
LINE
  8
0
 10
-121.9
 20
-62.2739
 11
-125
 21
-62.2739
  0
LINE
  8
0
 10
-125
 20
-62.2739
 11
-125
 21
-71.6391
  0
LINE
  8
0
 10
-125
 20
-71.6391
 11
-121.9
 21
-71.6391
  0
LINE
  8
0
 10
-121.9
 20
-71.6391
 11
-121.9
 21
-81.4044
  0
LINE
  8
0
 10
-121.9
 20
-81.4044
 11
-125
 21
-81.4044
  0
LINE
  8
0
 10
-125
 20
-81.4044
 11
-125
 21
-90.7696
  0
LINE
  8
0
 10
-125
 20
-90.7696
 11
-121.9
 21
-90.7696
  0
LINE
  8
0
 10
-121.9
 20
-90.7696
 11
-121.9
 21
-100.535
  0
LINE
  8
0
 10
-121.9
 20
-100.535
 11
-125
 21
-100.535
  0
LINE
  8
0
 10
-125
 20
-100.535
 11
-125
 21
-110
  0
LINE
  8
0
 10
-125
 20
-110
 11
-115.1
 21
-110
  0
LINE
  8
0
 10
-115.1
 20
-110
 11
-115.1
 21
-106.9
  0
LINE
  8
0
 10
-115.541
 20
98.3356
 11
-116.029
 21
98.5842
  0
LINE
  8
0
 10
-116.029
 20
98.5842
 11
-116.416
 21
98.9714
  0
LINE
  8
0
 10
-116.416
 20
98.9714
 11
-116.664
 21
99.4592
  0
LINE
  8
0
 10
-116.664
 20
99.4592
 11
-116.75
 21
100
  0
LINE
  8
0
 10
-116.75
 20
100
 11
-116.664
 21
100.541
  0
LINE
  8
0
 10
-116.664
 20
100.541
 11
-116.416
 21
101.029
  0
LINE
  8
0
 10
-116.416
 20
101.029
 11
-116.029
 21
101.416
  0
LINE
  8
0
 10
-116.029
 20
101.416
 11
-115.541
 21
101.664
  0
LINE
  8
0
 10
-115.541
 20
101.664
 11
-115
 21
101.75
  0
LINE
  8
0
 10
-115
 20
101.75
 11
-114.459
 21
101.664
  0
LINE
  8
0
 10
-114.459
 20
101.664
 11
-113.971
 21
101.416
  0
LINE
  8
0
 10
-113.971
 20
101.416
 11
-113.584
 21
101.029
  0
LINE
  8
0
 10
-113.584
 20
101.029
 11
-113.336
 21
100.541
  0
LINE
  8
0
 10
-113.336
 20
100.541
 11
-113.25
 21
100
  0
LINE
  8
0
 10
-113.25
 20
100
 11
-113.336
 21
99.4592
  0
LINE
  8
0
 10
-113.336
 20
99.4592
 11
-113.584
 21
98.9714
  0
LINE
  8
0
 10
-113.584
 20
98.9714
 11
-113.971
 21
98.5842
  0
LINE
  8
0
 10
-113.971
 20
98.5842
 11
-114.459
 21
98.3356
  0
LINE
  8
0
 10
-114.459
 20
98.3356
 11
-115
 21
98.25
  0
LINE
  8
0
 10
-115
 20
98.25
 11
-115.541
 21
98.3356
  0
LINE
  8
0
 10
114.459
 20
98.3356
 11
113.971
 21
98.5842
  0
LINE
  8
0
 10
113.971
 20
98.5842
 11
113.584
 21
98.9714
  0
LINE
  8
0
 10
113.584
 20
98.9714
 11
113.336
 21
99.4592
  0
LINE
  8
0
 10
113.336
 20
99.4592
 11
113.25
 21
100
  0
LINE
  8
0
 10
113.25
 20
100
 11
113.336
 21
100.541
  0
LINE
  8
0
 10
113.336
 20
100.541
 11
113.584
 21
101.029
  0
LINE
  8
0
 10
113.584
 20
101.029
 11
113.971
 21
101.416
  0
LINE
  8
0
 10
113.971
 20
101.416
 11
114.459
 21
101.664
  0
LINE
  8
0
 10
114.459
 20
101.664
 11
115
 21
101.75
  0
LINE
  8
0
 10
115
 20
101.75
 11
115.541
 21
101.664
  0
LINE
  8
0
 10
115.541
 20
101.664
 11
116.029
 21
101.416
  0
LINE
  8
0
 10
116.029
 20
101.416
 11
116.416
 21
101.029
  0
LINE
  8
0
 10
116.416
 20
101.029
 11
116.664
 21
100.541
  0
LINE
  8
0
 10
116.664
 20
100.541
 11
116.75
 21
100
  0
LINE
  8
0
 10
116.75
 20
100
 11
116.664
 21
99.4592
  0
LINE
  8
0
 10
116.664
 20
99.4592
 11
116.416
 21
98.9714
  0
LINE
  8
0
 10
116.416
 20
98.9714
 11
116.029
 21
98.5842
  0
LINE
  8
0
 10
116.029
 20
98.5842
 11
115.541
 21
98.3356
  0
LINE
  8
0
 10
115.541
 20
98.3356
 11
115
 21
98.25
  0
LINE
  8
0
 10
115
 20
98.25
 11
114.459
 21
98.3356
  0
LINE
  8
0
 10
57.6137
 20
95.5612
 11
57.2653
 21
95.7387
  0
LINE
  8
0
 10
57.2653
 20
95.7387
 11
56.9887
 21
96.0153
  0
LINE
  8
0
 10
56.9887
 20
96.0153
 11
56.8112
 21
96.3637
  0
LINE
  8
0
 10
56.8112
 20
96.3637
 11
56.75
 21
96.75
  0
LINE
  8
0
 10
56.75
 20
96.75
 11
56.8112
 21
97.1363
  0
LINE
  8
0
 10
56.8112
 20
97.1363
 11
56.9887
 21
97.4847
  0
LINE
  8
0
 10
56.9887
 20
97.4847
 11
57.2653
 21
97.7613
  0
LINE
  8
0
 10
57.2653
 20
97.7613
 11
57.6137
 21
97.9388
  0
LINE
  8
0
 10
57.6137
 20
97.9388
 11
58
 21
98
  0
LINE
  8
0
 10
58
 20
98
 11
58.3863
 21
97.9388
  0
LINE
  8
0
 10
58.3863
 20
97.9388
 11
58.7347
 21
97.7613
  0
LINE
  8
0
 10
58.7347
 20
97.7613
 11
59.0113
 21
97.4847
  0
LINE
  8
0
 10
59.0113
 20
97.4847
 11
59.1888
 21
97.1363
  0
LINE
  8
0
 10
59.1888
 20
97.1363
 11
59.25
 21
96.75
  0
LINE
  8
0
 10
59.25
 20
96.75
 11
59.1888
 21
96.3637
  0
LINE
  8
0
 10
59.1888
 20
96.3637
 11
59.0113
 21
96.0153
  0
LINE
  8
0
 10
59.0113
 20
96.0153
 11
58.7347
 21
95.7387
  0
LINE
  8
0
 10
58.7347
 20
95.7387
 11
58.3863
 21
95.5612
  0
LINE
  8
0
 10
58.3863
 20
95.5612
 11
58
 21
95.5
  0
LINE
  8
0
 10
58
 20
95.5
 11
57.6137
 21
95.5612
  0
LINE
  8
0
 10
21.6137
 20
95.5612
 11
21.2653
 21
95.7387
  0
LINE
  8
0
 10
21.2653
 20
95.7387
 11
20.9887
 21
96.0153
  0
LINE
  8
0
 10
20.9887
 20
96.0153
 11
20.8112
 21
96.3637
  0
LINE
  8
0
 10
20.8112
 20
96.3637
 11
20.75
 21
96.75
  0
LINE
  8
0
 10
20.75
 20
96.75
 11
20.8112
 21
97.1363
  0
LINE
  8
0
 10
20.8112
 20
97.1363
 11
20.9887
 21
97.4847
  0
LINE
  8
0
 10
20.9887
 20
97.4847
 11
21.2653
 21
97.7613
  0
LINE
  8
0
 10
21.2653
 20
97.7613
 11
21.6137
 21
97.9388
  0
LINE
  8
0
 10
21.6137
 20
97.9388
 11
22
 21
98
  0
LINE
  8
0
 10
22
 20
98
 11
22.3863
 21
97.9388
  0
LINE
  8
0
 10
22.3863
 20
97.9388
 11
22.7347
 21
97.7613
  0
LINE
  8
0
 10
22.7347
 20
97.7613
 11
23.0113
 21
97.4847
  0
LINE
  8
0
 10
23.0113
 20
97.4847
 11
23.1888
 21
97.1363
  0
LINE
  8
0
 10
23.1888
 20
97.1363
 11
23.25
 21
96.75
  0
LINE
  8
0
 10
23.25
 20
96.75
 11
23.1888
 21
96.3637
  0
LINE
  8
0
 10
23.1888
 20
96.3637
 11
23.0113
 21
96.0153
  0
LINE
  8
0
 10
23.0113
 20
96.0153
 11
22.7347
 21
95.7387
  0
LINE
  8
0
 10
22.7347
 20
95.7387
 11
22.3863
 21
95.5612
  0
LINE
  8
0
 10
22.3863
 20
95.5612
 11
22
 21
95.5
  0
LINE
  8
0
 10
22
 20
95.5
 11
21.6137
 21
95.5612
  0
LINE
  8
0
 10
-46.8863
 20
93.8112
 11
-47.2347
 21
93.9887
  0
LINE
  8
0
 10
-47.2347
 20
93.9887
 11
-47.5113
 21
94.2653
  0
LINE
  8
0
 10
-47.5113
 20
94.2653
 11
-47.6888
 21
94.6137
  0
LINE
  8
0
 10
-47.6888
 20
94.6137
 11
-47.75
 21
95
  0
LINE
  8
0
 10
-47.75
 20
95
 11
-47.6888
 21
95.3863
  0
LINE
  8
0
 10
-47.6888
 20
95.3863
 11
-47.5113
 21
95.7347
  0
LINE
  8
0
 10
-47.5113
 20
95.7347
 11
-47.2347
 21
96.0113
  0
LINE
  8
0
 10
-47.2347
 20
96.0113
 11
-46.8863
 21
96.1888
  0
LINE
  8
0
 10
-46.8863
 20
96.1888
 11
-46.5
 21
96.25
  0
LINE
  8
0
 10
-46.5
 20
96.25
 11
-46.1137
 21
96.1888
  0
LINE
  8
0
 10
-46.1137
 20
96.1888
 11
-45.7653
 21
96.0113
  0
LINE
  8
0
 10
-45.7653
 20
96.0113
 11
-45.4887
 21
95.7347
  0
LINE
  8
0
 10
-45.4887
 20
95.7347
 11
-45.3112
 21
95.3863
  0
LINE
  8
0
 10
-45.3112
 20
95.3863
 11
-45.25
 21
95
  0
LINE
  8
0
 10
-45.25
 20
95
 11
-45.3112
 21
94.6137
  0
LINE
  8
0
 10
-45.3112
 20
94.6137
 11
-45.4887
 21
94.2653
  0
LINE
  8
0
 10
-45.4887
 20
94.2653
 11
-45.7653
 21
93.9887
  0
LINE
  8
0
 10
-45.7653
 20
93.9887
 11
-46.1137
 21
93.8112
  0
LINE
  8
0
 10
-46.1137
 20
93.8112
 11
-46.5
 21
93.75
  0
LINE
  8
0
 10
-46.5
 20
93.75
 11
-46.8863
 21
93.8112
  0
LINE
  8
0
 10
-93.8863
 20
93.8112
 11
-94.2347
 21
93.9887
  0
LINE
  8
0
 10
-94.2347
 20
93.9887
 11
-94.5113
 21
94.2653
  0
LINE
  8
0
 10
-94.5113
 20
94.2653
 11
-94.6888
 21
94.6137
  0
LINE
  8
0
 10
-94.6888
 20
94.6137
 11
-94.75
 21
95
  0
LINE
  8
0
 10
-94.75
 20
95
 11
-94.6888
 21
95.3863
  0
LINE
  8
0
 10
-94.6888
 20
95.3863
 11
-94.5113
 21
95.7347
  0
LINE
  8
0
 10
-94.5113
 20
95.7347
 11
-94.2347
 21
96.0113
  0
LINE
  8
0
 10
-94.2347
 20
96.0113
 11
-93.8863
 21
96.1888
  0
LINE
  8
0
 10
-93.8863
 20
96.1888
 11
-93.5
 21
96.25
  0
LINE
  8
0
 10
-93.5
 20
96.25
 11
-93.1137
 21
96.1888
  0
LINE
  8
0
 10
-93.1137
 20
96.1888
 11
-92.7653
 21
96.0113
  0
LINE
  8
0
 10
-92.7653
 20
96.0113
 11
-92.4887
 21
95.7347
  0
LINE
  8
0
 10
-92.4887
 20
95.7347
 11
-92.3112
 21
95.3863
  0
LINE
  8
0
 10
-92.3112
 20
95.3863
 11
-92.25
 21
95
  0
LINE
  8
0
 10
-92.25
 20
95
 11
-92.3112
 21
94.6137
  0
LINE
  8
0
 10
-92.3112
 20
94.6137
 11
-92.4887
 21
94.2653
  0
LINE
  8
0
 10
-92.4887
 20
94.2653
 11
-92.7653
 21
93.9887
  0
LINE
  8
0
 10
-92.7653
 20
93.9887
 11
-93.1137
 21
93.8112
  0
LINE
  8
0
 10
-93.1137
 20
93.8112
 11
-93.5
 21
93.75
  0
LINE
  8
0
 10
-93.5
 20
93.75
 11
-93.8863
 21
93.8112
  0
LINE
  8
0
 10
-5.88628
 20
81.8112
 11
-6.23474
 21
81.9887
  0
LINE
  8
0
 10
-6.23474
 20
81.9887
 11
-6.51128
 21
82.2653
  0
LINE
  8
0
 10
-6.51128
 20
82.2653
 11
-6.68883
 21
82.6137
  0
LINE
  8
0
 10
-6.68883
 20
82.6137
 11
-6.75
 21
83
  0
LINE
  8
0
 10
-6.75
 20
83
 11
-6.68883
 21
83.3863
  0
LINE
  8
0
 10
-6.68883
 20
83.3863
 11
-6.51128
 21
83.7347
  0
LINE
  8
0
 10
-6.51128
 20
83.7347
 11
-6.23474
 21
84.0113
  0
LINE
  8
0
 10
-6.23474
 20
84.0113
 11
-5.88628
 21
84.1888
  0
LINE
  8
0
 10
-5.88628
 20
84.1888
 11
-5.5
 21
84.25
  0
LINE
  8
0
 10
-5.5
 20
84.25
 11
-5.11374
 21
84.1888
  0
LINE
  8
0
 10
-5.11374
 20
84.1888
 11
-4.76527
 21
84.0113
  0
LINE
  8
0
 10
-4.76527
 20
84.0113
 11
-4.48874
 21
83.7347
  0
LINE
  8
0
 10
-4.48874
 20
83.7347
 11
-4.31119
 21
83.3863
  0
LINE
  8
0
 10
-4.31119
 20
83.3863
 11
-4.25
 21
83
  0
LINE
  8
0
 10
-4.25
 20
83
 11
-4.31119
 21
82.6137
  0
LINE
  8
0
 10
-4.31119
 20
82.6137
 11
-4.48874
 21
82.2653
  0
LINE
  8
0
 10
-4.48874
 20
82.2653
 11
-4.76527
 21
81.9887
  0
LINE
  8
0
 10
-4.76527
 20
81.9887
 11
-5.11374
 21
81.8112
  0
LINE
  8
0
 10
-5.11374
 20
81.8112
 11
-5.5
 21
81.75
  0
LINE
  8
0
 10
-5.5
 20
81.75
 11
-5.88628
 21
81.8112
  0
LINE
  8
0
 10
21.6137
 20
72.0612
 11
21.2653
 21
72.2387
  0
LINE
  8
0
 10
21.2653
 20
72.2387
 11
20.9887
 21
72.5153
  0
LINE
  8
0
 10
20.9887
 20
72.5153
 11
20.8112
 21
72.8637
  0
LINE
  8
0
 10
20.8112
 20
72.8637
 11
20.75
 21
73.25
  0
LINE
  8
0
 10
20.75
 20
73.25
 11
20.8112
 21
73.6363
  0
LINE
  8
0
 10
20.8112
 20
73.6363
 11
20.9887
 21
73.9847
  0
LINE
  8
0
 10
20.9887
 20
73.9847
 11
21.2653
 21
74.2613
  0
LINE
  8
0
 10
21.2653
 20
74.2613
 11
21.6137
 21
74.4388
  0
LINE
  8
0
 10
21.6137
 20
74.4388
 11
22
 21
74.5
  0
LINE
  8
0
 10
22
 20
74.5
 11
22.3863
 21
74.4388
  0
LINE
  8
0
 10
22.3863
 20
74.4388
 11
22.7347
 21
74.2613
  0
LINE
  8
0
 10
22.7347
 20
74.2613
 11
23.0113
 21
73.9847
  0
LINE
  8
0
 10
23.0113
 20
73.9847
 11
23.1888
 21
73.6363
  0
LINE
  8
0
 10
23.1888
 20
73.6363
 11
23.25
 21
73.25
  0
LINE
  8
0
 10
23.25
 20
73.25
 11
23.1888
 21
72.8637
  0
LINE
  8
0
 10
23.1888
 20
72.8637
 11
23.0113
 21
72.5153
  0
LINE
  8
0
 10
23.0113
 20
72.5153
 11
22.7347
 21
72.2387
  0
LINE
  8
0
 10
22.7347
 20
72.2387
 11
22.3863
 21
72.0612
  0
LINE
  8
0
 10
22.3863
 20
72.0612
 11
22
 21
72
  0
LINE
  8
0
 10
22
 20
72
 11
21.6137
 21
72.0612
  0
LINE
  8
0
 10
57.6137
 20
72.0612
 11
57.2653
 21
72.2387
  0
LINE
  8
0
 10
57.2653
 20
72.2387
 11
56.9887
 21
72.5153
  0
LINE
  8
0
 10
56.9887
 20
72.5153
 11
56.8112
 21
72.8637
  0
LINE
  8
0
 10
56.8112
 20
72.8637
 11
56.75
 21
73.25
  0
LINE
  8
0
 10
56.75
 20
73.25
 11
56.8112
 21
73.6363
  0
LINE
  8
0
 10
56.8112
 20
73.6363
 11
56.9887
 21
73.9847
  0
LINE
  8
0
 10
56.9887
 20
73.9847
 11
57.2653
 21
74.2613
  0
LINE
  8
0
 10
57.2653
 20
74.2613
 11
57.6137
 21
74.4388
  0
LINE
  8
0
 10
57.6137
 20
74.4388
 11
58
 21
74.5
  0
LINE
  8
0
 10
58
 20
74.5
 11
58.3863
 21
74.4388
  0
LINE
  8
0
 10
58.3863
 20
74.4388
 11
58.7347
 21
74.2613
  0
LINE
  8
0
 10
58.7347
 20
74.2613
 11
59.0113
 21
73.9847
  0
LINE
  8
0
 10
59.0113
 20
73.9847
 11
59.1888
 21
73.6363
  0
LINE
  8
0
 10
59.1888
 20
73.6363
 11
59.25
 21
73.25
  0
LINE
  8
0
 10
59.25
 20
73.25
 11
59.1888
 21
72.8637
  0
LINE
  8
0
 10
59.1888
 20
72.8637
 11
59.0113
 21
72.5153
  0
LINE
  8
0
 10
59.0113
 20
72.5153
 11
58.7347
 21
72.2387
  0
LINE
  8
0
 10
58.7347
 20
72.2387
 11
58.3863
 21
72.0612
  0
LINE
  8
0
 10
58.3863
 20
72.0612
 11
58
 21
72
  0
LINE
  8
0
 10
58
 20
72
 11
57.6137
 21
72.0612
  0
LINE
  8
0
 10
16.6137
 20
55.3112
 11
16.2653
 21
55.4887
  0
LINE
  8
0
 10
16.2653
 20
55.4887
 11
15.9887
 21
55.7653
  0
LINE
  8
0
 10
15.9887
 20
55.7653
 11
15.8112
 21
56.1137
  0
LINE
  8
0
 10
15.8112
 20
56.1137
 11
15.75
 21
56.5
  0
LINE
  8
0
 10
15.75
 20
56.5
 11
15.8112
 21
56.8863
  0
LINE
  8
0
 10
15.8112
 20
56.8863
 11
15.9887
 21
57.2347
  0
LINE
  8
0
 10
15.9887
 20
57.2347
 11
16.2653
 21
57.5113
  0
LINE
  8
0
 10
16.2653
 20
57.5113
 11
16.6137
 21
57.6888
  0
LINE
  8
0
 10
16.6137
 20
57.6888
 11
17
 21
57.75
  0
LINE
  8
0
 10
17
 20
57.75
 11
17.3863
 21
57.6888
  0
LINE
  8
0
 10
17.3863
 20
57.6888
 11
17.7347
 21
57.5113
  0
LINE
  8
0
 10
17.7347
 20
57.5113
 11
18.0113
 21
57.2347
  0
LINE
  8
0
 10
18.0113
 20
57.2347
 11
18.1888
 21
56.8863
  0
LINE
  8
0
 10
18.1888
 20
56.8863
 11
18.25
 21
56.5
  0
LINE
  8
0
 10
18.25
 20
56.5
 11
18.1888
 21
56.1137
  0
LINE
  8
0
 10
18.1888
 20
56.1137
 11
18.0113
 21
55.7653
  0
LINE
  8
0
 10
18.0113
 20
55.7653
 11
17.7347
 21
55.4887
  0
LINE
  8
0
 10
17.7347
 20
55.4887
 11
17.3863
 21
55.3112
  0
LINE
  8
0
 10
17.3863
 20
55.3112
 11
17
 21
55.25
  0
LINE
  8
0
 10
17
 20
55.25
 11
16.6137
 21
55.3112
  0
LINE
  8
0
 10
62.6137
 20
55.3112
 11
62.2653
 21
55.4887
  0
LINE
  8
0
 10
62.2653
 20
55.4887
 11
61.9887
 21
55.7653
  0
LINE
  8
0
 10
61.9887
 20
55.7653
 11
61.8112
 21
56.1137
  0
LINE
  8
0
 10
61.8112
 20
56.1137
 11
61.75
 21
56.5
  0
LINE
  8
0
 10
61.75
 20
56.5
 11
61.8112
 21
56.8863
  0
LINE
  8
0
 10
61.8112
 20
56.8863
 11
61.9887
 21
57.2347
  0
LINE
  8
0
 10
61.9887
 20
57.2347
 11
62.2653
 21
57.5113
  0
LINE
  8
0
 10
62.2653
 20
57.5113
 11
62.6137
 21
57.6888
  0
LINE
  8
0
 10
62.6137
 20
57.6888
 11
63
 21
57.75
  0
LINE
  8
0
 10
63
 20
57.75
 11
63.3863
 21
57.6888
  0
LINE
  8
0
 10
63.3863
 20
57.6888
 11
63.7347
 21
57.5113
  0
LINE
  8
0
 10
63.7347
 20
57.5113
 11
64.0113
 21
57.2347
  0
LINE
  8
0
 10
64.0113
 20
57.2347
 11
64.1888
 21
56.8863
  0
LINE
  8
0
 10
64.1888
 20
56.8863
 11
64.25
 21
56.5
  0
LINE
  8
0
 10
64.25
 20
56.5
 11
64.1888
 21
56.1137
  0
LINE
  8
0
 10
64.1888
 20
56.1137
 11
64.0113
 21
55.7653
  0
LINE
  8
0
 10
64.0113
 20
55.7653
 11
63.7347
 21
55.4887
  0
LINE
  8
0
 10
63.7347
 20
55.4887
 11
63.3863
 21
55.3112
  0
LINE
  8
0
 10
63.3863
 20
55.3112
 11
63
 21
55.25
  0
LINE
  8
0
 10
63
 20
55.25
 11
62.6137
 21
55.3112
  0
LINE
  8
0
 10
104.114
 20
38.8112
 11
103.765
 21
38.9887
  0
LINE
  8
0
 10
103.765
 20
38.9887
 11
103.489
 21
39.2653
  0
LINE
  8
0
 10
103.489
 20
39.2653
 11
103.311
 21
39.6137
  0
LINE
  8
0
 10
103.311
 20
39.6137
 11
103.25
 21
40
  0
LINE
  8
0
 10
103.25
 20
40
 11
103.311
 21
40.3863
  0
LINE
  8
0
 10
103.311
 20
40.3863
 11
103.489
 21
40.7347
  0
LINE
  8
0
 10
103.489
 20
40.7347
 11
103.765
 21
41.0113
  0
LINE
  8
0
 10
103.765
 20
41.0113
 11
104.114
 21
41.1888
  0
LINE
  8
0
 10
104.114
 20
41.1888
 11
104.5
 21
41.25
  0
LINE
  8
0
 10
104.5
 20
41.25
 11
104.886
 21
41.1888
  0
LINE
  8
0
 10
104.886
 20
41.1888
 11
105.235
 21
41.0113
  0
LINE
  8
0
 10
105.235
 20
41.0113
 11
105.511
 21
40.7347
  0
LINE
  8
0
 10
105.511
 20
40.7347
 11
105.689
 21
40.3863
  0
LINE
  8
0
 10
105.689
 20
40.3863
 11
105.75
 21
40
  0
LINE
  8
0
 10
105.75
 20
40
 11
105.689
 21
39.6137
  0
LINE
  8
0
 10
105.689
 20
39.6137
 11
105.511
 21
39.2653
  0
LINE
  8
0
 10
105.511
 20
39.2653
 11
105.235
 21
38.9887
  0
LINE
  8
0
 10
105.235
 20
38.9887
 11
104.886
 21
38.8112
  0
LINE
  8
0
 10
104.886
 20
38.8112
 11
104.5
 21
38.75
  0
LINE
  8
0
 10
104.5
 20
38.75
 11
104.114
 21
38.8112
  0
LINE
  8
0
 10
62.6137
 20
32.3112
 11
62.2653
 21
32.4887
  0
LINE
  8
0
 10
62.2653
 20
32.4887
 11
61.9887
 21
32.7653
  0
LINE
  8
0
 10
61.9887
 20
32.7653
 11
61.8112
 21
33.1137
  0
LINE
  8
0
 10
61.8112
 20
33.1137
 11
61.75
 21
33.5
  0
LINE
  8
0
 10
61.75
 20
33.5
 11
61.8112
 21
33.8863
  0
LINE
  8
0
 10
61.8112
 20
33.8863
 11
61.9887
 21
34.2347
  0
LINE
  8
0
 10
61.9887
 20
34.2347
 11
62.2653
 21
34.5113
  0
LINE
  8
0
 10
62.2653
 20
34.5113
 11
62.6137
 21
34.6888
  0
LINE
  8
0
 10
62.6137
 20
34.6888
 11
63
 21
34.75
  0
LINE
  8
0
 10
63
 20
34.75
 11
63.3863
 21
34.6888
  0
LINE
  8
0
 10
63.3863
 20
34.6888
 11
63.7347
 21
34.5113
  0
LINE
  8
0
 10
63.7347
 20
34.5113
 11
64.0113
 21
34.2347
  0
LINE
  8
0
 10
64.0113
 20
34.2347
 11
64.1888
 21
33.8863
  0
LINE
  8
0
 10
64.1888
 20
33.8863
 11
64.25
 21
33.5
  0
LINE
  8
0
 10
64.25
 20
33.5
 11
64.1888
 21
33.1137
  0
LINE
  8
0
 10
64.1888
 20
33.1137
 11
64.0113
 21
32.7653
  0
LINE
  8
0
 10
64.0113
 20
32.7653
 11
63.7347
 21
32.4887
  0
LINE
  8
0
 10
63.7347
 20
32.4887
 11
63.3863
 21
32.3112
  0
LINE
  8
0
 10
63.3863
 20
32.3112
 11
63
 21
32.25
  0
LINE
  8
0
 10
63
 20
32.25
 11
62.6137
 21
32.3112
  0
LINE
  8
0
 10
16.6137
 20
32.3112
 11
16.2653
 21
32.4887
  0
LINE
  8
0
 10
16.2653
 20
32.4887
 11
15.9887
 21
32.7653
  0
LINE
  8
0
 10
15.9887
 20
32.7653
 11
15.8112
 21
33.1137
  0
LINE
  8
0
 10
15.8112
 20
33.1137
 11
15.75
 21
33.5
  0
LINE
  8
0
 10
15.75
 20
33.5
 11
15.8112
 21
33.8863
  0
LINE
  8
0
 10
15.8112
 20
33.8863
 11
15.9887
 21
34.2347
  0
LINE
  8
0
 10
15.9887
 20
34.2347
 11
16.2653
 21
34.5113
  0
LINE
  8
0
 10
16.2653
 20
34.5113
 11
16.6137
 21
34.6888
  0
LINE
  8
0
 10
16.6137
 20
34.6888
 11
17
 21
34.75
  0
LINE
  8
0
 10
17
 20
34.75
 11
17.3863
 21
34.6888
  0
LINE
  8
0
 10
17.3863
 20
34.6888
 11
17.7347
 21
34.5113
  0
LINE
  8
0
 10
17.7347
 20
34.5113
 11
18.0113
 21
34.2347
  0
LINE
  8
0
 10
18.0113
 20
34.2347
 11
18.1888
 21
33.8863
  0
LINE
  8
0
 10
18.1888
 20
33.8863
 11
18.25
 21
33.5
  0
LINE
  8
0
 10
18.25
 20
33.5
 11
18.1888
 21
33.1137
  0
LINE
  8
0
 10
18.1888
 20
33.1137
 11
18.0113
 21
32.7653
  0
LINE
  8
0
 10
18.0113
 20
32.7653
 11
17.7347
 21
32.4887
  0
LINE
  8
0
 10
17.7347
 20
32.4887
 11
17.3863
 21
32.3112
  0
LINE
  8
0
 10
17.3863
 20
32.3112
 11
17
 21
32.25
  0
LINE
  8
0
 10
17
 20
32.25
 11
16.6137
 21
32.3112
  0
LINE
  8
0
 10
-34.8863
 20
25.8112
 11
-35.2347
 21
25.9887
  0
LINE
  8
0
 10
-35.2347
 20
25.9887
 11
-35.5113
 21
26.2653
  0
LINE
  8
0
 10
-35.5113
 20
26.2653
 11
-35.6888
 21
26.6137
  0
LINE
  8
0
 10
-35.6888
 20
26.6137
 11
-35.75
 21
27
  0
LINE
  8
0
 10
-35.75
 20
27
 11
-35.6888
 21
27.3863
  0
LINE
  8
0
 10
-35.6888
 20
27.3863
 11
-35.5113
 21
27.7347
  0
LINE
  8
0
 10
-35.5113
 20
27.7347
 11
-35.2347
 21
28.0113
  0
LINE
  8
0
 10
-35.2347
 20
28.0113
 11
-34.8863
 21
28.1888
  0
LINE
  8
0
 10
-34.8863
 20
28.1888
 11
-34.5
 21
28.25
  0
LINE
  8
0
 10
-34.5
 20
28.25
 11
-34.1137
 21
28.1888
  0
LINE
  8
0
 10
-34.1137
 20
28.1888
 11
-33.7653
 21
28.0113
  0
LINE
  8
0
 10
-33.7653
 20
28.0113
 11
-33.4887
 21
27.7347
  0
LINE
  8
0
 10
-33.4887
 20
27.7347
 11
-33.3112
 21
27.3863
  0
LINE
  8
0
 10
-33.3112
 20
27.3863
 11
-33.25
 21
27
  0
LINE
  8
0
 10
-33.25
 20
27
 11
-33.3112
 21
26.6137
  0
LINE
  8
0
 10
-33.3112
 20
26.6137
 11
-33.4887
 21
26.2653
  0
LINE
  8
0
 10
-33.4887
 20
26.2653
 11
-33.7653
 21
25.9887
  0
LINE
  8
0
 10
-33.7653
 20
25.9887
 11
-34.1137
 21
25.8112
  0
LINE
  8
0
 10
-34.1137
 20
25.8112
 11
-34.5
 21
25.75
  0
LINE
  8
0
 10
-34.5
 20
25.75
 11
-34.8863
 21
25.8112
  0
LINE
  8
0
 10
75.1137
 20
18.8112
 11
74.7653
 21
18.9887
  0
LINE
  8
0
 10
74.7653
 20
18.9887
 11
74.4887
 21
19.2653
  0
LINE
  8
0
 10
74.4887
 20
19.2653
 11
74.3112
 21
19.6137
  0
LINE
  8
0
 10
74.3112
 20
19.6137
 11
74.25
 21
20
  0
LINE
  8
0
 10
74.25
 20
20
 11
74.3112
 21
20.3863
  0
LINE
  8
0
 10
74.3112
 20
20.3863
 11
74.4887
 21
20.7347
  0
LINE
  8
0
 10
74.4887
 20
20.7347
 11
74.7653
 21
21.0113
  0
LINE
  8
0
 10
74.7653
 20
21.0113
 11
75.1137
 21
21.1888
  0
LINE
  8
0
 10
75.1137
 20
21.1888
 11
75.5
 21
21.25
  0
LINE
  8
0
 10
75.5
 20
21.25
 11
75.8863
 21
21.1888
  0
LINE
  8
0
 10
75.8863
 20
21.1888
 11
76.2347
 21
21.0113
  0
LINE
  8
0
 10
76.2347
 20
21.0113
 11
76.5113
 21
20.7347
  0
LINE
  8
0
 10
76.5113
 20
20.7347
 11
76.6888
 21
20.3863
  0
LINE
  8
0
 10
76.6888
 20
20.3863
 11
76.75
 21
20
  0
LINE
  8
0
 10
76.75
 20
20
 11
76.6888
 21
19.6137
  0
LINE
  8
0
 10
76.6888
 20
19.6137
 11
76.5113
 21
19.2653
  0
LINE
  8
0
 10
76.5113
 20
19.2653
 11
76.2347
 21
18.9887
  0
LINE
  8
0
 10
76.2347
 20
18.9887
 11
75.8863
 21
18.8112
  0
LINE
  8
0
 10
75.8863
 20
18.8112
 11
75.5
 21
18.75
  0
LINE
  8
0
 10
75.5
 20
18.75
 11
75.1137
 21
18.8112
  0
LINE
  8
0
 10
56.1137
 20
15.3112
 11
55.7653
 21
15.4887
  0
LINE
  8
0
 10
55.7653
 20
15.4887
 11
55.4887
 21
15.7653
  0
LINE
  8
0
 10
55.4887
 20
15.7653
 11
55.3112
 21
16.1137
  0
LINE
  8
0
 10
55.3112
 20
16.1137
 11
55.25
 21
16.5
  0
LINE
  8
0
 10
55.25
 20
16.5
 11
55.3112
 21
16.8863
  0
LINE
  8
0
 10
55.3112
 20
16.8863
 11
55.4887
 21
17.2347
  0
LINE
  8
0
 10
55.4887
 20
17.2347
 11
55.7653
 21
17.5113
  0
LINE
  8
0
 10
55.7653
 20
17.5113
 11
56.1137
 21
17.6888
  0
LINE
  8
0
 10
56.1137
 20
17.6888
 11
56.5
 21
17.75
  0
LINE
  8
0
 10
56.5
 20
17.75
 11
56.8863
 21
17.6888
  0
LINE
  8
0
 10
56.8863
 20
17.6888
 11
57.2347
 21
17.5113
  0
LINE
  8
0
 10
57.2347
 20
17.5113
 11
57.5113
 21
17.2347
  0
LINE
  8
0
 10
57.5113
 20
17.2347
 11
57.6888
 21
16.8863
  0
LINE
  8
0
 10
57.6888
 20
16.8863
 11
57.75
 21
16.5
  0
LINE
  8
0
 10
57.75
 20
16.5
 11
57.6888
 21
16.1137
  0
LINE
  8
0
 10
57.6888
 20
16.1137
 11
57.5113
 21
15.7653
  0
LINE
  8
0
 10
57.5113
 20
15.7653
 11
57.2347
 21
15.4887
  0
LINE
  8
0
 10
57.2347
 20
15.4887
 11
56.8863
 21
15.3112
  0
LINE
  8
0
 10
56.8863
 20
15.3112
 11
56.5
 21
15.25
  0
LINE
  8
0
 10
56.5
 20
15.25
 11
56.1137
 21
15.3112
  0
LINE
  8
0
 10
121.9
 20
-4.88261
 11
121.9
 21
4.8826
  0
LINE
  8
0
 10
121.9
 20
4.8826
 11
125
 21
4.8826
  0
LINE
  8
0
 10
125
 20
4.8826
 11
125
 21
-4.88261
  0
LINE
  8
0
 10
125
 20
-4.88261
 11
121.9
 21
-4.88261
  0
LINE
  8
0
 10
-125
 20
-4.88261
 11
-125
 21
4.8826
  0
LINE
  8
0
 10
-125
 20
4.8826
 11
-121.9
 21
4.8826
  0
LINE
  8
0
 10
-121.9
 20
4.8826
 11
-121.9
 21
-4.88261
  0
LINE
  8
0
 10
-121.9
 20
-4.88261
 11
-125
 21
-4.88261
  0
LINE
  8
0
 10
-93.8863
 20
-0.188812
 11
-94.2347
 21
-0.011261
  0
LINE
  8
0
 10
-94.2347
 20
-0.011261
 11
-94.5113
 21
0.265274
  0
LINE
  8
0
 10
-94.5113
 20
0.265274
 11
-94.6888
 21
0.613739
  0
LINE
  8
0
 10
-94.6888
 20
0.613739
 11
-94.75
 21
1
  0
LINE
  8
0
 10
-94.75
 20
1
 11
-94.6888
 21
1.38628
  0
LINE
  8
0
 10
-94.6888
 20
1.38628
 11
-94.5113
 21
1.73474
  0
LINE
  8
0
 10
-94.5113
 20
1.73474
 11
-94.2347
 21
2.01128
  0
LINE
  8
0
 10
-94.2347
 20
2.01128
 11
-93.8863
 21
2.18883
  0
LINE
  8
0
 10
-93.8863
 20
2.18883
 11
-93.5
 21
2.25
  0
LINE
  8
0
 10
-93.5
 20
2.25
 11
-93.1137
 21
2.18883
  0
LINE
  8
0
 10
-93.1137
 20
2.18883
 11
-92.7653
 21
2.01128
  0
LINE
  8
0
 10
-92.7653
 20
2.01128
 11
-92.4887
 21
1.73474
  0
LINE
  8
0
 10
-92.4887
 20
1.73474
 11
-92.3112
 21
1.38628
  0
LINE
  8
0
 10
-92.3112
 20
1.38628
 11
-92.25
 21
1
  0
LINE
  8
0
 10
-92.25
 20
1
 11
-92.3112
 21
0.613739
  0
LINE
  8
0
 10
-92.3112
 20
0.613739
 11
-92.4887
 21
0.265274
  0
LINE
  8
0
 10
-92.4887
 20
0.265274
 11
-92.7653
 21
-0.011261
  0
LINE
  8
0
 10
-92.7653
 20
-0.011261
 11
-93.1137
 21
-0.188812
  0
LINE
  8
0
 10
-93.1137
 20
-0.188812
 11
-93.5
 21
-0.25
  0
LINE
  8
0
 10
-93.5
 20
-0.25
 11
-93.8863
 21
-0.188812
  0
LINE
  8
0
 10
131.805
 20
-2.13986
 11
131.177
 21
-1.82028
  0
LINE
  8
0
 10
131.177
 20
-1.82028
 11
130.68
 21
-1.32251
  0
LINE
  8
0
 10
130.68
 20
-1.32251
 11
130.36
 21
-0.695282
  0
LINE
  8
0
 10
130.36
 20
-0.695282
 11
130.25
 21
0
  0
LINE
  8
0
 10
130.25
 20
0
 11
130.36
 21
0.695282
  0
LINE
  8
0
 10
130.36
 20
0.695282
 11
130.68
 21
1.32251
  0
LINE
  8
0
 10
130.68
 20
1.32251
 11
131.177
 21
1.82028
  0
LINE
  8
0
 10
131.177
 20
1.82028
 11
131.805
 21
2.13986
  0
LINE
  8
0
 10
131.805
 20
2.13986
 11
132.5
 21
2.25
  0
LINE
  8
0
 10
132.5
 20
2.25
 11
133.195
 21
2.13986
  0
LINE
  8
0
 10
133.195
 20
2.13986
 11
133.823
 21
1.82028
  0
LINE
  8
0
 10
133.823
 20
1.82028
 11
134.32
 21
1.32251
  0
LINE
  8
0
 10
134.32
 20
1.32251
 11
134.64
 21
0.695282
  0
LINE
  8
0
 10
134.64
 20
0.695282
 11
134.75
 21
0
  0
LINE
  8
0
 10
134.75
 20
0
 11
134.64
 21
-0.695282
  0
LINE
  8
0
 10
134.64
 20
-0.695282
 11
134.32
 21
-1.32251
  0
LINE
  8
0
 10
134.32
 20
-1.32251
 11
133.823
 21
-1.82028
  0
LINE
  8
0
 10
133.823
 20
-1.82028
 11
133.195
 21
-2.13986
  0
LINE
  8
0
 10
133.195
 20
-2.13986
 11
132.5
 21
-2.25
  0
LINE
  8
0
 10
132.5
 20
-2.25
 11
131.805
 21
-2.13986
  0
LINE
  8
0
 10
-46.8863
 20
-0.188812
 11
-47.2347
 21
-0.011261
  0
LINE
  8
0
 10
-47.2347
 20
-0.011261
 11
-47.5113
 21
0.265274
  0
LINE
  8
0
 10
-47.5113
 20
0.265274
 11
-47.6888
 21
0.613739
  0
LINE
  8
0
 10
-47.6888
 20
0.613739
 11
-47.75
 21
1
  0
LINE
  8
0
 10
-47.75
 20
1
 11
-47.6888
 21
1.38628
  0
LINE
  8
0
 10
-47.6888
 20
1.38628
 11
-47.5113
 21
1.73474
  0
LINE
  8
0
 10
-47.5113
 20
1.73474
 11
-47.2347
 21
2.01128
  0
LINE
  8
0
 10
-47.2347
 20
2.01128
 11
-46.8863
 21
2.18883
  0
LINE
  8
0
 10
-46.8863
 20
2.18883
 11
-46.5
 21
2.25
  0
LINE
  8
0
 10
-46.5
 20
2.25
 11
-46.1137
 21
2.18883
  0
LINE
  8
0
 10
-46.1137
 20
2.18883
 11
-45.7653
 21
2.01128
  0
LINE
  8
0
 10
-45.7653
 20
2.01128
 11
-45.4887
 21
1.73474
  0
LINE
  8
0
 10
-45.4887
 20
1.73474
 11
-45.3112
 21
1.38628
  0
LINE
  8
0
 10
-45.3112
 20
1.38628
 11
-45.25
 21
1
  0
LINE
  8
0
 10
-45.25
 20
1
 11
-45.3112
 21
0.613739
  0
LINE
  8
0
 10
-45.3112
 20
0.613739
 11
-45.4887
 21
0.265274
  0
LINE
  8
0
 10
-45.4887
 20
0.265274
 11
-45.7653
 21
-0.011261
  0
LINE
  8
0
 10
-45.7653
 20
-0.011261
 11
-46.1137
 21
-0.188812
  0
LINE
  8
0
 10
-46.1137
 20
-0.188812
 11
-46.5
 21
-0.25
  0
LINE
  8
0
 10
-46.5
 20
-0.25
 11
-46.8863
 21
-0.188812
  0
LINE
  8
0
 10
-133.195
 20
-2.13986
 11
-133.823
 21
-1.82028
  0
LINE
  8
0
 10
-133.823
 20
-1.82028
 11
-134.32
 21
-1.32251
  0
LINE
  8
0
 10
-134.32
 20
-1.32251
 11
-134.64
 21
-0.695282
  0
LINE
  8
0
 10
-134.64
 20
-0.695282
 11
-134.75
 21
0
  0
LINE
  8
0
 10
-134.75
 20
0
 11
-134.64
 21
0.695282
  0
LINE
  8
0
 10
-134.64
 20
0.695282
 11
-134.32
 21
1.32251
  0
LINE
  8
0
 10
-134.32
 20
1.32251
 11
-133.823
 21
1.82028
  0
LINE
  8
0
 10
-133.823
 20
1.82028
 11
-133.195
 21
2.13986
  0
LINE
  8
0
 10
-133.195
 20
2.13986
 11
-132.5
 21
2.25
  0
LINE
  8
0
 10
-132.5
 20
2.25
 11
-131.805
 21
2.13986
  0
LINE
  8
0
 10
-131.805
 20
2.13986
 11
-131.177
 21
1.82028
  0
LINE
  8
0
 10
-131.177
 20
1.82028
 11
-130.68
 21
1.32251
  0
LINE
  8
0
 10
-130.68
 20
1.32251
 11
-130.36
 21
0.695282
  0
LINE
  8
0
 10
-130.36
 20
0.695282
 11
-130.25
 21
0
  0
LINE
  8
0
 10
-130.25
 20
0
 11
-130.36
 21
-0.695282
  0
LINE
  8
0
 10
-130.36
 20
-0.695282
 11
-130.68
 21
-1.32251
  0
LINE
  8
0
 10
-130.68
 20
-1.32251
 11
-131.177
 21
-1.82028
  0
LINE
  8
0
 10
-131.177
 20
-1.82028
 11
-131.805
 21
-2.13986
  0
LINE
  8
0
 10
-131.805
 20
-2.13986
 11
-132.5
 21
-2.25
  0
LINE
  8
0
 10
-132.5
 20
-2.25
 11
-133.195
 21
-2.13986
  0
LINE
  8
0
 10
23.1137
 20
-1.68881
 11
22.7653
 21
-1.51126
  0
LINE
  8
0
 10
22.7653
 20
-1.51126
 11
22.4887
 21
-1.23473
  0
LINE
  8
0
 10
22.4887
 20
-1.23473
 11
22.3112
 21
-0.886261
  0
LINE
  8
0
 10
22.3112
 20
-0.886261
 11
22.25
 21
-0.5
  0
LINE
  8
0
 10
22.25
 20
-0.5
 11
22.3112
 21
-0.113724
  0
LINE
  8
0
 10
22.3112
 20
-0.113724
 11
22.4887
 21
0.234741
  0
LINE
  8
0
 10
22.4887
 20
0.234741
 11
22.7653
 21
0.511276
  0
LINE
  8
0
 10
22.7653
 20
0.511276
 11
23.1137
 21
0.688828
  0
LINE
  8
0
 10
23.1137
 20
0.688828
 11
23.5
 21
0.75
  0
LINE
  8
0
 10
23.5
 20
0.75
 11
23.8863
 21
0.688828
  0
LINE
  8
0
 10
23.8863
 20
0.688828
 11
24.2347
 21
0.511276
  0
LINE
  8
0
 10
24.2347
 20
0.511276
 11
24.5113
 21
0.234741
  0
LINE
  8
0
 10
24.5113
 20
0.234741
 11
24.6888
 21
-0.113724
  0
LINE
  8
0
 10
24.6888
 20
-0.113724
 11
24.75
 21
-0.5
  0
LINE
  8
0
 10
24.75
 20
-0.5
 11
24.6888
 21
-0.886261
  0
LINE
  8
0
 10
24.6888
 20
-0.886261
 11
24.5113
 21
-1.23473
  0
LINE
  8
0
 10
24.5113
 20
-1.23473
 11
24.2347
 21
-1.51126
  0
LINE
  8
0
 10
24.2347
 20
-1.51126
 11
23.8863
 21
-1.68881
  0
LINE
  8
0
 10
23.8863
 20
-1.68881
 11
23.5
 21
-1.75
  0
LINE
  8
0
 10
23.5
 20
-1.75
 11
23.1137
 21
-1.68881
  0
LINE
  8
0
 10
2
 20
-66
 11
2
 21
-46
  0
LINE
  8
0
 10
2
 20
-46
 11
4
 21
-46
  0
LINE
  8
0
 10
4
 20
-46
 11
4
 21
-66
  0
LINE
  8
0
 10
4
 20
-66
 11
2
 21
-66
  0
LINE
  8
0
 10
20
 20
-66
 11
20
 21
-46
  0
LINE
  8
0
 10
20
 20
-46
 11
22
 21
-46
  0
LINE
  8
0
 10
22
 20
-46
 11
22
 21
-66
  0
LINE
  8
0
 10
22
 20
-66
 11
20
 21
-66
  0
LINE
  8
0
 10
14
 20
-66
 11
14
 21
-46
  0
LINE
  8
0
 10
14
 20
-46
 11
16
 21
-46
  0
LINE
  8
0
 10
16
 20
-46
 11
16
 21
-66
  0
LINE
  8
0
 10
16
 20
-66
 11
14
 21
-66
  0
LINE
  8
0
 10
8
 20
-66
 11
8
 21
-46
  0
LINE
  8
0
 10
8
 20
-46
 11
10
 21
-46
  0
LINE
  8
0
 10
10
 20
-46
 11
10
 21
-66
  0
LINE
  8
0
 10
10
 20
-66
 11
8
 21
-66
  0
LINE
  8
0
 10
-4
 20
-66
 11
-4
 21
-46
  0
LINE
  8
0
 10
-4
 20
-46
 11
-2
 21
-46
  0
LINE
  8
0
 10
-2
 20
-46
 11
-2
 21
-66
  0
LINE
  8
0
 10
-2
 20
-66
 11
-4
 21
-66
  0
LINE
  8
0
 10
-10
 20
-66
 11
-10
 21
-46
  0
LINE
  8
0
 10
-10
 20
-46
 11
-8
 21
-46
  0
LINE
  8
0
 10
-8
 20
-46
 11
-8
 21
-66
  0
LINE
  8
0
 10
-8
 20
-66
 11
-10
 21
-66
  0
LINE
  8
0
 10
-16
 20
-66
 11
-16
 21
-46
  0
LINE
  8
0
 10
-16
 20
-46
 11
-14
 21
-46
  0
LINE
  8
0
 10
-14
 20
-46
 11
-14
 21
-66
  0
LINE
  8
0
 10
-14
 20
-66
 11
-16
 21
-66
  0
LINE
  8
0
 10
-22
 20
-66
 11
-22
 21
-46
  0
LINE
  8
0
 10
-22
 20
-46
 11
-20
 21
-46
  0
LINE
  8
0
 10
-20
 20
-46
 11
-20
 21
-66
  0
LINE
  8
0
 10
-20
 20
-66
 11
-22
 21
-66
  0
LINE
  8
0
 10
114.459
 20
-101.664
 11
113.971
 21
-101.416
  0
LINE
  8
0
 10
113.971
 20
-101.416
 11
113.584
 21
-101.029
  0
LINE
  8
0
 10
113.584
 20
-101.029
 11
113.336
 21
-100.541
  0
LINE
  8
0
 10
113.336
 20
-100.541
 11
113.25
 21
-100
  0
LINE
  8
0
 10
113.25
 20
-100
 11
113.336
 21
-99.4592
  0
LINE
  8
0
 10
113.336
 20
-99.4592
 11
113.584
 21
-98.9714
  0
LINE
  8
0
 10
113.584
 20
-98.9714
 11
113.971
 21
-98.5842
  0
LINE
  8
0
 10
113.971
 20
-98.5842
 11
114.459
 21
-98.3356
  0
LINE
  8
0
 10
114.459
 20
-98.3356
 11
115
 21
-98.25
  0
LINE
  8
0
 10
115
 20
-98.25
 11
115.541
 21
-98.3356
  0
LINE
  8
0
 10
115.541
 20
-98.3356
 11
116.029
 21
-98.5842
  0
LINE
  8
0
 10
116.029
 20
-98.5842
 11
116.416
 21
-98.9714
  0
LINE
  8
0
 10
116.416
 20
-98.9714
 11
116.664
 21
-99.4592
  0
LINE
  8
0
 10
116.664
 20
-99.4592
 11
116.75
 21
-100
  0
LINE
  8
0
 10
116.75
 20
-100
 11
116.664
 21
-100.541
  0
LINE
  8
0
 10
116.664
 20
-100.541
 11
116.416
 21
-101.029
  0
LINE
  8
0
 10
116.416
 20
-101.029
 11
116.029
 21
-101.416
  0
LINE
  8
0
 10
116.029
 20
-101.416
 11
115.541
 21
-101.664
  0
LINE
  8
0
 10
115.541
 20
-101.664
 11
115
 21
-101.75
  0
LINE
  8
0
 10
115
 20
-101.75
 11
114.459
 21
-101.664
  0
LINE
  8
0
 10
-115.541
 20
-101.664
 11
-116.029
 21
-101.416
  0
LINE
  8
0
 10
-116.029
 20
-101.416
 11
-116.416
 21
-101.029
  0
LINE
  8
0
 10
-116.416
 20
-101.029
 11
-116.664
 21
-100.541
  0
LINE
  8
0
 10
-116.664
 20
-100.541
 11
-116.75
 21
-100
  0
LINE
  8
0
 10
-116.75
 20
-100
 11
-116.664
 21
-99.4592
  0
LINE
  8
0
 10
-116.664
 20
-99.4592
 11
-116.416
 21
-98.9714
  0
LINE
  8
0
 10
-116.416
 20
-98.9714
 11
-116.029
 21
-98.5842
  0
LINE
  8
0
 10
-116.029
 20
-98.5842
 11
-115.541
 21
-98.3356
  0
LINE
  8
0
 10
-115.541
 20
-98.3356
 11
-115
 21
-98.25
  0
LINE
  8
0
 10
-115
 20
-98.25
 11
-114.459
 21
-98.3356
  0
LINE
  8
0
 10
-114.459
 20
-98.3356
 11
-113.971
 21
-98.5842
  0
LINE
  8
0
 10
-113.971
 20
-98.5842
 11
-113.584
 21
-98.9714
  0
LINE
  8
0
 10
-113.584
 20
-98.9714
 11
-113.336
 21
-99.4592
  0
LINE
  8
0
 10
-113.336
 20
-99.4592
 11
-113.25
 21
-100
  0
LINE
  8
0
 10
-113.25
 20
-100
 11
-113.336
 21
-100.541
  0
LINE
  8
0
 10
-113.336
 20
-100.541
 11
-113.584
 21
-101.029
  0
LINE
  8
0
 10
-113.584
 20
-101.029
 11
-113.971
 21
-101.416
  0
LINE
  8
0
 10
-113.971
 20
-101.416
 11
-114.459
 21
-101.664
  0
LINE
  8
0
 10
-114.459
 20
-101.664
 11
-115
 21
-101.75
  0
LINE
  8
0
 10
-115
 20
-101.75
 11
-115.541
 21
-101.664
  0
LINE
  8
0
 10
393.437
 20
-109.661
 11
394.045
 21
-109.505
  0
LINE
  8
0
 10
394.045
 20
-109.505
 11
394.629
 21
-109.274
  0
LINE
  8
0
 10
394.629
 20
-109.274
 11
395.179
 21
-108.972
  0
LINE
  8
0
 10
395.179
 20
-108.972
 11
395.687
 21
-108.603
  0
LINE
  8
0
 10
395.687
 20
-108.603
 11
396.145
 21
-108.173
  0
LINE
  8
0
 10
396.145
 20
-108.173
 11
396.545
 21
-107.689
  0
LINE
  8
0
 10
396.545
 20
-107.689
 11
396.882
 21
-107.159
  0
LINE
  8
0
 10
396.882
 20
-107.159
 11
397.149
 21
-106.591
  0
LINE
  8
0
 10
397.149
 20
-106.591
 11
397.343
 21
-105.993
  0
LINE
  8
0
 10
397.343
 20
-105.993
 11
397.461
 21
-105.377
  0
LINE
  8
0
 10
397.461
 20
-105.377
 11
397.5
 21
-104.75
  0
LINE
  8
0
 10
397.5
 20
-104.75
 11
397.5
 21
104.75
  0
LINE
  8
0
 10
397.5
 20
104.75
 11
397.461
 21
105.377
  0
LINE
  8
0
 10
397.461
 20
105.377
 11
397.343
 21
105.993
  0
LINE
  8
0
 10
397.343
 20
105.993
 11
397.149
 21
106.591
  0
LINE
  8
0
 10
397.149
 20
106.591
 11
396.882
 21
107.159
  0
LINE
  8
0
 10
396.882
 20
107.159
 11
396.545
 21
107.689
  0
LINE
  8
0
 10
396.545
 20
107.689
 11
396.145
 21
108.173
  0
LINE
  8
0
 10
396.145
 20
108.173
 11
395.687
 21
108.603
  0
LINE
  8
0
 10
395.687
 20
108.603
 11
395.179
 21
108.972
  0
LINE
  8
0
 10
395.179
 20
108.972
 11
394.629
 21
109.274
  0
LINE
  8
0
 10
394.629
 20
109.274
 11
394.045
 21
109.505
  0
LINE
  8
0
 10
394.045
 20
109.505
 11
393.437
 21
109.661
  0
LINE
  8
0
 10
393.437
 20
109.661
 11
392.814
 21
109.74
  0
LINE
  8
0
 10
392.814
 20
109.74
 11
152.686
 21
109.74
  0
LINE
  8
0
 10
152.686
 20
109.74
 11
152.063
 21
109.661
  0
LINE
  8
0
 10
152.063
 20
109.661
 11
151.455
 21
109.505
  0
LINE
  8
0
 10
151.455
 20
109.505
 11
150.871
 21
109.274
  0
LINE
  8
0
 10
150.871
 20
109.274
 11
150.321
 21
108.972
  0
LINE
  8
0
 10
150.321
 20
108.972
 11
149.813
 21
108.603
  0
LINE
  8
0
 10
149.813
 20
108.603
 11
149.355
 21
108.173
  0
LINE
  8
0
 10
149.355
 20
108.173
 11
148.955
 21
107.689
  0
LINE
  8
0
 10
148.955
 20
107.689
 11
148.618
 21
107.159
  0
LINE
  8
0
 10
148.618
 20
107.159
 11
148.351
 21
106.591
  0
LINE
  8
0
 10
148.351
 20
106.591
 11
148.157
 21
105.993
  0
LINE
  8
0
 10
148.157
 20
105.993
 11
148.039
 21
105.377
  0
LINE
  8
0
 10
148.039
 20
105.377
 11
148
 21
104.75
  0
LINE
  8
0
 10
148
 20
104.75
 11
148
 21
-104.75
  0
LINE
  8
0
 10
148
 20
-104.75
 11
148.039
 21
-105.377
  0
LINE
  8
0
 10
148.039
 20
-105.377
 11
148.157
 21
-105.993
  0
LINE
  8
0
 10
148.157
 20
-105.993
 11
148.351
 21
-106.591
  0
LINE
  8
0
 10
148.351
 20
-106.591
 11
148.618
 21
-107.159
  0
LINE
  8
0
 10
148.618
 20
-107.159
 11
148.955
 21
-107.689
  0
LINE
  8
0
 10
148.955
 20
-107.689
 11
149.355
 21
-108.173
  0
LINE
  8
0
 10
149.355
 20
-108.173
 11
149.813
 21
-108.603
  0
LINE
  8
0
 10
149.813
 20
-108.603
 11
150.321
 21
-108.972
  0
LINE
  8
0
 10
150.321
 20
-108.972
 11
150.871
 21
-109.274
  0
LINE
  8
0
 10
150.871
 20
-109.274
 11
151.455
 21
-109.505
  0
LINE
  8
0
 10
151.455
 20
-109.505
 11
152.063
 21
-109.661
  0
LINE
  8
0
 10
152.063
 20
-109.661
 11
152.686
 21
-109.74
  0
LINE
  8
0
 10
152.686
 20
-109.74
 11
392.814
 21
-109.74
  0
LINE
  8
0
 10
392.814
 20
-109.74
 11
393.437
 21
-109.661
  0
LINE
  8
0
 10
157.64
 20
98.2534
 11
157.422
 21
98.281
  0
LINE
  8
0
 10
157.422
 20
98.281
 11
157.209
 21
98.3356
  0
LINE
  8
0
 10
157.209
 20
98.3356
 11
157.005
 21
98.4165
  0
LINE
  8
0
 10
157.005
 20
98.4165
 11
156.812
 21
98.5224
  0
LINE
  8
0
 10
156.812
 20
98.5224
 11
156.635
 21
98.6516
  0
LINE
  8
0
 10
156.635
 20
98.6516
 11
156.474
 21
98.802
  0
LINE
  8
0
 10
156.474
 20
98.802
 11
156.334
 21
98.9714
  0
LINE
  8
0
 10
156.334
 20
98.9714
 11
156.216
 21
99.1569
  0
LINE
  8
0
 10
156.216
 20
99.1569
 11
156.123
 21
99.3558
  0
LINE
  8
0
 10
156.123
 20
99.3558
 11
156.055
 21
99.5648
  0
LINE
  8
0
 10
156.055
 20
99.5648
 11
156.014
 21
99.7807
  0
LINE
  8
0
 10
156.014
 20
99.7807
 11
156
 21
100
  0
LINE
  8
0
 10
156
 20
100
 11
156.014
 21
100.219
  0
LINE
  8
0
 10
156.014
 20
100.219
 11
156.055
 21
100.435
  0
LINE
  8
0
 10
156.055
 20
100.435
 11
156.123
 21
100.644
  0
LINE
  8
0
 10
156.123
 20
100.644
 11
156.216
 21
100.843
  0
LINE
  8
0
 10
156.216
 20
100.843
 11
156.334
 21
101.029
  0
LINE
  8
0
 10
156.334
 20
101.029
 11
156.474
 21
101.198
  0
LINE
  8
0
 10
156.474
 20
101.198
 11
156.635
 21
101.348
  0
LINE
  8
0
 10
156.635
 20
101.348
 11
156.812
 21
101.478
  0
LINE
  8
0
 10
156.812
 20
101.478
 11
157.005
 21
101.583
  0
LINE
  8
0
 10
157.005
 20
101.583
 11
157.209
 21
101.664
  0
LINE
  8
0
 10
157.209
 20
101.664
 11
157.422
 21
101.719
  0
LINE
  8
0
 10
157.422
 20
101.719
 11
157.64
 21
101.747
  0
LINE
  8
0
 10
157.64
 20
101.747
 11
157.86
 21
101.747
  0
LINE
  8
0
 10
157.86
 20
101.747
 11
158.078
 21
101.719
  0
LINE
  8
0
 10
158.078
 20
101.719
 11
158.291
 21
101.664
  0
LINE
  8
0
 10
158.291
 20
101.664
 11
158.495
 21
101.583
  0
LINE
  8
0
 10
158.495
 20
101.583
 11
158.688
 21
101.478
  0
LINE
  8
0
 10
158.688
 20
101.478
 11
158.865
 21
101.348
  0
LINE
  8
0
 10
158.865
 20
101.348
 11
159.026
 21
101.198
  0
LINE
  8
0
 10
159.026
 20
101.198
 11
159.166
 21
101.029
  0
LINE
  8
0
 10
159.166
 20
101.029
 11
159.284
 21
100.843
  0
LINE
  8
0
 10
159.284
 20
100.843
 11
159.377
 21
100.644
  0
LINE
  8
0
 10
159.377
 20
100.644
 11
159.445
 21
100.435
  0
LINE
  8
0
 10
159.445
 20
100.435
 11
159.486
 21
100.219
  0
LINE
  8
0
 10
159.486
 20
100.219
 11
159.5
 21
100
  0
LINE
  8
0
 10
159.5
 20
100
 11
159.486
 21
99.7807
  0
LINE
  8
0
 10
159.486
 20
99.7807
 11
159.445
 21
99.5648
  0
LINE
  8
0
 10
159.445
 20
99.5648
 11
159.377
 21
99.3558
  0
LINE
  8
0
 10
159.377
 20
99.3558
 11
159.284
 21
99.1569
  0
LINE
  8
0
 10
159.284
 20
99.1569
 11
159.166
 21
98.9714
  0
LINE
  8
0
 10
159.166
 20
98.9714
 11
159.026
 21
98.802
  0
LINE
  8
0
 10
159.026
 20
98.802
 11
158.865
 21
98.6516
  0
LINE
  8
0
 10
158.865
 20
98.6516
 11
158.688
 21
98.5224
  0
LINE
  8
0
 10
158.688
 20
98.5224
 11
158.495
 21
98.4165
  0
LINE
  8
0
 10
158.495
 20
98.4165
 11
158.291
 21
98.3356
  0
LINE
  8
0
 10
158.291
 20
98.3356
 11
158.078
 21
98.281
  0
LINE
  8
0
 10
158.078
 20
98.281
 11
157.86
 21
98.2534
  0
LINE
  8
0
 10
157.86
 20
98.2534
 11
157.64
 21
98.2534
  0
LINE
  8
0
 10
387.64
 20
98.2534
 11
387.422
 21
98.281
  0
LINE
  8
0
 10
387.422
 20
98.281
 11
387.209
 21
98.3356
  0
LINE
  8
0
 10
387.209
 20
98.3356
 11
387.005
 21
98.4165
  0
LINE
  8
0
 10
387.005
 20
98.4165
 11
386.812
 21
98.5224
  0
LINE
  8
0
 10
386.812
 20
98.5224
 11
386.635
 21
98.6516
  0
LINE
  8
0
 10
386.635
 20
98.6516
 11
386.474
 21
98.802
  0
LINE
  8
0
 10
386.474
 20
98.802
 11
386.334
 21
98.9714
  0
LINE
  8
0
 10
386.334
 20
98.9714
 11
386.216
 21
99.1569
  0
LINE
  8
0
 10
386.216
 20
99.1569
 11
386.123
 21
99.3558
  0
LINE
  8
0
 10
386.123
 20
99.3558
 11
386.055
 21
99.5648
  0
LINE
  8
0
 10
386.055
 20
99.5648
 11
386.014
 21
99.7807
  0
LINE
  8
0
 10
386.014
 20
99.7807
 11
386
 21
100
  0
LINE
  8
0
 10
386
 20
100
 11
386.014
 21
100.219
  0
LINE
  8
0
 10
386.014
 20
100.219
 11
386.055
 21
100.435
  0
LINE
  8
0
 10
386.055
 20
100.435
 11
386.123
 21
100.644
  0
LINE
  8
0
 10
386.123
 20
100.644
 11
386.216
 21
100.843
  0
LINE
  8
0
 10
386.216
 20
100.843
 11
386.334
 21
101.029
  0
LINE
  8
0
 10
386.334
 20
101.029
 11
386.474
 21
101.198
  0
LINE
  8
0
 10
386.474
 20
101.198
 11
386.635
 21
101.348
  0
LINE
  8
0
 10
386.635
 20
101.348
 11
386.812
 21
101.478
  0
LINE
  8
0
 10
386.812
 20
101.478
 11
387.005
 21
101.583
  0
LINE
  8
0
 10
387.005
 20
101.583
 11
387.209
 21
101.664
  0
LINE
  8
0
 10
387.209
 20
101.664
 11
387.422
 21
101.719
  0
LINE
  8
0
 10
387.422
 20
101.719
 11
387.64
 21
101.747
  0
LINE
  8
0
 10
387.64
 20
101.747
 11
387.86
 21
101.747
  0
LINE
  8
0
 10
387.86
 20
101.747
 11
388.078
 21
101.719
  0
LINE
  8
0
 10
388.078
 20
101.719
 11
388.291
 21
101.664
  0
LINE
  8
0
 10
388.291
 20
101.664
 11
388.495
 21
101.583
  0
LINE
  8
0
 10
388.495
 20
101.583
 11
388.688
 21
101.478
  0
LINE
  8
0
 10
388.688
 20
101.478
 11
388.865
 21
101.348
  0
LINE
  8
0
 10
388.865
 20
101.348
 11
389.026
 21
101.198
  0
LINE
  8
0
 10
389.026
 20
101.198
 11
389.166
 21
101.029
  0
LINE
  8
0
 10
389.166
 20
101.029
 11
389.284
 21
100.843
  0
LINE
  8
0
 10
389.284
 20
100.843
 11
389.377
 21
100.644
  0
LINE
  8
0
 10
389.377
 20
100.644
 11
389.445
 21
100.435
  0
LINE
  8
0
 10
389.445
 20
100.435
 11
389.486
 21
100.219
  0
LINE
  8
0
 10
389.486
 20
100.219
 11
389.5
 21
100
  0
LINE
  8
0
 10
389.5
 20
100
 11
389.486
 21
99.7807
  0
LINE
  8
0
 10
389.486
 20
99.7807
 11
389.445
 21
99.5648
  0
LINE
  8
0
 10
389.445
 20
99.5648
 11
389.377
 21
99.3558
  0
LINE
  8
0
 10
389.377
 20
99.3558
 11
389.284
 21
99.1569
  0
LINE
  8
0
 10
389.284
 20
99.1569
 11
389.166
 21
98.9714
  0
LINE
  8
0
 10
389.166
 20
98.9714
 11
389.026
 21
98.802
  0
LINE
  8
0
 10
389.026
 20
98.802
 11
388.865
 21
98.6516
  0
LINE
  8
0
 10
388.865
 20
98.6516
 11
388.688
 21
98.5224
  0
LINE
  8
0
 10
388.688
 20
98.5224
 11
388.495
 21
98.4165
  0
LINE
  8
0
 10
388.495
 20
98.4165
 11
388.291
 21
98.3356
  0
LINE
  8
0
 10
388.291
 20
98.3356
 11
388.078
 21
98.281
  0
LINE
  8
0
 10
388.078
 20
98.281
 11
387.86
 21
98.2534
  0
LINE
  8
0
 10
387.86
 20
98.2534
 11
387.64
 21
98.2534
  0
LINE
  8
0
 10
286.681
 20
58.9022
 11
286.544
 21
58.9195
  0
LINE
  8
0
 10
286.544
 20
58.9195
 11
286.41
 21
58.9538
  0
LINE
  8
0
 10
286.41
 20
58.9538
 11
286.282
 21
59.0047
  0
LINE
  8
0
 10
286.282
 20
59.0047
 11
286.161
 21
59.0712
  0
LINE
  8
0
 10
286.161
 20
59.0712
 11
286.049
 21
59.1524
  0
LINE
  8
0
 10
286.049
 20
59.1524
 11
285.948
 21
59.247
  0
LINE
  8
0
 10
285.948
 20
59.247
 11
285.86
 21
59.3534
  0
LINE
  8
0
 10
285.86
 20
59.3534
 11
285.786
 21
59.4701
  0
LINE
  8
0
 10
285.786
 20
59.4701
 11
285.727
 21
59.5951
  0
LINE
  8
0
 10
285.727
 20
59.5951
 11
285.685
 21
59.7264
  0
LINE
  8
0
 10
285.685
 20
59.7264
 11
285.659
 21
59.8621
  0
LINE
  8
0
 10
285.659
 20
59.8621
 11
285.65
 21
60
  0
LINE
  8
0
 10
285.65
 20
60
 11
285.659
 21
60.1379
  0
LINE
  8
0
 10
285.659
 20
60.1379
 11
285.685
 21
60.2735
  0
LINE
  8
0
 10
285.685
 20
60.2735
 11
285.727
 21
60.4049
  0
LINE
  8
0
 10
285.727
 20
60.4049
 11
285.786
 21
60.5299
  0
LINE
  8
0
 10
285.786
 20
60.5299
 11
285.86
 21
60.6466
  0
LINE
  8
0
 10
285.86
 20
60.6466
 11
285.948
 21
60.753
  0
LINE
  8
0
 10
285.948
 20
60.753
 11
286.049
 21
60.8475
  0
LINE
  8
0
 10
286.049
 20
60.8475
 11
286.161
 21
60.9288
  0
LINE
  8
0
 10
286.161
 20
60.9288
 11
286.282
 21
60.9953
  0
LINE
  8
0
 10
286.282
 20
60.9953
 11
286.41
 21
61.0462
  0
LINE
  8
0
 10
286.41
 20
61.0462
 11
286.544
 21
61.0805
  0
LINE
  8
0
 10
286.544
 20
61.0805
 11
286.681
 21
61.0978
  0
LINE
  8
0
 10
286.681
 20
61.0978
 11
286.819
 21
61.0978
  0
LINE
  8
0
 10
286.819
 20
61.0978
 11
286.956
 21
61.0805
  0
LINE
  8
0
 10
286.956
 20
61.0805
 11
287.09
 21
61.0462
  0
LINE
  8
0
 10
287.09
 20
61.0462
 11
287.218
 21
60.9953
  0
LINE
  8
0
 10
287.218
 20
60.9953
 11
287.339
 21
60.9288
  0
LINE
  8
0
 10
287.339
 20
60.9288
 11
287.451
 21
60.8475
  0
LINE
  8
0
 10
287.451
 20
60.8475
 11
287.552
 21
60.753
  0
LINE
  8
0
 10
287.552
 20
60.753
 11
287.64
 21
60.6466
  0
LINE
  8
0
 10
287.64
 20
60.6466
 11
287.714
 21
60.5299
  0
LINE
  8
0
 10
287.714
 20
60.5299
 11
287.773
 21
60.4049
  0
LINE
  8
0
 10
287.773
 20
60.4049
 11
287.815
 21
60.2735
  0
LINE
  8
0
 10
287.815
 20
60.2735
 11
287.841
 21
60.1379
  0
LINE
  8
0
 10
287.841
 20
60.1379
 11
287.85
 21
60
  0
LINE
  8
0
 10
287.85
 20
60
 11
287.841
 21
59.8621
  0
LINE
  8
0
 10
287.841
 20
59.8621
 11
287.815
 21
59.7264
  0
LINE
  8
0
 10
287.815
 20
59.7264
 11
287.773
 21
59.5951
  0
LINE
  8
0
 10
287.773
 20
59.5951
 11
287.714
 21
59.4701
  0
LINE
  8
0
 10
287.714
 20
59.4701
 11
287.64
 21
59.3534
  0
LINE
  8
0
 10
287.64
 20
59.3534
 11
287.552
 21
59.247
  0
LINE
  8
0
 10
287.552
 20
59.247
 11
287.451
 21
59.1524
  0
LINE
  8
0
 10
287.451
 20
59.1524
 11
287.339
 21
59.0712
  0
LINE
  8
0
 10
287.339
 20
59.0712
 11
287.218
 21
59.0047
  0
LINE
  8
0
 10
287.218
 20
59.0047
 11
287.09
 21
58.9538
  0
LINE
  8
0
 10
287.09
 20
58.9538
 11
286.956
 21
58.9195
  0
LINE
  8
0
 10
286.956
 20
58.9195
 11
286.819
 21
58.9022
  0
LINE
  8
0
 10
286.819
 20
58.9022
 11
286.681
 21
58.9022
  0
LINE
  8
0
 10
338.681
 20
58.9022
 11
338.544
 21
58.9195
  0
LINE
  8
0
 10
338.544
 20
58.9195
 11
338.41
 21
58.9538
  0
LINE
  8
0
 10
338.41
 20
58.9538
 11
338.282
 21
59.0047
  0
LINE
  8
0
 10
338.282
 20
59.0047
 11
338.161
 21
59.0712
  0
LINE
  8
0
 10
338.161
 20
59.0712
 11
338.049
 21
59.1524
  0
LINE
  8
0
 10
338.049
 20
59.1524
 11
337.948
 21
59.247
  0
LINE
  8
0
 10
337.948
 20
59.247
 11
337.86
 21
59.3534
  0
LINE
  8
0
 10
337.86
 20
59.3534
 11
337.786
 21
59.4701
  0
LINE
  8
0
 10
337.786
 20
59.4701
 11
337.727
 21
59.5951
  0
LINE
  8
0
 10
337.727
 20
59.5951
 11
337.685
 21
59.7264
  0
LINE
  8
0
 10
337.685
 20
59.7264
 11
337.659
 21
59.8621
  0
LINE
  8
0
 10
337.659
 20
59.8621
 11
337.65
 21
60
  0
LINE
  8
0
 10
337.65
 20
60
 11
337.659
 21
60.1379
  0
LINE
  8
0
 10
337.659
 20
60.1379
 11
337.685
 21
60.2735
  0
LINE
  8
0
 10
337.685
 20
60.2735
 11
337.727
 21
60.4049
  0
LINE
  8
0
 10
337.727
 20
60.4049
 11
337.786
 21
60.5299
  0
LINE
  8
0
 10
337.786
 20
60.5299
 11
337.86
 21
60.6466
  0
LINE
  8
0
 10
337.86
 20
60.6466
 11
337.948
 21
60.753
  0
LINE
  8
0
 10
337.948
 20
60.753
 11
338.049
 21
60.8475
  0
LINE
  8
0
 10
338.049
 20
60.8475
 11
338.161
 21
60.9288
  0
LINE
  8
0
 10
338.161
 20
60.9288
 11
338.282
 21
60.9953
  0
LINE
  8
0
 10
338.282
 20
60.9953
 11
338.41
 21
61.0462
  0
LINE
  8
0
 10
338.41
 20
61.0462
 11
338.544
 21
61.0805
  0
LINE
  8
0
 10
338.544
 20
61.0805
 11
338.681
 21
61.0978
  0
LINE
  8
0
 10
338.681
 20
61.0978
 11
338.819
 21
61.0978
  0
LINE
  8
0
 10
338.819
 20
61.0978
 11
338.956
 21
61.0805
  0
LINE
  8
0
 10
338.956
 20
61.0805
 11
339.09
 21
61.0462
  0
LINE
  8
0
 10
339.09
 20
61.0462
 11
339.218
 21
60.9953
  0
LINE
  8
0
 10
339.218
 20
60.9953
 11
339.339
 21
60.9288
  0
LINE
  8
0
 10
339.339
 20
60.9288
 11
339.451
 21
60.8475
  0
LINE
  8
0
 10
339.451
 20
60.8475
 11
339.552
 21
60.753
  0
LINE
  8
0
 10
339.552
 20
60.753
 11
339.64
 21
60.6466
  0
LINE
  8
0
 10
339.64
 20
60.6466
 11
339.714
 21
60.5299
  0
LINE
  8
0
 10
339.714
 20
60.5299
 11
339.773
 21
60.4049
  0
LINE
  8
0
 10
339.773
 20
60.4049
 11
339.815
 21
60.2735
  0
LINE
  8
0
 10
339.815
 20
60.2735
 11
339.841
 21
60.1379
  0
LINE
  8
0
 10
339.841
 20
60.1379
 11
339.85
 21
60
  0
LINE
  8
0
 10
339.85
 20
60
 11
339.841
 21
59.8621
  0
LINE
  8
0
 10
339.841
 20
59.8621
 11
339.815
 21
59.7264
  0
LINE
  8
0
 10
339.815
 20
59.7264
 11
339.773
 21
59.5951
  0
LINE
  8
0
 10
339.773
 20
59.5951
 11
339.714
 21
59.4701
  0
LINE
  8
0
 10
339.714
 20
59.4701
 11
339.64
 21
59.3534
  0
LINE
  8
0
 10
339.64
 20
59.3534
 11
339.552
 21
59.247
  0
LINE
  8
0
 10
339.552
 20
59.247
 11
339.451
 21
59.1524
  0
LINE
  8
0
 10
339.451
 20
59.1524
 11
339.339
 21
59.0712
  0
LINE
  8
0
 10
339.339
 20
59.0712
 11
339.218
 21
59.0047
  0
LINE
  8
0
 10
339.218
 20
59.0047
 11
339.09
 21
58.9538
  0
LINE
  8
0
 10
339.09
 20
58.9538
 11
338.956
 21
58.9195
  0
LINE
  8
0
 10
338.956
 20
58.9195
 11
338.819
 21
58.9022
  0
LINE
  8
0
 10
338.819
 20
58.9022
 11
338.681
 21
58.9022
  0
LINE
  8
0
 10
295.25
 20
31
 11
295.25
 21
59
  0
LINE
  8
0
 10
295.25
 20
59
 11
330.25
 21
59
  0
LINE
  8
0
 10
330.25
 20
59
 11
330.25
 21
31
  0
LINE
  8
0
 10
330.25
 20
31
 11
295.25
 21
31
  0
LINE
  8
0
 10
344.311
 20
39.0739
 11
343.396
 21
39.2937
  0
LINE
  8
0
 10
343.396
 20
39.2937
 11
342.526
 21
39.6539
  0
LINE
  8
0
 10
342.526
 20
39.6539
 11
341.723
 21
40.1459
  0
LINE
  8
0
 10
341.723
 20
40.1459
 11
341.007
 21
40.7574
  0
LINE
  8
0
 10
341.007
 20
40.7574
 11
340.396
 21
41.4733
  0
LINE
  8
0
 10
340.396
 20
41.4733
 11
339.904
 21
42.276
  0
LINE
  8
0
 10
339.904
 20
42.276
 11
339.544
 21
43.1459
  0
LINE
  8
0
 10
339.544
 20
43.1459
 11
339.324
 21
44.0614
  0
LINE
  8
0
 10
339.324
 20
44.0614
 11
339.25
 21
45
  0
LINE
  8
0
 10
339.25
 20
45
 11
339.324
 21
45.9386
  0
LINE
  8
0
 10
339.324
 20
45.9386
 11
339.544
 21
46.8541
  0
LINE
  8
0
 10
339.544
 20
46.8541
 11
339.904
 21
47.7239
  0
LINE
  8
0
 10
339.904
 20
47.7239
 11
340.396
 21
48.5267
  0
LINE
  8
0
 10
340.396
 20
48.5267
 11
341.007
 21
49.2426
  0
LINE
  8
0
 10
341.007
 20
49.2426
 11
341.723
 21
49.8541
  0
LINE
  8
0
 10
341.723
 20
49.8541
 11
342.526
 21
50.346
  0
LINE
  8
0
 10
342.526
 20
50.346
 11
343.396
 21
50.7063
  0
LINE
  8
0
 10
343.396
 20
50.7063
 11
344.311
 21
50.9261
  0
LINE
  8
0
 10
344.311
 20
50.9261
 11
345.25
 21
51
  0
LINE
  8
0
 10
345.25
 20
51
 11
346.189
 21
50.9261
  0
LINE
  8
0
 10
346.189
 20
50.9261
 11
347.104
 21
50.7063
  0
LINE
  8
0
 10
347.104
 20
50.7063
 11
347.974
 21
50.346
  0
LINE
  8
0
 10
347.974
 20
50.346
 11
348.777
 21
49.8541
  0
LINE
  8
0
 10
348.777
 20
49.8541
 11
349.493
 21
49.2426
  0
LINE
  8
0
 10
349.493
 20
49.2426
 11
350.104
 21
48.5267
  0
LINE
  8
0
 10
350.104
 20
48.5267
 11
350.596
 21
47.7239
  0
LINE
  8
0
 10
350.596
 20
47.7239
 11
350.956
 21
46.8541
  0
LINE
  8
0
 10
350.956
 20
46.8541
 11
351.176
 21
45.9386
  0
LINE
  8
0
 10
351.176
 20
45.9386
 11
351.25
 21
45
  0
LINE
  8
0
 10
351.25
 20
45
 11
351.176
 21
44.0614
  0
LINE
  8
0
 10
351.176
 20
44.0614
 11
350.956
 21
43.1459
  0
LINE
  8
0
 10
350.956
 20
43.1459
 11
350.596
 21
42.276
  0
LINE
  8
0
 10
350.596
 20
42.276
 11
350.104
 21
41.4733
  0
LINE
  8
0
 10
350.104
 20
41.4733
 11
349.493
 21
40.7574
  0
LINE
  8
0
 10
349.493
 20
40.7574
 11
348.777
 21
40.1459
  0
LINE
  8
0
 10
348.777
 20
40.1459
 11
347.974
 21
39.6539
  0
LINE
  8
0
 10
347.974
 20
39.6539
 11
347.104
 21
39.2937
  0
LINE
  8
0
 10
347.104
 20
39.2937
 11
346.189
 21
39.0739
  0
LINE
  8
0
 10
346.189
 20
39.0739
 11
345.25
 21
39
  0
LINE
  8
0
 10
345.25
 20
39
 11
344.311
 21
39.0739
  0
LINE
  8
0
 10
286.681
 20
28.9022
 11
286.544
 21
28.9195
  0
LINE
  8
0
 10
286.544
 20
28.9195
 11
286.41
 21
28.9538
  0
LINE
  8
0
 10
286.41
 20
28.9538
 11
286.282
 21
29.0047
  0
LINE
  8
0
 10
286.282
 20
29.0047
 11
286.161
 21
29.0712
  0
LINE
  8
0
 10
286.161
 20
29.0712
 11
286.049
 21
29.1524
  0
LINE
  8
0
 10
286.049
 20
29.1524
 11
285.948
 21
29.247
  0
LINE
  8
0
 10
285.948
 20
29.247
 11
285.86
 21
29.3534
  0
LINE
  8
0
 10
285.86
 20
29.3534
 11
285.786
 21
29.4701
  0
LINE
  8
0
 10
285.786
 20
29.4701
 11
285.727
 21
29.5951
  0
LINE
  8
0
 10
285.727
 20
29.5951
 11
285.685
 21
29.7264
  0
LINE
  8
0
 10
285.685
 20
29.7264
 11
285.659
 21
29.8621
  0
LINE
  8
0
 10
285.659
 20
29.8621
 11
285.65
 21
30
  0
LINE
  8
0
 10
285.65
 20
30
 11
285.659
 21
30.1379
  0
LINE
  8
0
 10
285.659
 20
30.1379
 11
285.685
 21
30.2735
  0
LINE
  8
0
 10
285.685
 20
30.2735
 11
285.727
 21
30.4049
  0
LINE
  8
0
 10
285.727
 20
30.4049
 11
285.786
 21
30.5299
  0
LINE
  8
0
 10
285.786
 20
30.5299
 11
285.86
 21
30.6466
  0
LINE
  8
0
 10
285.86
 20
30.6466
 11
285.948
 21
30.753
  0
LINE
  8
0
 10
285.948
 20
30.753
 11
286.049
 21
30.8475
  0
LINE
  8
0
 10
286.049
 20
30.8475
 11
286.161
 21
30.9288
  0
LINE
  8
0
 10
286.161
 20
30.9288
 11
286.282
 21
30.9953
  0
LINE
  8
0
 10
286.282
 20
30.9953
 11
286.41
 21
31.0462
  0
LINE
  8
0
 10
286.41
 20
31.0462
 11
286.544
 21
31.0805
  0
LINE
  8
0
 10
286.544
 20
31.0805
 11
286.681
 21
31.0978
  0
LINE
  8
0
 10
286.681
 20
31.0978
 11
286.819
 21
31.0978
  0
LINE
  8
0
 10
286.819
 20
31.0978
 11
286.956
 21
31.0805
  0
LINE
  8
0
 10
286.956
 20
31.0805
 11
287.09
 21
31.0462
  0
LINE
  8
0
 10
287.09
 20
31.0462
 11
287.218
 21
30.9953
  0
LINE
  8
0
 10
287.218
 20
30.9953
 11
287.339
 21
30.9288
  0
LINE
  8
0
 10
287.339
 20
30.9288
 11
287.451
 21
30.8475
  0
LINE
  8
0
 10
287.451
 20
30.8475
 11
287.552
 21
30.753
  0
LINE
  8
0
 10
287.552
 20
30.753
 11
287.64
 21
30.6466
  0
LINE
  8
0
 10
287.64
 20
30.6466
 11
287.714
 21
30.5299
  0
LINE
  8
0
 10
287.714
 20
30.5299
 11
287.773
 21
30.4049
  0
LINE
  8
0
 10
287.773
 20
30.4049
 11
287.815
 21
30.2735
  0
LINE
  8
0
 10
287.815
 20
30.2735
 11
287.841
 21
30.1379
  0
LINE
  8
0
 10
287.841
 20
30.1379
 11
287.85
 21
30
  0
LINE
  8
0
 10
287.85
 20
30
 11
287.841
 21
29.8621
  0
LINE
  8
0
 10
287.841
 20
29.8621
 11
287.815
 21
29.7264
  0
LINE
  8
0
 10
287.815
 20
29.7264
 11
287.773
 21
29.5951
  0
LINE
  8
0
 10
287.773
 20
29.5951
 11
287.714
 21
29.4701
  0
LINE
  8
0
 10
287.714
 20
29.4701
 11
287.64
 21
29.3534
  0
LINE
  8
0
 10
287.64
 20
29.3534
 11
287.552
 21
29.247
  0
LINE
  8
0
 10
287.552
 20
29.247
 11
287.451
 21
29.1524
  0
LINE
  8
0
 10
287.451
 20
29.1524
 11
287.339
 21
29.0712
  0
LINE
  8
0
 10
287.339
 20
29.0712
 11
287.218
 21
29.0047
  0
LINE
  8
0
 10
287.218
 20
29.0047
 11
287.09
 21
28.9538
  0
LINE
  8
0
 10
287.09
 20
28.9538
 11
286.956
 21
28.9195
  0
LINE
  8
0
 10
286.956
 20
28.9195
 11
286.819
 21
28.9022
  0
LINE
  8
0
 10
286.819
 20
28.9022
 11
286.681
 21
28.9022
  0
LINE
  8
0
 10
338.681
 20
28.9022
 11
338.544
 21
28.9195
  0
LINE
  8
0
 10
338.544
 20
28.9195
 11
338.41
 21
28.9538
  0
LINE
  8
0
 10
338.41
 20
28.9538
 11
338.282
 21
29.0047
  0
LINE
  8
0
 10
338.282
 20
29.0047
 11
338.161
 21
29.0712
  0
LINE
  8
0
 10
338.161
 20
29.0712
 11
338.049
 21
29.1524
  0
LINE
  8
0
 10
338.049
 20
29.1524
 11
337.948
 21
29.247
  0
LINE
  8
0
 10
337.948
 20
29.247
 11
337.86
 21
29.3534
  0
LINE
  8
0
 10
337.86
 20
29.3534
 11
337.786
 21
29.4701
  0
LINE
  8
0
 10
337.786
 20
29.4701
 11
337.727
 21
29.5951
  0
LINE
  8
0
 10
337.727
 20
29.5951
 11
337.685
 21
29.7264
  0
LINE
  8
0
 10
337.685
 20
29.7264
 11
337.659
 21
29.8621
  0
LINE
  8
0
 10
337.659
 20
29.8621
 11
337.65
 21
30
  0
LINE
  8
0
 10
337.65
 20
30
 11
337.659
 21
30.1379
  0
LINE
  8
0
 10
337.659
 20
30.1379
 11
337.685
 21
30.2735
  0
LINE
  8
0
 10
337.685
 20
30.2735
 11
337.727
 21
30.4049
  0
LINE
  8
0
 10
337.727
 20
30.4049
 11
337.786
 21
30.5299
  0
LINE
  8
0
 10
337.786
 20
30.5299
 11
337.86
 21
30.6466
  0
LINE
  8
0
 10
337.86
 20
30.6466
 11
337.948
 21
30.753
  0
LINE
  8
0
 10
337.948
 20
30.753
 11
338.049
 21
30.8475
  0
LINE
  8
0
 10
338.049
 20
30.8475
 11
338.161
 21
30.9288
  0
LINE
  8
0
 10
338.161
 20
30.9288
 11
338.282
 21
30.9953
  0
LINE
  8
0
 10
338.282
 20
30.9953
 11
338.41
 21
31.0462
  0
LINE
  8
0
 10
338.41
 20
31.0462
 11
338.544
 21
31.0805
  0
LINE
  8
0
 10
338.544
 20
31.0805
 11
338.681
 21
31.0978
  0
LINE
  8
0
 10
338.681
 20
31.0978
 11
338.819
 21
31.0978
  0
LINE
  8
0
 10
338.819
 20
31.0978
 11
338.956
 21
31.0805
  0
LINE
  8
0
 10
338.956
 20
31.0805
 11
339.09
 21
31.0462
  0
LINE
  8
0
 10
339.09
 20
31.0462
 11
339.218
 21
30.9953
  0
LINE
  8
0
 10
339.218
 20
30.9953
 11
339.339
 21
30.9288
  0
LINE
  8
0
 10
339.339
 20
30.9288
 11
339.451
 21
30.8475
  0
LINE
  8
0
 10
339.451
 20
30.8475
 11
339.552
 21
30.753
  0
LINE
  8
0
 10
339.552
 20
30.753
 11
339.64
 21
30.6466
  0
LINE
  8
0
 10
339.64
 20
30.6466
 11
339.714
 21
30.5299
  0
LINE
  8
0
 10
339.714
 20
30.5299
 11
339.773
 21
30.4049
  0
LINE
  8
0
 10
339.773
 20
30.4049
 11
339.815
 21
30.2735
  0
LINE
  8
0
 10
339.815
 20
30.2735
 11
339.841
 21
30.1379
  0
LINE
  8
0
 10
339.841
 20
30.1379
 11
339.85
 21
30
  0
LINE
  8
0
 10
339.85
 20
30
 11
339.841
 21
29.8621
  0
LINE
  8
0
 10
339.841
 20
29.8621
 11
339.815
 21
29.7264
  0
LINE
  8
0
 10
339.815
 20
29.7264
 11
339.773
 21
29.5951
  0
LINE
  8
0
 10
339.773
 20
29.5951
 11
339.714
 21
29.4701
  0
LINE
  8
0
 10
339.714
 20
29.4701
 11
339.64
 21
29.3534
  0
LINE
  8
0
 10
339.64
 20
29.3534
 11
339.552
 21
29.247
  0
LINE
  8
0
 10
339.552
 20
29.247
 11
339.451
 21
29.1524
  0
LINE
  8
0
 10
339.451
 20
29.1524
 11
339.339
 21
29.0712
  0
LINE
  8
0
 10
339.339
 20
29.0712
 11
339.218
 21
29.0047
  0
LINE
  8
0
 10
339.218
 20
29.0047
 11
339.09
 21
28.9538
  0
LINE
  8
0
 10
339.09
 20
28.9538
 11
338.956
 21
28.9195
  0
LINE
  8
0
 10
338.956
 20
28.9195
 11
338.819
 21
28.9022
  0
LINE
  8
0
 10
338.819
 20
28.9022
 11
338.681
 21
28.9022
  0
LINE
  8
0
 10
319.25
 20
-38
 11
319.25
 21
-18
  0
LINE
  8
0
 10
319.25
 20
-18
 11
321.25
 21
-18
  0
LINE
  8
0
 10
321.25
 20
-18
 11
321.25
 21
-38
  0
LINE
  8
0
 10
321.25
 20
-38
 11
319.25
 21
-38
  0
LINE
  8
0
 10
325.25
 20
-38
 11
325.25
 21
-18
  0
LINE
  8
0
 10
325.25
 20
-18
 11
327.25
 21
-18
  0
LINE
  8
0
 10
327.25
 20
-18
 11
327.25
 21
-38
  0
LINE
  8
0
 10
327.25
 20
-38
 11
325.25
 21
-38
  0
LINE
  8
0
 10
331.25
 20
-38
 11
331.25
 21
-18
  0
LINE
  8
0
 10
331.25
 20
-18
 11
333.25
 21
-18
  0
LINE
  8
0
 10
333.25
 20
-18
 11
333.25
 21
-38
  0
LINE
  8
0
 10
333.25
 20
-38
 11
331.25
 21
-38
  0
LINE
  8
0
 10
337.25
 20
-38
 11
337.25
 21
-18
  0
LINE
  8
0
 10
337.25
 20
-18
 11
339.25
 21
-18
  0
LINE
  8
0
 10
339.25
 20
-18
 11
339.25
 21
-38
  0
LINE
  8
0
 10
339.25
 20
-38
 11
337.25
 21
-38
  0
LINE
  8
0
 10
343.25
 20
-38
 11
343.25
 21
-18
  0
LINE
  8
0
 10
343.25
 20
-18
 11
345.25
 21
-18
  0
LINE
  8
0
 10
345.25
 20
-18
 11
345.25
 21
-38
  0
LINE
  8
0
 10
345.25
 20
-38
 11
343.25
 21
-38
  0
LINE
  8
0
 10
349.25
 20
-38
 11
349.25
 21
-18
  0
LINE
  8
0
 10
349.25
 20
-18
 11
351.25
 21
-18
  0
LINE
  8
0
 10
351.25
 20
-18
 11
351.25
 21
-38
  0
LINE
  8
0
 10
351.25
 20
-38
 11
349.25
 21
-38
  0
LINE
  8
0
 10
355.25
 20
-38
 11
355.25
 21
-18
  0
LINE
  8
0
 10
355.25
 20
-18
 11
357.25
 21
-18
  0
LINE
  8
0
 10
357.25
 20
-18
 11
357.25
 21
-38
  0
LINE
  8
0
 10
357.25
 20
-38
 11
355.25
 21
-38
  0
LINE
  8
0
 10
188.25
 20
-38
 11
188.25
 21
-18
  0
LINE
  8
0
 10
188.25
 20
-18
 11
190.25
 21
-18
  0
LINE
  8
0
 10
190.25
 20
-18
 11
190.25
 21
-38
  0
LINE
  8
0
 10
190.25
 20
-38
 11
188.25
 21
-38
  0
LINE
  8
0
 10
194.25
 20
-38
 11
194.25
 21
-18
  0
LINE
  8
0
 10
194.25
 20
-18
 11
196.25
 21
-18
  0
LINE
  8
0
 10
196.25
 20
-18
 11
196.25
 21
-38
  0
LINE
  8
0
 10
196.25
 20
-38
 11
194.25
 21
-38
  0
LINE
  8
0
 10
200.25
 20
-38
 11
200.25
 21
-18
  0
LINE
  8
0
 10
200.25
 20
-18
 11
202.25
 21
-18
  0
LINE
  8
0
 10
202.25
 20
-18
 11
202.25
 21
-38
  0
LINE
  8
0
 10
202.25
 20
-38
 11
200.25
 21
-38
  0
LINE
  8
0
 10
206.25
 20
-38
 11
206.25
 21
-18
  0
LINE
  8
0
 10
206.25
 20
-18
 11
208.25
 21
-18
  0
LINE
  8
0
 10
208.25
 20
-18
 11
208.25
 21
-38
  0
LINE
  8
0
 10
208.25
 20
-38
 11
206.25
 21
-38
  0
LINE
  8
0
 10
212.25
 20
-38
 11
212.25
 21
-18
  0
LINE
  8
0
 10
212.25
 20
-18
 11
214.25
 21
-18
  0
LINE
  8
0
 10
214.25
 20
-18
 11
214.25
 21
-38
  0
LINE
  8
0
 10
214.25
 20
-38
 11
212.25
 21
-38
  0
LINE
  8
0
 10
313.25
 20
-38
 11
313.25
 21
-18
  0
LINE
  8
0
 10
313.25
 20
-18
 11
315.25
 21
-18
  0
LINE
  8
0
 10
315.25
 20
-18
 11
315.25
 21
-38
  0
LINE
  8
0
 10
315.25
 20
-38
 11
313.25
 21
-38
  0
LINE
  8
0
 10
218.25
 20
-38
 11
218.25
 21
-18
  0
LINE
  8
0
 10
218.25
 20
-18
 11
220.25
 21
-18
  0
LINE
  8
0
 10
220.25
 20
-18
 11
220.25
 21
-38
  0
LINE
  8
0
 10
220.25
 20
-38
 11
218.25
 21
-38
  0
LINE
  8
0
 10
224.25
 20
-38
 11
224.25
 21
-18
  0
LINE
  8
0
 10
224.25
 20
-18
 11
226.25
 21
-18
  0
LINE
  8
0
 10
226.25
 20
-18
 11
226.25
 21
-38
  0
LINE
  8
0
 10
226.25
 20
-38
 11
224.25
 21
-38
  0
LINE
  8
0
 10
230.25
 20
-38
 11
230.25
 21
-18
  0
LINE
  8
0
 10
230.25
 20
-18
 11
232.25
 21
-18
  0
LINE
  8
0
 10
232.25
 20
-18
 11
232.25
 21
-38
  0
LINE
  8
0
 10
232.25
 20
-38
 11
230.25
 21
-38
  0
LINE
  8
0
 10
387.64
 20
-101.747
 11
387.422
 21
-101.719
  0
LINE
  8
0
 10
387.422
 20
-101.719
 11
387.209
 21
-101.664
  0
LINE
  8
0
 10
387.209
 20
-101.664
 11
387.005
 21
-101.583
  0
LINE
  8
0
 10
387.005
 20
-101.583
 11
386.812
 21
-101.478
  0
LINE
  8
0
 10
386.812
 20
-101.478
 11
386.635
 21
-101.348
  0
LINE
  8
0
 10
386.635
 20
-101.348
 11
386.474
 21
-101.198
  0
LINE
  8
0
 10
386.474
 20
-101.198
 11
386.334
 21
-101.029
  0
LINE
  8
0
 10
386.334
 20
-101.029
 11
386.216
 21
-100.843
  0
LINE
  8
0
 10
386.216
 20
-100.843
 11
386.123
 21
-100.644
  0
LINE
  8
0
 10
386.123
 20
-100.644
 11
386.055
 21
-100.435
  0
LINE
  8
0
 10
386.055
 20
-100.435
 11
386.014
 21
-100.219
  0
LINE
  8
0
 10
386.014
 20
-100.219
 11
386
 21
-100
  0
LINE
  8
0
 10
386
 20
-100
 11
386.014
 21
-99.7807
  0
LINE
  8
0
 10
386.014
 20
-99.7807
 11
386.055
 21
-99.5648
  0
LINE
  8
0
 10
386.055
 20
-99.5648
 11
386.123
 21
-99.3558
  0
LINE
  8
0
 10
386.123
 20
-99.3558
 11
386.216
 21
-99.1569
  0
LINE
  8
0
 10
386.216
 20
-99.1569
 11
386.334
 21
-98.9714
  0
LINE
  8
0
 10
386.334
 20
-98.9714
 11
386.474
 21
-98.802
  0
LINE
  8
0
 10
386.474
 20
-98.802
 11
386.635
 21
-98.6516
  0
LINE
  8
0
 10
386.635
 20
-98.6516
 11
386.812
 21
-98.5224
  0
LINE
  8
0
 10
386.812
 20
-98.5224
 11
387.005
 21
-98.4165
  0
LINE
  8
0
 10
387.005
 20
-98.4165
 11
387.209
 21
-98.3356
  0
LINE
  8
0
 10
387.209
 20
-98.3356
 11
387.422
 21
-98.281
  0
LINE
  8
0
 10
387.422
 20
-98.281
 11
387.64
 21
-98.2534
  0
LINE
  8
0
 10
387.64
 20
-98.2534
 11
387.86
 21
-98.2534
  0
LINE
  8
0
 10
387.86
 20
-98.2534
 11
388.078
 21
-98.281
  0
LINE
  8
0
 10
388.078
 20
-98.281
 11
388.291
 21
-98.3356
  0
LINE
  8
0
 10
388.291
 20
-98.3356
 11
388.495
 21
-98.4165
  0
LINE
  8
0
 10
388.495
 20
-98.4165
 11
388.688
 21
-98.5224
  0
LINE
  8
0
 10
388.688
 20
-98.5224
 11
388.865
 21
-98.6516
  0
LINE
  8
0
 10
388.865
 20
-98.6516
 11
389.026
 21
-98.802
  0
LINE
  8
0
 10
389.026
 20
-98.802
 11
389.166
 21
-98.9714
  0
LINE
  8
0
 10
389.166
 20
-98.9714
 11
389.284
 21
-99.1569
  0
LINE
  8
0
 10
389.284
 20
-99.1569
 11
389.377
 21
-99.3558
  0
LINE
  8
0
 10
389.377
 20
-99.3558
 11
389.445
 21
-99.5648
  0
LINE
  8
0
 10
389.445
 20
-99.5648
 11
389.486
 21
-99.7807
  0
LINE
  8
0
 10
389.486
 20
-99.7807
 11
389.5
 21
-100
  0
LINE
  8
0
 10
389.5
 20
-100
 11
389.486
 21
-100.219
  0
LINE
  8
0
 10
389.486
 20
-100.219
 11
389.445
 21
-100.435
  0
LINE
  8
0
 10
389.445
 20
-100.435
 11
389.377
 21
-100.644
  0
LINE
  8
0
 10
389.377
 20
-100.644
 11
389.284
 21
-100.843
  0
LINE
  8
0
 10
389.284
 20
-100.843
 11
389.166
 21
-101.029
  0
LINE
  8
0
 10
389.166
 20
-101.029
 11
389.026
 21
-101.198
  0
LINE
  8
0
 10
389.026
 20
-101.198
 11
388.865
 21
-101.348
  0
LINE
  8
0
 10
388.865
 20
-101.348
 11
388.688
 21
-101.478
  0
LINE
  8
0
 10
388.688
 20
-101.478
 11
388.495
 21
-101.583
  0
LINE
  8
0
 10
388.495
 20
-101.583
 11
388.291
 21
-101.664
  0
LINE
  8
0
 10
388.291
 20
-101.664
 11
388.078
 21
-101.719
  0
LINE
  8
0
 10
388.078
 20
-101.719
 11
387.86
 21
-101.747
  0
LINE
  8
0
 10
387.86
 20
-101.747
 11
387.64
 21
-101.747
  0
LINE
  8
0
 10
157.64
 20
-101.747
 11
157.422
 21
-101.719
  0
LINE
  8
0
 10
157.422
 20
-101.719
 11
157.209
 21
-101.664
  0
LINE
  8
0
 10
157.209
 20
-101.664
 11
157.005
 21
-101.583
  0
LINE
  8
0
 10
157.005
 20
-101.583
 11
156.812
 21
-101.478
  0
LINE
  8
0
 10
156.812
 20
-101.478
 11
156.635
 21
-101.348
  0
LINE
  8
0
 10
156.635
 20
-101.348
 11
156.474
 21
-101.198
  0
LINE
  8
0
 10
156.474
 20
-101.198
 11
156.334
 21
-101.029
  0
LINE
  8
0
 10
156.334
 20
-101.029
 11
156.216
 21
-100.843
  0
LINE
  8
0
 10
156.216
 20
-100.843
 11
156.123
 21
-100.644
  0
LINE
  8
0
 10
156.123
 20
-100.644
 11
156.055
 21
-100.435
  0
LINE
  8
0
 10
156.055
 20
-100.435
 11
156.014
 21
-100.219
  0
LINE
  8
0
 10
156.014
 20
-100.219
 11
156
 21
-100
  0
LINE
  8
0
 10
156
 20
-100
 11
156.014
 21
-99.7807
  0
LINE
  8
0
 10
156.014
 20
-99.7807
 11
156.055
 21
-99.5648
  0
LINE
  8
0
 10
156.055
 20
-99.5648
 11
156.123
 21
-99.3558
  0
LINE
  8
0
 10
156.123
 20
-99.3558
 11
156.216
 21
-99.1569
  0
LINE
  8
0
 10
156.216
 20
-99.1569
 11
156.334
 21
-98.9714
  0
LINE
  8
0
 10
156.334
 20
-98.9714
 11
156.474
 21
-98.802
  0
LINE
  8
0
 10
156.474
 20
-98.802
 11
156.635
 21
-98.6516
  0
LINE
  8
0
 10
156.635
 20
-98.6516
 11
156.812
 21
-98.5224
  0
LINE
  8
0
 10
156.812
 20
-98.5224
 11
157.005
 21
-98.4165
  0
LINE
  8
0
 10
157.005
 20
-98.4165
 11
157.209
 21
-98.3356
  0
LINE
  8
0
 10
157.209
 20
-98.3356
 11
157.422
 21
-98.281
  0
LINE
  8
0
 10
157.422
 20
-98.281
 11
157.64
 21
-98.2534
  0
LINE
  8
0
 10
157.64
 20
-98.2534
 11
157.86
 21
-98.2534
  0
LINE
  8
0
 10
157.86
 20
-98.2534
 11
158.078
 21
-98.281
  0
LINE
  8
0
 10
158.078
 20
-98.281
 11
158.291
 21
-98.3356
  0
LINE
  8
0
 10
158.291
 20
-98.3356
 11
158.495
 21
-98.4165
  0
LINE
  8
0
 10
158.495
 20
-98.4165
 11
158.688
 21
-98.5224
  0
LINE
  8
0
 10
158.688
 20
-98.5224
 11
158.865
 21
-98.6516
  0
LINE
  8
0
 10
158.865
 20
-98.6516
 11
159.026
 21
-98.802
  0
LINE
  8
0
 10
159.026
 20
-98.802
 11
159.166
 21
-98.9714
  0
LINE
  8
0
 10
159.166
 20
-98.9714
 11
159.284
 21
-99.1569
  0
LINE
  8
0
 10
159.284
 20
-99.1569
 11
159.377
 21
-99.3558
  0
LINE
  8
0
 10
159.377
 20
-99.3558
 11
159.445
 21
-99.5648
  0
LINE
  8
0
 10
159.445
 20
-99.5648
 11
159.486
 21
-99.7807
  0
LINE
  8
0
 10
159.486
 20
-99.7807
 11
159.5
 21
-100
  0
LINE
  8
0
 10
159.5
 20
-100
 11
159.486
 21
-100.219
  0
LINE
  8
0
 10
159.486
 20
-100.219
 11
159.445
 21
-100.435
  0
LINE
  8
0
 10
159.445
 20
-100.435
 11
159.377
 21
-100.644
  0
LINE
  8
0
 10
159.377
 20
-100.644
 11
159.284
 21
-100.843
  0
LINE
  8
0
 10
159.284
 20
-100.843
 11
159.166
 21
-101.029
  0
LINE
  8
0
 10
159.166
 20
-101.029
 11
159.026
 21
-101.198
  0
LINE
  8
0
 10
159.026
 20
-101.198
 11
158.865
 21
-101.348
  0
LINE
  8
0
 10
158.865
 20
-101.348
 11
158.688
 21
-101.478
  0
LINE
  8
0
 10
158.688
 20
-101.478
 11
158.495
 21
-101.583
  0
LINE
  8
0
 10
158.495
 20
-101.583
 11
158.291
 21
-101.664
  0
LINE
  8
0
 10
158.291
 20
-101.664
 11
158.078
 21
-101.719
  0
LINE
  8
0
 10
158.078
 20
-101.719
 11
157.86
 21
-101.747
  0
LINE
  8
0
 10
157.86
 20
-101.747
 11
157.64
 21
-101.747
  0
LINE
  8
0
 10
181.78
 20
-173.9
 11
191.546
 21
-173.9
  0
LINE
  8
0
 10
191.546
 20
-173.9
 11
191.546
 21
-177
  0
LINE
  8
0
 10
191.546
 20
-177
 11
200.911
 21
-177
  0
LINE
  8
0
 10
200.911
 20
-177
 11
200.911
 21
-173.9
  0
LINE
  8
0
 10
200.911
 20
-173.9
 11
210.676
 21
-173.9
  0
LINE
  8
0
 10
210.676
 20
-173.9
 11
210.676
 21
-177
  0
LINE
  8
0
 10
210.676
 20
-177
 11
220.041
 21
-177
  0
LINE
  8
0
 10
220.041
 20
-177
 11
220.041
 21
-173.9
  0
LINE
  8
0
 10
220.041
 20
-173.9
 11
229.807
 21
-173.9
  0
LINE
  8
0
 10
229.807
 20
-173.9
 11
229.807
 21
-177
  0
LINE
  8
0
 10
229.807
 20
-177
 11
239.172
 21
-177
  0
LINE
  8
0
 10
239.172
 20
-177
 11
239.172
 21
-173.9
  0
LINE
  8
0
 10
239.172
 20
-173.9
 11
248.937
 21
-173.9
  0
LINE
  8
0
 10
248.937
 20
-173.9
 11
248.937
 21
-177
  0
LINE
  8
0
 10
248.937
 20
-177
 11
258.302
 21
-177
  0
LINE
  8
0
 10
258.302
 20
-177
 11
258.302
 21
-173.9
  0
LINE
  8
0
 10
258.302
 20
-173.9
 11
268.067
 21
-173.9
  0
LINE
  8
0
 10
268.067
 20
-173.9
 11
268.067
 21
-177
  0
LINE
  8
0
 10
268.067
 20
-177
 11
277.433
 21
-177
  0
LINE
  8
0
 10
277.433
 20
-177
 11
277.433
 21
-173.9
  0
LINE
  8
0
 10
277.433
 20
-173.9
 11
287.198
 21
-173.9
  0
LINE
  8
0
 10
287.198
 20
-173.9
 11
287.198
 21
-177
  0
LINE
  8
0
 10
287.198
 20
-177
 11
296.563
 21
-177
  0
LINE
  8
0
 10
296.563
 20
-177
 11
296.563
 21
-173.9
  0
LINE
  8
0
 10
296.563
 20
-173.9
 11
306.328
 21
-173.9
  0
LINE
  8
0
 10
306.328
 20
-173.9
 11
306.328
 21
-177
  0
LINE
  8
0
 10
306.328
 20
-177
 11
315.693
 21
-177
  0
LINE
  8
0
 10
315.693
 20
-177
 11
315.693
 21
-173.9
  0
LINE
  8
0
 10
315.693
 20
-173.9
 11
325.459
 21
-173.9
  0
LINE
  8
0
 10
325.459
 20
-173.9
 11
325.459
 21
-177
  0
LINE
  8
0
 10
325.459
 20
-177
 11
334.824
 21
-177
  0
LINE
  8
0
 10
334.824
 20
-177
 11
334.824
 21
-173.9
  0
LINE
  8
0
 10
334.824
 20
-173.9
 11
344.589
 21
-173.9
  0
LINE
  8
0
 10
344.589
 20
-173.9
 11
344.589
 21
-177
  0
LINE
  8
0
 10
344.589
 20
-177
 11
353.954
 21
-177
  0
LINE
  8
0
 10
353.954
 20
-177
 11
353.954
 21
-173.9
  0
LINE
  8
0
 10
353.954
 20
-173.9
 11
363.72
 21
-173.9
  0
LINE
  8
0
 10
363.72
 20
-173.9
 11
363.72
 21
-177
  0
LINE
  8
0
 10
363.72
 20
-177
 11
373.085
 21
-177
  0
LINE
  8
0
 10
373.085
 20
-177
 11
373.085
 21
-173.9
  0
LINE
  8
0
 10
373.085
 20
-173.9
 11
382.75
 21
-173.9
  0
LINE
  8
0
 10
382.75
 20
-173.9
 11
382.75
 21
-165.3
  0
LINE
  8
0
 10
382.75
 20
-165.3
 11
379.65
 21
-165.3
  0
LINE
  8
0
 10
379.65
 20
-165.3
 11
379.65
 21
-153.3
  0
LINE
  8
0
 10
379.65
 20
-153.3
 11
382.75
 21
-153.3
  0
LINE
  8
0
 10
382.75
 20
-153.3
 11
382.75
 21
-141.7
  0
LINE
  8
0
 10
382.75
 20
-141.7
 11
379.65
 21
-141.7
  0
LINE
  8
0
 10
379.65
 20
-141.7
 11
379.65
 21
-129.7
  0
LINE
  8
0
 10
379.65
 20
-129.7
 11
382.75
 21
-129.7
  0
LINE
  8
0
 10
382.75
 20
-129.7
 11
382.75
 21
-118
  0
LINE
  8
0
 10
382.75
 20
-118
 11
162.75
 21
-118
  0
LINE
  8
0
 10
162.75
 20
-118
 11
162.75
 21
-129.7
  0
LINE
  8
0
 10
162.75
 20
-129.7
 11
165.85
 21
-129.7
  0
LINE
  8
0
 10
165.85
 20
-129.7
 11
165.85
 21
-141.7
  0
LINE
  8
0
 10
165.85
 20
-141.7
 11
162.75
 21
-141.7
  0
LINE
  8
0
 10
162.75
 20
-141.7
 11
162.75
 21
-153.3
  0
LINE
  8
0
 10
162.75
 20
-153.3
 11
165.85
 21
-153.3
  0
LINE
  8
0
 10
165.85
 20
-153.3
 11
165.85
 21
-165.3
  0
LINE
  8
0
 10
165.85
 20
-165.3
 11
162.75
 21
-165.3
  0
LINE
  8
0
 10
162.75
 20
-165.3
 11
162.75
 21
-173.9
  0
LINE
  8
0
 10
162.75
 20
-173.9
 11
172.415
 21
-173.9
  0
LINE
  8
0
 10
172.415
 20
-173.9
 11
172.415
 21
-177
  0
LINE
  8
0
 10
172.415
 20
-177
 11
181.78
 21
-177
  0
LINE
  8
0
 10
181.78
 20
-177
 11
181.78
 21
-173.9
  0
LINE
  8
0
 10
265.332
 20
-145.978
 11
264.514
 21
-145.804
  0
LINE
  8
0
 10
264.514
 20
-145.804
 11
263.75
 21
-145.464
  0
LINE
  8
0
 10
263.75
 20
-145.464
 11
263.073
 21
-144.973
  0
LINE
  8
0
 10
263.073
 20
-144.973
 11
262.514
 21
-144.351
  0
LINE
  8
0
 10
262.514
 20
-144.351
 11
262.096
 21
-143.627
  0
LINE
  8
0
 10
262.096
 20
-143.627
 11
261.837
 21
-142.832
  0
LINE
  8
0
 10
261.837
 20
-142.832
 11
261.75
 21
-142
  0
LINE
  8
0
 10
261.75
 20
-142
 11
261.837
 21
-141.168
  0
LINE
  8
0
 10
261.837
 20
-141.168
 11
262.096
 21
-140.373
  0
LINE
  8
0
 10
262.096
 20
-140.373
 11
262.514
 21
-139.649
  0
LINE
  8
0
 10
262.514
 20
-139.649
 11
263.073
 21
-139.027
  0
LINE
  8
0
 10
263.073
 20
-139.027
 11
263.75
 21
-138.536
  0
LINE
  8
0
 10
263.75
 20
-138.536
 11
264.514
 21
-138.196
  0
LINE
  8
0
 10
264.514
 20
-138.196
 11
265.332
 21
-138.022
  0
LINE
  8
0
 10
265.332
 20
-138.022
 11
266.168
 21
-138.022
  0
LINE
  8
0
 10
266.168
 20
-138.022
 11
266.986
 21
-138.196
  0
LINE
  8
0
 10
266.986
 20
-138.196
 11
267.75
 21
-138.536
  0
LINE
  8
0
 10
267.75
 20
-138.536
 11
268.427
 21
-139.027
  0
LINE
  8
0
 10
268.427
 20
-139.027
 11
268.986
 21
-139.649
  0
LINE
  8
0
 10
268.986
 20
-139.649
 11
269.404
 21
-140.373
  0
LINE
  8
0
 10
269.404
 20
-140.373
 11
269.663
 21
-141.168
  0
LINE
  8
0
 10
269.663
 20
-141.168
 11
269.75
 21
-142
  0
LINE
  8
0
 10
269.75
 20
-142
 11
269.663
 21
-142.832
  0
LINE
  8
0
 10
269.663
 20
-142.832
 11
269.404
 21
-143.627
  0
LINE
  8
0
 10
269.404
 20
-143.627
 11
268.986
 21
-144.351
  0
LINE
  8
0
 10
268.986
 20
-144.351
 11
268.427
 21
-144.973
  0
LINE
  8
0
 10
268.427
 20
-144.973
 11
267.75
 21
-145.464
  0
LINE
  8
0
 10
267.75
 20
-145.464
 11
266.986
 21
-145.804
  0
LINE
  8
0
 10
266.986
 20
-145.804
 11
266.168
 21
-145.978
  0
LINE
  8
0
 10
266.168
 20
-145.978
 11
265.332
 21
-145.978
  0
LINE
  8
0
 10
279.332
 20
-145.978
 11
278.514
 21
-145.804
  0
LINE
  8
0
 10
278.514
 20
-145.804
 11
277.75
 21
-145.464
  0
LINE
  8
0
 10
277.75
 20
-145.464
 11
277.073
 21
-144.973
  0
LINE
  8
0
 10
277.073
 20
-144.973
 11
276.514
 21
-144.351
  0
LINE
  8
0
 10
276.514
 20
-144.351
 11
276.096
 21
-143.627
  0
LINE
  8
0
 10
276.096
 20
-143.627
 11
275.837
 21
-142.832
  0
LINE
  8
0
 10
275.837
 20
-142.832
 11
275.75
 21
-142
  0
LINE
  8
0
 10
275.75
 20
-142
 11
275.837
 21
-141.168
  0
LINE
  8
0
 10
275.837
 20
-141.168
 11
276.096
 21
-140.373
  0
LINE
  8
0
 10
276.096
 20
-140.373
 11
276.514
 21
-139.649
  0
LINE
  8
0
 10
276.514
 20
-139.649
 11
277.073
 21
-139.027
  0
LINE
  8
0
 10
277.073
 20
-139.027
 11
277.75
 21
-138.536
  0
LINE
  8
0
 10
277.75
 20
-138.536
 11
278.514
 21
-138.196
  0
LINE
  8
0
 10
278.514
 20
-138.196
 11
279.332
 21
-138.022
  0
LINE
  8
0
 10
279.332
 20
-138.022
 11
280.168
 21
-138.022
  0
LINE
  8
0
 10
280.168
 20
-138.022
 11
280.986
 21
-138.196
  0
LINE
  8
0
 10
280.986
 20
-138.196
 11
281.75
 21
-138.536
  0
LINE
  8
0
 10
281.75
 20
-138.536
 11
282.427
 21
-139.027
  0
LINE
  8
0
 10
282.427
 20
-139.027
 11
282.986
 21
-139.649
  0
LINE
  8
0
 10
282.986
 20
-139.649
 11
283.404
 21
-140.373
  0
LINE
  8
0
 10
283.404
 20
-140.373
 11
283.663
 21
-141.168
  0
LINE
  8
0
 10
283.663
 20
-141.168
 11
283.75
 21
-142
  0
LINE
  8
0
 10
283.75
 20
-142
 11
283.663
 21
-142.832
  0
LINE
  8
0
 10
283.663
 20
-142.832
 11
283.404
 21
-143.627
  0
LINE
  8
0
 10
283.404
 20
-143.627
 11
282.986
 21
-144.351
  0
LINE
  8
0
 10
282.986
 20
-144.351
 11
282.427
 21
-144.973
  0
LINE
  8
0
 10
282.427
 20
-144.973
 11
281.75
 21
-145.464
  0
LINE
  8
0
 10
281.75
 20
-145.464
 11
280.986
 21
-145.804
  0
LINE
  8
0
 10
280.986
 20
-145.804
 11
280.168
 21
-145.978
  0
LINE
  8
0
 10
280.168
 20
-145.978
 11
279.332
 21
-145.978
  0
LINE
  8
0
 10
293.332
 20
-145.978
 11
292.514
 21
-145.804
  0
LINE
  8
0
 10
292.514
 20
-145.804
 11
291.75
 21
-145.464
  0
LINE
  8
0
 10
291.75
 20
-145.464
 11
291.073
 21
-144.973
  0
LINE
  8
0
 10
291.073
 20
-144.973
 11
290.514
 21
-144.351
  0
LINE
  8
0
 10
290.514
 20
-144.351
 11
290.096
 21
-143.627
  0
LINE
  8
0
 10
290.096
 20
-143.627
 11
289.837
 21
-142.832
  0
LINE
  8
0
 10
289.837
 20
-142.832
 11
289.75
 21
-142
  0
LINE
  8
0
 10
289.75
 20
-142
 11
289.837
 21
-141.168
  0
LINE
  8
0
 10
289.837
 20
-141.168
 11
290.096
 21
-140.373
  0
LINE
  8
0
 10
290.096
 20
-140.373
 11
290.514
 21
-139.649
  0
LINE
  8
0
 10
290.514
 20
-139.649
 11
291.073
 21
-139.027
  0
LINE
  8
0
 10
291.073
 20
-139.027
 11
291.75
 21
-138.536
  0
LINE
  8
0
 10
291.75
 20
-138.536
 11
292.514
 21
-138.196
  0
LINE
  8
0
 10
292.514
 20
-138.196
 11
293.332
 21
-138.022
  0
LINE
  8
0
 10
293.332
 20
-138.022
 11
294.168
 21
-138.022
  0
LINE
  8
0
 10
294.168
 20
-138.022
 11
294.986
 21
-138.196
  0
LINE
  8
0
 10
294.986
 20
-138.196
 11
295.75
 21
-138.536
  0
LINE
  8
0
 10
295.75
 20
-138.536
 11
296.427
 21
-139.027
  0
LINE
  8
0
 10
296.427
 20
-139.027
 11
296.986
 21
-139.649
  0
LINE
  8
0
 10
296.986
 20
-139.649
 11
297.404
 21
-140.373
  0
LINE
  8
0
 10
297.404
 20
-140.373
 11
297.663
 21
-141.168
  0
LINE
  8
0
 10
297.663
 20
-141.168
 11
297.75
 21
-142
  0
LINE
  8
0
 10
297.75
 20
-142
 11
297.663
 21
-142.832
  0
LINE
  8
0
 10
297.663
 20
-142.832
 11
297.404
 21
-143.627
  0
LINE
  8
0
 10
297.404
 20
-143.627
 11
296.986
 21
-144.351
  0
LINE
  8
0
 10
296.986
 20
-144.351
 11
296.427
 21
-144.973
  0
LINE
  8
0
 10
296.427
 20
-144.973
 11
295.75
 21
-145.464
  0
LINE
  8
0
 10
295.75
 20
-145.464
 11
294.986
 21
-145.804
  0
LINE
  8
0
 10
294.986
 20
-145.804
 11
294.168
 21
-145.978
  0
LINE
  8
0
 10
294.168
 20
-145.978
 11
293.332
 21
-145.978
  0
LINE
  8
0
 10
307.332
 20
-145.978
 11
306.514
 21
-145.804
  0
LINE
  8
0
 10
306.514
 20
-145.804
 11
305.75
 21
-145.464
  0
LINE
  8
0
 10
305.75
 20
-145.464
 11
305.073
 21
-144.973
  0
LINE
  8
0
 10
305.073
 20
-144.973
 11
304.514
 21
-144.351
  0
LINE
  8
0
 10
304.514
 20
-144.351
 11
304.096
 21
-143.627
  0
LINE
  8
0
 10
304.096
 20
-143.627
 11
303.837
 21
-142.832
  0
LINE
  8
0
 10
303.837
 20
-142.832
 11
303.75
 21
-142
  0
LINE
  8
0
 10
303.75
 20
-142
 11
303.837
 21
-141.168
  0
LINE
  8
0
 10
303.837
 20
-141.168
 11
304.096
 21
-140.373
  0
LINE
  8
0
 10
304.096
 20
-140.373
 11
304.514
 21
-139.649
  0
LINE
  8
0
 10
304.514
 20
-139.649
 11
305.073
 21
-139.027
  0
LINE
  8
0
 10
305.073
 20
-139.027
 11
305.75
 21
-138.536
  0
LINE
  8
0
 10
305.75
 20
-138.536
 11
306.514
 21
-138.196
  0
LINE
  8
0
 10
306.514
 20
-138.196
 11
307.332
 21
-138.022
  0
LINE
  8
0
 10
307.332
 20
-138.022
 11
308.168
 21
-138.022
  0
LINE
  8
0
 10
308.168
 20
-138.022
 11
308.986
 21
-138.196
  0
LINE
  8
0
 10
308.986
 20
-138.196
 11
309.75
 21
-138.536
  0
LINE
  8
0
 10
309.75
 20
-138.536
 11
310.427
 21
-139.027
  0
LINE
  8
0
 10
310.427
 20
-139.027
 11
310.986
 21
-139.649
  0
LINE
  8
0
 10
310.986
 20
-139.649
 11
311.404
 21
-140.373
  0
LINE
  8
0
 10
311.404
 20
-140.373
 11
311.663
 21
-141.168
  0
LINE
  8
0
 10
311.663
 20
-141.168
 11
311.75
 21
-142
  0
LINE
  8
0
 10
311.75
 20
-142
 11
311.663
 21
-142.832
  0
LINE
  8
0
 10
311.663
 20
-142.832
 11
311.404
 21
-143.627
  0
LINE
  8
0
 10
311.404
 20
-143.627
 11
310.986
 21
-144.351
  0
LINE
  8
0
 10
310.986
 20
-144.351
 11
310.427
 21
-144.973
  0
LINE
  8
0
 10
310.427
 20
-144.973
 11
309.75
 21
-145.464
  0
LINE
  8
0
 10
309.75
 20
-145.464
 11
308.986
 21
-145.804
  0
LINE
  8
0
 10
308.986
 20
-145.804
 11
308.168
 21
-145.978
  0
LINE
  8
0
 10
308.168
 20
-145.978
 11
307.332
 21
-145.978
  0
LINE
  8
0
 10
307.332
 20
-170.978
 11
306.514
 21
-170.804
  0
LINE
  8
0
 10
306.514
 20
-170.804
 11
305.75
 21
-170.464
  0
LINE
  8
0
 10
305.75
 20
-170.464
 11
305.073
 21
-169.973
  0
LINE
  8
0
 10
305.073
 20
-169.973
 11
304.514
 21
-169.351
  0
LINE
  8
0
 10
304.514
 20
-169.351
 11
304.096
 21
-168.627
  0
LINE
  8
0
 10
304.096
 20
-168.627
 11
303.837
 21
-167.832
  0
LINE
  8
0
 10
303.837
 20
-167.832
 11
303.75
 21
-167
  0
LINE
  8
0
 10
303.75
 20
-167
 11
303.837
 21
-166.168
  0
LINE
  8
0
 10
303.837
 20
-166.168
 11
304.096
 21
-165.373
  0
LINE
  8
0
 10
304.096
 20
-165.373
 11
304.514
 21
-164.649
  0
LINE
  8
0
 10
304.514
 20
-164.649
 11
305.073
 21
-164.027
  0
LINE
  8
0
 10
305.073
 20
-164.027
 11
305.75
 21
-163.536
  0
LINE
  8
0
 10
305.75
 20
-163.536
 11
306.514
 21
-163.196
  0
LINE
  8
0
 10
306.514
 20
-163.196
 11
307.332
 21
-163.022
  0
LINE
  8
0
 10
307.332
 20
-163.022
 11
308.168
 21
-163.022
  0
LINE
  8
0
 10
308.168
 20
-163.022
 11
308.986
 21
-163.196
  0
LINE
  8
0
 10
308.986
 20
-163.196
 11
309.75
 21
-163.536
  0
LINE
  8
0
 10
309.75
 20
-163.536
 11
310.427
 21
-164.027
  0
LINE
  8
0
 10
310.427
 20
-164.027
 11
310.986
 21
-164.649
  0
LINE
  8
0
 10
310.986
 20
-164.649
 11
311.404
 21
-165.373
  0
LINE
  8
0
 10
311.404
 20
-165.373
 11
311.663
 21
-166.168
  0
LINE
  8
0
 10
311.663
 20
-166.168
 11
311.75
 21
-167
  0
LINE
  8
0
 10
311.75
 20
-167
 11
311.663
 21
-167.832
  0
LINE
  8
0
 10
311.663
 20
-167.832
 11
311.404
 21
-168.627
  0
LINE
  8
0
 10
311.404
 20
-168.627
 11
310.986
 21
-169.351
  0
LINE
  8
0
 10
310.986
 20
-169.351
 11
310.427
 21
-169.973
  0
LINE
  8
0
 10
310.427
 20
-169.973
 11
309.75
 21
-170.464
  0
LINE
  8
0
 10
309.75
 20
-170.464
 11
308.986
 21
-170.804
  0
LINE
  8
0
 10
308.986
 20
-170.804
 11
308.168
 21
-170.978
  0
LINE
  8
0
 10
308.168
 20
-170.978
 11
307.332
 21
-170.978
  0
LINE
  8
0
 10
293.332
 20
-170.978
 11
292.514
 21
-170.804
  0
LINE
  8
0
 10
292.514
 20
-170.804
 11
291.75
 21
-170.464
  0
LINE
  8
0
 10
291.75
 20
-170.464
 11
291.073
 21
-169.973
  0
LINE
  8
0
 10
291.073
 20
-169.973
 11
290.514
 21
-169.351
  0
LINE
  8
0
 10
290.514
 20
-169.351
 11
290.096
 21
-168.627
  0
LINE
  8
0
 10
290.096
 20
-168.627
 11
289.837
 21
-167.832
  0
LINE
  8
0
 10
289.837
 20
-167.832
 11
289.75
 21
-167
  0
LINE
  8
0
 10
289.75
 20
-167
 11
289.837
 21
-166.168
  0
LINE
  8
0
 10
289.837
 20
-166.168
 11
290.096
 21
-165.373
  0
LINE
  8
0
 10
290.096
 20
-165.373
 11
290.514
 21
-164.649
  0
LINE
  8
0
 10
290.514
 20
-164.649
 11
291.073
 21
-164.027
  0
LINE
  8
0
 10
291.073
 20
-164.027
 11
291.75
 21
-163.536
  0
LINE
  8
0
 10
291.75
 20
-163.536
 11
292.514
 21
-163.196
  0
LINE
  8
0
 10
292.514
 20
-163.196
 11
293.332
 21
-163.022
  0
LINE
  8
0
 10
293.332
 20
-163.022
 11
294.168
 21
-163.022
  0
LINE
  8
0
 10
294.168
 20
-163.022
 11
294.986
 21
-163.196
  0
LINE
  8
0
 10
294.986
 20
-163.196
 11
295.75
 21
-163.536
  0
LINE
  8
0
 10
295.75
 20
-163.536
 11
296.427
 21
-164.027
  0
LINE
  8
0
 10
296.427
 20
-164.027
 11
296.986
 21
-164.649
  0
LINE
  8
0
 10
296.986
 20
-164.649
 11
297.404
 21
-165.373
  0
LINE
  8
0
 10
297.404
 20
-165.373
 11
297.663
 21
-166.168
  0
LINE
  8
0
 10
297.663
 20
-166.168
 11
297.75
 21
-167
  0
LINE
  8
0
 10
297.75
 20
-167
 11
297.663
 21
-167.832
  0
LINE
  8
0
 10
297.663
 20
-167.832
 11
297.404
 21
-168.627
  0
LINE
  8
0
 10
297.404
 20
-168.627
 11
296.986
 21
-169.351
  0
LINE
  8
0
 10
296.986
 20
-169.351
 11
296.427
 21
-169.973
  0
LINE
  8
0
 10
296.427
 20
-169.973
 11
295.75
 21
-170.464
  0
LINE
  8
0
 10
295.75
 20
-170.464
 11
294.986
 21
-170.804
  0
LINE
  8
0
 10
294.986
 20
-170.804
 11
294.168
 21
-170.978
  0
LINE
  8
0
 10
294.168
 20
-170.978
 11
293.332
 21
-170.978
  0
LINE
  8
0
 10
279.332
 20
-170.978
 11
278.514
 21
-170.804
  0
LINE
  8
0
 10
278.514
 20
-170.804
 11
277.75
 21
-170.464
  0
LINE
  8
0
 10
277.75
 20
-170.464
 11
277.073
 21
-169.973
  0
LINE
  8
0
 10
277.073
 20
-169.973
 11
276.514
 21
-169.351
  0
LINE
  8
0
 10
276.514
 20
-169.351
 11
276.096
 21
-168.627
  0
LINE
  8
0
 10
276.096
 20
-168.627
 11
275.837
 21
-167.832
  0
LINE
  8
0
 10
275.837
 20
-167.832
 11
275.75
 21
-167
  0
LINE
  8
0
 10
275.75
 20
-167
 11
275.837
 21
-166.168
  0
LINE
  8
0
 10
275.837
 20
-166.168
 11
276.096
 21
-165.373
  0
LINE
  8
0
 10
276.096
 20
-165.373
 11
276.514
 21
-164.649
  0
LINE
  8
0
 10
276.514
 20
-164.649
 11
277.073
 21
-164.027
  0
LINE
  8
0
 10
277.073
 20
-164.027
 11
277.75
 21
-163.536
  0
LINE
  8
0
 10
277.75
 20
-163.536
 11
278.514
 21
-163.196
  0
LINE
  8
0
 10
278.514
 20
-163.196
 11
279.332
 21
-163.022
  0
LINE
  8
0
 10
279.332
 20
-163.022
 11
280.168
 21
-163.022
  0
LINE
  8
0
 10
280.168
 20
-163.022
 11
280.986
 21
-163.196
  0
LINE
  8
0
 10
280.986
 20
-163.196
 11
281.75
 21
-163.536
  0
LINE
  8
0
 10
281.75
 20
-163.536
 11
282.427
 21
-164.027
  0
LINE
  8
0
 10
282.427
 20
-164.027
 11
282.986
 21
-164.649
  0
LINE
  8
0
 10
282.986
 20
-164.649
 11
283.404
 21
-165.373
  0
LINE
  8
0
 10
283.404
 20
-165.373
 11
283.663
 21
-166.168
  0
LINE
  8
0
 10
283.663
 20
-166.168
 11
283.75
 21
-167
  0
LINE
  8
0
 10
283.75
 20
-167
 11
283.663
 21
-167.832
  0
LINE
  8
0
 10
283.663
 20
-167.832
 11
283.404
 21
-168.627
  0
LINE
  8
0
 10
283.404
 20
-168.627
 11
282.986
 21
-169.351
  0
LINE
  8
0
 10
282.986
 20
-169.351
 11
282.427
 21
-169.973
  0
LINE
  8
0
 10
282.427
 20
-169.973
 11
281.75
 21
-170.464
  0
LINE
  8
0
 10
281.75
 20
-170.464
 11
280.986
 21
-170.804
  0
LINE
  8
0
 10
280.986
 20
-170.804
 11
280.168
 21
-170.978
  0
LINE
  8
0
 10
280.168
 20
-170.978
 11
279.332
 21
-170.978
  0
LINE
  8
0
 10
265.332
 20
-170.978
 11
264.514
 21
-170.804
  0
LINE
  8
0
 10
264.514
 20
-170.804
 11
263.75
 21
-170.464
  0
LINE
  8
0
 10
263.75
 20
-170.464
 11
263.073
 21
-169.973
  0
LINE
  8
0
 10
263.073
 20
-169.973
 11
262.514
 21
-169.351
  0
LINE
  8
0
 10
262.514
 20
-169.351
 11
262.096
 21
-168.627
  0
LINE
  8
0
 10
262.096
 20
-168.627
 11
261.837
 21
-167.832
  0
LINE
  8
0
 10
261.837
 20
-167.832
 11
261.75
 21
-167
  0
LINE
  8
0
 10
261.75
 20
-167
 11
261.837
 21
-166.168
  0
LINE
  8
0
 10
261.837
 20
-166.168
 11
262.096
 21
-165.373
  0
LINE
  8
0
 10
262.096
 20
-165.373
 11
262.514
 21
-164.649
  0
LINE
  8
0
 10
262.514
 20
-164.649
 11
263.073
 21
-164.027
  0
LINE
  8
0
 10
263.073
 20
-164.027
 11
263.75
 21
-163.536
  0
LINE
  8
0
 10
263.75
 20
-163.536
 11
264.514
 21
-163.196
  0
LINE
  8
0
 10
264.514
 20
-163.196
 11
265.332
 21
-163.022
  0
LINE
  8
0
 10
265.332
 20
-163.022
 11
266.168
 21
-163.022
  0
LINE
  8
0
 10
266.168
 20
-163.022
 11
266.986
 21
-163.196
  0
LINE
  8
0
 10
266.986
 20
-163.196
 11
267.75
 21
-163.536
  0
LINE
  8
0
 10
267.75
 20
-163.536
 11
268.427
 21
-164.027
  0
LINE
  8
0
 10
268.427
 20
-164.027
 11
268.986
 21
-164.649
  0
LINE
  8
0
 10
268.986
 20
-164.649
 11
269.404
 21
-165.373
  0
LINE
  8
0
 10
269.404
 20
-165.373
 11
269.663
 21
-166.168
  0
LINE
  8
0
 10
269.663
 20
-166.168
 11
269.75
 21
-167
  0
LINE
  8
0
 10
269.75
 20
-167
 11
269.663
 21
-167.832
  0
LINE
  8
0
 10
269.663
 20
-167.832
 11
269.404
 21
-168.627
  0
LINE
  8
0
 10
269.404
 20
-168.627
 11
268.986
 21
-169.351
  0
LINE
  8
0
 10
268.986
 20
-169.351
 11
268.427
 21
-169.973
  0
LINE
  8
0
 10
268.427
 20
-169.973
 11
267.75
 21
-170.464
  0
LINE
  8
0
 10
267.75
 20
-170.464
 11
266.986
 21
-170.804
  0
LINE
  8
0
 10
266.986
 20
-170.804
 11
266.168
 21
-170.978
  0
LINE
  8
0
 10
266.168
 20
-170.978
 11
265.332
 21
-170.978
  0
LINE
  8
0
 10
-105.1
 20
-173.9
 11
-94.9
 21
-173.9
  0
LINE
  8
0
 10
-94.9
 20
-173.9
 11
-94.9
 21
-177
  0
LINE
  8
0
 10
-94.9
 20
-177
 11
-85.1
 21
-177
  0
LINE
  8
0
 10
-85.1
 20
-177
 11
-85.1
 21
-173.9
  0
LINE
  8
0
 10
-85.1
 20
-173.9
 11
-74.9
 21
-173.9
  0
LINE
  8
0
 10
-74.9
 20
-173.9
 11
-74.9
 21
-177
  0
LINE
  8
0
 10
-74.9
 20
-177
 11
-65.1
 21
-177
  0
LINE
  8
0
 10
-65.1
 20
-177
 11
-65.1
 21
-173.9
  0
LINE
  8
0
 10
-65.1
 20
-173.9
 11
-54.9
 21
-173.9
  0
LINE
  8
0
 10
-54.9
 20
-173.9
 11
-54.9
 21
-177
  0
LINE
  8
0
 10
-54.9
 20
-177
 11
-45.1
 21
-177
  0
LINE
  8
0
 10
-45.1
 20
-177
 11
-45.1
 21
-173.9
  0
LINE
  8
0
 10
-45.1
 20
-173.9
 11
-34.9
 21
-173.9
  0
LINE
  8
0
 10
-34.9
 20
-173.9
 11
-34.9
 21
-177
  0
LINE
  8
0
 10
-34.9
 20
-177
 11
-25.1
 21
-177
  0
LINE
  8
0
 10
-25.1
 20
-177
 11
-25.1
 21
-173.9
  0
LINE
  8
0
 10
-25.1
 20
-173.9
 11
-14.9
 21
-173.9
  0
LINE
  8
0
 10
-14.9
 20
-173.9
 11
-14.9
 21
-177
  0
LINE
  8
0
 10
-14.9
 20
-177
 11
-5.10001
 21
-177
  0
LINE
  8
0
 10
-5.10001
 20
-177
 11
-5.10001
 21
-173.9
  0
LINE
  8
0
 10
-5.10001
 20
-173.9
 11
5.09999
 21
-173.9
  0
LINE
  8
0
 10
5.09999
 20
-173.9
 11
5.09999
 21
-177
  0
LINE
  8
0
 10
5.09999
 20
-177
 11
14.9
 21
-177
  0
LINE
  8
0
 10
14.9
 20
-177
 11
14.9
 21
-173.9
  0
LINE
  8
0
 10
14.9
 20
-173.9
 11
25.1
 21
-173.9
  0
LINE
  8
0
 10
25.1
 20
-173.9
 11
25.1
 21
-177
  0
LINE
  8
0
 10
25.1
 20
-177
 11
34.9
 21
-177
  0
LINE
  8
0
 10
34.9
 20
-177
 11
34.9
 21
-173.9
  0
LINE
  8
0
 10
34.9
 20
-173.9
 11
45.1
 21
-173.9
  0
LINE
  8
0
 10
45.1
 20
-173.9
 11
45.1
 21
-177
  0
LINE
  8
0
 10
45.1
 20
-177
 11
54.9
 21
-177
  0
LINE
  8
0
 10
54.9
 20
-177
 11
54.9
 21
-173.9
  0
LINE
  8
0
 10
54.9
 20
-173.9
 11
65.1
 21
-173.9
  0
LINE
  8
0
 10
65.1
 20
-173.9
 11
65.1
 21
-177
  0
LINE
  8
0
 10
65.1
 20
-177
 11
74.9
 21
-177
  0
LINE
  8
0
 10
74.9
 20
-177
 11
74.9
 21
-173.9
  0
LINE
  8
0
 10
74.9
 20
-173.9
 11
85.1
 21
-173.9
  0
LINE
  8
0
 10
85.1
 20
-173.9
 11
85.1
 21
-177
  0
LINE
  8
0
 10
85.1
 20
-177
 11
94.9
 21
-177
  0
LINE
  8
0
 10
94.9
 20
-177
 11
94.9
 21
-173.9
  0
LINE
  8
0
 10
94.9
 20
-173.9
 11
105.1
 21
-173.9
  0
LINE
  8
0
 10
105.1
 20
-173.9
 11
105.1
 21
-177
  0
LINE
  8
0
 10
105.1
 20
-177
 11
114.9
 21
-177
  0
LINE
  8
0
 10
114.9
 20
-177
 11
114.9
 21
-173.9
  0
LINE
  8
0
 10
114.9
 20
-173.9
 11
121.9
 21
-173.9
  0
LINE
  8
0
 10
121.9
 20
-173.9
 11
121.9
 21
-165.1
  0
LINE
  8
0
 10
121.9
 20
-165.1
 11
125
 21
-165.1
  0
LINE
  8
0
 10
125
 20
-165.1
 11
125
 21
-153.5
  0
LINE
  8
0
 10
125
 20
-153.5
 11
121.9
 21
-153.5
  0
LINE
  8
0
 10
121.9
 20
-153.5
 11
121.9
 21
-141.5
  0
LINE
  8
0
 10
121.9
 20
-141.5
 11
125
 21
-141.5
  0
LINE
  8
0
 10
125
 20
-141.5
 11
125
 21
-129.9
  0
LINE
  8
0
 10
125
 20
-129.9
 11
121.9
 21
-129.9
  0
LINE
  8
0
 10
121.9
 20
-129.9
 11
121.9
 21
-118
  0
LINE
  8
0
 10
121.9
 20
-118
 11
-121.9
 21
-118
  0
LINE
  8
0
 10
-121.9
 20
-118
 11
-121.9
 21
-129.9
  0
LINE
  8
0
 10
-121.9
 20
-129.9
 11
-125
 21
-129.9
  0
LINE
  8
0
 10
-125
 20
-129.9
 11
-125
 21
-141.5
  0
LINE
  8
0
 10
-125
 20
-141.5
 11
-121.9
 21
-141.5
  0
LINE
  8
0
 10
-121.9
 20
-141.5
 11
-121.9
 21
-153.5
  0
LINE
  8
0
 10
-121.9
 20
-153.5
 11
-125
 21
-153.5
  0
LINE
  8
0
 10
-125
 20
-153.5
 11
-125
 21
-165.1
  0
LINE
  8
0
 10
-125
 20
-165.1
 11
-121.9
 21
-165.1
  0
LINE
  8
0
 10
-121.9
 20
-165.1
 11
-121.9
 21
-173.9
  0
LINE
  8
0
 10
-121.9
 20
-173.9
 11
-114.9
 21
-173.9
  0
LINE
  8
0
 10
-114.9
 20
-173.9
 11
-114.9
 21
-177
  0
LINE
  8
0
 10
-114.9
 20
-177
 11
-105.1
 21
-177
  0
LINE
  8
0
 10
-105.1
 20
-177
 11
-105.1
 21
-173.9
  0
LINE
  8
0
 10
-32
 20
-139
 11
-32
 21
-125
  0
LINE
  8
0
 10
-32
 20
-125
 11
-16
 21
-125
  0
LINE
  8
0
 10
-16
 20
-125
 11
-16
 21
-139
  0
LINE
  8
0
 10
-16
 20
-139
 11
-32
 21
-139
  0
LINE
  8
0
 10
16
 20
-139
 11
16
 21
-125
  0
LINE
  8
0
 10
16
 20
-125
 11
32
 21
-125
  0
LINE
  8
0
 10
32
 20
-125
 11
32
 21
-139
  0
LINE
  8
0
 10
32
 20
-139
 11
16
 21
-139
  0
LINE
  8
0
 10
51.0614
 20
-137.926
 11
50.1459
 21
-137.706
  0
LINE
  8
0
 10
50.1459
 20
-137.706
 11
49.276
 21
-137.346
  0
LINE
  8
0
 10
49.276
 20
-137.346
 11
48.4733
 21
-136.854
  0
LINE
  8
0
 10
48.4733
 20
-136.854
 11
47.7574
 21
-136.243
  0
LINE
  8
0
 10
47.7574
 20
-136.243
 11
47.1459
 21
-135.527
  0
LINE
  8
0
 10
47.1459
 20
-135.527
 11
46.6539
 21
-134.724
  0
LINE
  8
0
 10
46.6539
 20
-134.724
 11
46.2937
 21
-133.854
  0
LINE
  8
0
 10
46.2937
 20
-133.854
 11
46.0739
 21
-132.939
  0
LINE
  8
0
 10
46.0739
 20
-132.939
 11
46
 21
-132
  0
LINE
  8
0
 10
46
 20
-132
 11
46.0739
 21
-131.061
  0
LINE
  8
0
 10
46.0739
 20
-131.061
 11
46.2937
 21
-130.146
  0
LINE
  8
0
 10
46.2937
 20
-130.146
 11
46.6539
 21
-129.276
  0
LINE
  8
0
 10
46.6539
 20
-129.276
 11
47.1459
 21
-128.473
  0
LINE
  8
0
 10
47.1459
 20
-128.473
 11
47.7574
 21
-127.757
  0
LINE
  8
0
 10
47.7574
 20
-127.757
 11
48.4733
 21
-127.146
  0
LINE
  8
0
 10
48.4733
 20
-127.146
 11
49.276
 21
-126.654
  0
LINE
  8
0
 10
49.276
 20
-126.654
 11
50.1459
 21
-126.294
  0
LINE
  8
0
 10
50.1459
 20
-126.294
 11
51.0614
 21
-126.074
  0
LINE
  8
0
 10
51.0614
 20
-126.074
 11
52
 21
-126
  0
LINE
  8
0
 10
52
 20
-126
 11
52.9386
 21
-126.074
  0
LINE
  8
0
 10
52.9386
 20
-126.074
 11
53.8541
 21
-126.294
  0
LINE
  8
0
 10
53.8541
 20
-126.294
 11
54.7239
 21
-126.654
  0
LINE
  8
0
 10
54.7239
 20
-126.654
 11
55.5267
 21
-127.146
  0
LINE
  8
0
 10
55.5267
 20
-127.146
 11
56.2426
 21
-127.757
  0
LINE
  8
0
 10
56.2426
 20
-127.757
 11
56.8541
 21
-128.473
  0
LINE
  8
0
 10
56.8541
 20
-128.473
 11
57.346
 21
-129.276
  0
LINE
  8
0
 10
57.346
 20
-129.276
 11
57.7063
 21
-130.146
  0
LINE
  8
0
 10
57.7063
 20
-130.146
 11
57.9261
 21
-131.061
  0
LINE
  8
0
 10
57.9261
 20
-131.061
 11
58
 21
-132
  0
LINE
  8
0
 10
58
 20
-132
 11
57.9261
 21
-132.939
  0
LINE
  8
0
 10
57.9261
 20
-132.939
 11
57.7063
 21
-133.854
  0
LINE
  8
0
 10
57.7063
 20
-133.854
 11
57.346
 21
-134.724
  0
LINE
  8
0
 10
57.346
 20
-134.724
 11
56.8541
 21
-135.527
  0
LINE
  8
0
 10
56.8541
 20
-135.527
 11
56.2426
 21
-136.243
  0
LINE
  8
0
 10
56.2426
 20
-136.243
 11
55.5267
 21
-136.854
  0
LINE
  8
0
 10
55.5267
 20
-136.854
 11
54.7239
 21
-137.346
  0
LINE
  8
0
 10
54.7239
 20
-137.346
 11
53.8541
 21
-137.706
  0
LINE
  8
0
 10
53.8541
 20
-137.706
 11
52.9386
 21
-137.926
  0
LINE
  8
0
 10
52.9386
 20
-137.926
 11
52
 21
-138
  0
LINE
  8
0
 10
52
 20
-138
 11
51.0614
 21
-137.926
  0
LINE
  8
0
 10
-4
 20
-139
 11
-4
 21
-133
  0
LINE
  8
0
 10
-4
 20
-133
 11
4
 21
-133
  0
LINE
  8
0
 10
4
 20
-133
 11
4
 21
-139
  0
LINE
  8
0
 10
4
 20
-139
 11
-4
 21
-139
  0
LINE
  8
0
 10
-105.1
 20
-240.9
 11
-94.9
 21
-240.9
  0
LINE
  8
0
 10
-94.9
 20
-240.9
 11
-94.9
 21
-244
  0
LINE
  8
0
 10
-94.9
 20
-244
 11
-85.1
 21
-244
  0
LINE
  8
0
 10
-85.1
 20
-244
 11
-85.1
 21
-240.9
  0
LINE
  8
0
 10
-85.1
 20
-240.9
 11
-74.9
 21
-240.9
  0
LINE
  8
0
 10
-74.9
 20
-240.9
 11
-74.9
 21
-244
  0
LINE
  8
0
 10
-74.9
 20
-244
 11
-65.1
 21
-244
  0
LINE
  8
0
 10
-65.1
 20
-244
 11
-65.1
 21
-240.9
  0
LINE
  8
0
 10
-65.1
 20
-240.9
 11
-54.9
 21
-240.9
  0
LINE
  8
0
 10
-54.9
 20
-240.9
 11
-54.9
 21
-244
  0
LINE
  8
0
 10
-54.9
 20
-244
 11
-45.1
 21
-244
  0
LINE
  8
0
 10
-45.1
 20
-244
 11
-45.1
 21
-240.9
  0
LINE
  8
0
 10
-45.1
 20
-240.9
 11
-34.9
 21
-240.9
  0
LINE
  8
0
 10
-34.9
 20
-240.9
 11
-34.9
 21
-244
  0
LINE
  8
0
 10
-34.9
 20
-244
 11
-25.1
 21
-244
  0
LINE
  8
0
 10
-25.1
 20
-244
 11
-25.1
 21
-240.9
  0
LINE
  8
0
 10
-25.1
 20
-240.9
 11
-14.9
 21
-240.9
  0
LINE
  8
0
 10
-14.9
 20
-240.9
 11
-14.9
 21
-244
  0
LINE
  8
0
 10
-14.9
 20
-244
 11
-5.10001
 21
-244
  0
LINE
  8
0
 10
-5.10001
 20
-244
 11
-5.10001
 21
-240.9
  0
LINE
  8
0
 10
-5.10001
 20
-240.9
 11
5.09999
 21
-240.9
  0
LINE
  8
0
 10
5.09999
 20
-240.9
 11
5.09999
 21
-244
  0
LINE
  8
0
 10
5.09999
 20
-244
 11
14.9
 21
-244
  0
LINE
  8
0
 10
14.9
 20
-244
 11
14.9
 21
-240.9
  0
LINE
  8
0
 10
14.9
 20
-240.9
 11
25.1
 21
-240.9
  0
LINE
  8
0
 10
25.1
 20
-240.9
 11
25.1
 21
-244
  0
LINE
  8
0
 10
25.1
 20
-244
 11
34.9
 21
-244
  0
LINE
  8
0
 10
34.9
 20
-244
 11
34.9
 21
-240.9
  0
LINE
  8
0
 10
34.9
 20
-240.9
 11
45.1
 21
-240.9
  0
LINE
  8
0
 10
45.1
 20
-240.9
 11
45.1
 21
-244
  0
LINE
  8
0
 10
45.1
 20
-244
 11
54.9
 21
-244
  0
LINE
  8
0
 10
54.9
 20
-244
 11
54.9
 21
-240.9
  0
LINE
  8
0
 10
54.9
 20
-240.9
 11
65.1
 21
-240.9
  0
LINE
  8
0
 10
65.1
 20
-240.9
 11
65.1
 21
-244
  0
LINE
  8
0
 10
65.1
 20
-244
 11
74.9
 21
-244
  0
LINE
  8
0
 10
74.9
 20
-244
 11
74.9
 21
-240.9
  0
LINE
  8
0
 10
74.9
 20
-240.9
 11
85.1
 21
-240.9
  0
LINE
  8
0
 10
85.1
 20
-240.9
 11
85.1
 21
-244
  0
LINE
  8
0
 10
85.1
 20
-244
 11
94.9
 21
-244
  0
LINE
  8
0
 10
94.9
 20
-244
 11
94.9
 21
-240.9
  0
LINE
  8
0
 10
94.9
 20
-240.9
 11
105.1
 21
-240.9
  0
LINE
  8
0
 10
105.1
 20
-240.9
 11
105.1
 21
-244
  0
LINE
  8
0
 10
105.1
 20
-244
 11
114.9
 21
-244
  0
LINE
  8
0
 10
114.9
 20
-244
 11
114.9
 21
-240.9
  0
LINE
  8
0
 10
114.9
 20
-240.9
 11
121.9
 21
-240.9
  0
LINE
  8
0
 10
121.9
 20
-240.9
 11
121.9
 21
-232.1
  0
LINE
  8
0
 10
121.9
 20
-232.1
 11
125
 21
-232.1
  0
LINE
  8
0
 10
125
 20
-232.1
 11
125
 21
-220.5
  0
LINE
  8
0
 10
125
 20
-220.5
 11
121.9
 21
-220.5
  0
LINE
  8
0
 10
121.9
 20
-220.5
 11
121.9
 21
-208.5
  0
LINE
  8
0
 10
121.9
 20
-208.5
 11
125
 21
-208.5
  0
LINE
  8
0
 10
125
 20
-208.5
 11
125
 21
-196.9
  0
LINE
  8
0
 10
125
 20
-196.9
 11
121.9
 21
-196.9
  0
LINE
  8
0
 10
121.9
 20
-196.9
 11
121.9
 21
-185
  0
LINE
  8
0
 10
121.9
 20
-185
 11
-121.9
 21
-185
  0
LINE
  8
0
 10
-121.9
 20
-185
 11
-121.9
 21
-196.9
  0
LINE
  8
0
 10
-121.9
 20
-196.9
 11
-125
 21
-196.9
  0
LINE
  8
0
 10
-125
 20
-196.9
 11
-125
 21
-208.5
  0
LINE
  8
0
 10
-125
 20
-208.5
 11
-121.9
 21
-208.5
  0
LINE
  8
0
 10
-121.9
 20
-208.5
 11
-121.9
 21
-220.5
  0
LINE
  8
0
 10
-121.9
 20
-220.5
 11
-125
 21
-220.5
  0
LINE
  8
0
 10
-125
 20
-220.5
 11
-125
 21
-232.1
  0
LINE
  8
0
 10
-125
 20
-232.1
 11
-121.9
 21
-232.1
  0
LINE
  8
0
 10
-121.9
 20
-232.1
 11
-121.9
 21
-240.9
  0
LINE
  8
0
 10
-121.9
 20
-240.9
 11
-114.9
 21
-240.9
  0
LINE
  8
0
 10
-114.9
 20
-240.9
 11
-114.9
 21
-244
  0
LINE
  8
0
 10
-114.9
 20
-244
 11
-105.1
 21
-244
  0
LINE
  8
0
 10
-105.1
 20
-244
 11
-105.1
 21
-240.9
  0
LINE
  8
0
 10
-60
 20
-208
 11
-60
 21
-205
  0
LINE
  8
0
 10
-60
 20
-205
 11
60
 21
-205
  0
LINE
  8
0
 10
60
 20
-205
 11
60
 21
-208
  0
LINE
  8
0
 10
60
 20
-208
 11
-60
 21
-208
  0
LINE
  8
0
 10
-60
 20
-222
 11
-60
 21
-219
  0
LINE
  8
0
 10
-60
 20
-219
 11
60
 21
-219
  0
LINE
  8
0
 10
60
 20
-219
 11
60
 21
-222
  0
LINE
  8
0
 10
60
 20
-222
 11
-60
 21
-222
  0
LINE
  8
0
 10
-60
 20
-236
 11
-60
 21
-233
  0
LINE
  8
0
 10
-60
 20
-233
 11
60
 21
-233
  0
LINE
  8
0
 10
60
 20
-233
 11
60
 21
-236
  0
LINE
  8
0
 10
60
 20
-236
 11
-60
 21
-236
  0
LINE
  8
0
 10
181.78
 20
-240.9
 11
191.546
 21
-240.9
  0
LINE
  8
0
 10
191.546
 20
-240.9
 11
191.546
 21
-244
  0
LINE
  8
0
 10
191.546
 20
-244
 11
200.911
 21
-244
  0
LINE
  8
0
 10
200.911
 20
-244
 11
200.911
 21
-240.9
  0
LINE
  8
0
 10
200.911
 20
-240.9
 11
210.676
 21
-240.9
  0
LINE
  8
0
 10
210.676
 20
-240.9
 11
210.676
 21
-244
  0
LINE
  8
0
 10
210.676
 20
-244
 11
220.041
 21
-244
  0
LINE
  8
0
 10
220.041
 20
-244
 11
220.041
 21
-240.9
  0
LINE
  8
0
 10
220.041
 20
-240.9
 11
229.807
 21
-240.9
  0
LINE
  8
0
 10
229.807
 20
-240.9
 11
229.807
 21
-244
  0
LINE
  8
0
 10
229.807
 20
-244
 11
239.172
 21
-244
  0
LINE
  8
0
 10
239.172
 20
-244
 11
239.172
 21
-240.9
  0
LINE
  8
0
 10
239.172
 20
-240.9
 11
248.937
 21
-240.9
  0
LINE
  8
0
 10
248.937
 20
-240.9
 11
248.937
 21
-244
  0
LINE
  8
0
 10
248.937
 20
-244
 11
258.302
 21
-244
  0
LINE
  8
0
 10
258.302
 20
-244
 11
258.302
 21
-240.9
  0
LINE
  8
0
 10
258.302
 20
-240.9
 11
268.067
 21
-240.9
  0
LINE
  8
0
 10
268.067
 20
-240.9
 11
268.067
 21
-244
  0
LINE
  8
0
 10
268.067
 20
-244
 11
277.433
 21
-244
  0
LINE
  8
0
 10
277.433
 20
-244
 11
277.433
 21
-240.9
  0
LINE
  8
0
 10
277.433
 20
-240.9
 11
287.198
 21
-240.9
  0
LINE
  8
0
 10
287.198
 20
-240.9
 11
287.198
 21
-244
  0
LINE
  8
0
 10
287.198
 20
-244
 11
296.563
 21
-244
  0
LINE
  8
0
 10
296.563
 20
-244
 11
296.563
 21
-240.9
  0
LINE
  8
0
 10
296.563
 20
-240.9
 11
306.328
 21
-240.9
  0
LINE
  8
0
 10
306.328
 20
-240.9
 11
306.328
 21
-244
  0
LINE
  8
0
 10
306.328
 20
-244
 11
315.693
 21
-244
  0
LINE
  8
0
 10
315.693
 20
-244
 11
315.693
 21
-240.9
  0
LINE
  8
0
 10
315.693
 20
-240.9
 11
325.459
 21
-240.9
  0
LINE
  8
0
 10
325.459
 20
-240.9
 11
325.459
 21
-244
  0
LINE
  8
0
 10
325.459
 20
-244
 11
334.824
 21
-244
  0
LINE
  8
0
 10
334.824
 20
-244
 11
334.824
 21
-240.9
  0
LINE
  8
0
 10
334.824
 20
-240.9
 11
344.589
 21
-240.9
  0
LINE
  8
0
 10
344.589
 20
-240.9
 11
344.589
 21
-244
  0
LINE
  8
0
 10
344.589
 20
-244
 11
353.954
 21
-244
  0
LINE
  8
0
 10
353.954
 20
-244
 11
353.954
 21
-240.9
  0
LINE
  8
0
 10
353.954
 20
-240.9
 11
363.72
 21
-240.9
  0
LINE
  8
0
 10
363.72
 20
-240.9
 11
363.72
 21
-244
  0
LINE
  8
0
 10
363.72
 20
-244
 11
373.085
 21
-244
  0
LINE
  8
0
 10
373.085
 20
-244
 11
373.085
 21
-240.9
  0
LINE
  8
0
 10
373.085
 20
-240.9
 11
382.75
 21
-240.9
  0
LINE
  8
0
 10
382.75
 20
-240.9
 11
382.75
 21
-232.3
  0
LINE
  8
0
 10
382.75
 20
-232.3
 11
379.65
 21
-232.3
  0
LINE
  8
0
 10
379.65
 20
-232.3
 11
379.65
 21
-220.3
  0
LINE
  8
0
 10
379.65
 20
-220.3
 11
382.75
 21
-220.3
  0
LINE
  8
0
 10
382.75
 20
-220.3
 11
382.75
 21
-208.7
  0
LINE
  8
0
 10
382.75
 20
-208.7
 11
379.65
 21
-208.7
  0
LINE
  8
0
 10
379.65
 20
-208.7
 11
379.65
 21
-196.7
  0
LINE
  8
0
 10
379.65
 20
-196.7
 11
382.75
 21
-196.7
  0
LINE
  8
0
 10
382.75
 20
-196.7
 11
382.75
 21
-185
  0
LINE
  8
0
 10
382.75
 20
-185
 11
162.75
 21
-185
  0
LINE
  8
0
 10
162.75
 20
-185
 11
162.75
 21
-196.7
  0
LINE
  8
0
 10
162.75
 20
-196.7
 11
165.85
 21
-196.7
  0
LINE
  8
0
 10
165.85
 20
-196.7
 11
165.85
 21
-208.7
  0
LINE
  8
0
 10
165.85
 20
-208.7
 11
162.75
 21
-208.7
  0
LINE
  8
0
 10
162.75
 20
-208.7
 11
162.75
 21
-220.3
  0
LINE
  8
0
 10
162.75
 20
-220.3
 11
165.85
 21
-220.3
  0
LINE
  8
0
 10
165.85
 20
-220.3
 11
165.85
 21
-232.3
  0
LINE
  8
0
 10
165.85
 20
-232.3
 11
162.75
 21
-232.3
  0
LINE
  8
0
 10
162.75
 20
-232.3
 11
162.75
 21
-240.9
  0
LINE
  8
0
 10
162.75
 20
-240.9
 11
172.415
 21
-240.9
  0
LINE
  8
0
 10
172.415
 20
-240.9
 11
172.415
 21
-244
  0
LINE
  8
0
 10
172.415
 20
-244
 11
181.78
 21
-244
  0
LINE
  8
0
 10
181.78
 20
-244
 11
181.78
 21
-240.9
  0
LINE
  8
0
 10
339.15
 20
-229.6
 11
339.15
 21
-198.4
  0
LINE
  8
0
 10
339.15
 20
-198.4
 11
366.35
 21
-198.4
  0
LINE
  8
0
 10
366.35
 20
-198.4
 11
366.35
 21
-229.6
  0
LINE
  8
0
 10
366.35
 20
-229.6
 11
339.15
 21
-229.6
  0
LINE
  8
0
 10
277.5
 20
-224.85
 11
277.5
 21
-203.15
  0
LINE
  8
0
 10
277.5
 20
-203.15
 11
318
 21
-203.15
  0
LINE
  8
0
 10
318
 20
-203.15
 11
318
 21
-224.85
  0
LINE
  8
0
 10
318
 20
-224.85
 11
277.5
 21
-224.85
  0
ENDSEC
  0
SECTION
  2
OBJECTS
  0
DICTIONARY
  0
ENDSEC
  0
EOF
