  0
SECTION
  2
BLOCKS
  0
ENDSEC
  0
SECTION
  2
ENTITIES
  0
LINE
  8
0
 10
91.0304
 20
121.1
 11
100.796
 21
121.1
  0
LINE
  8
0
 10
100.796
 20
121.1
 11
100.796
 21
118
  0
LINE
  8
0
 10
100.796
 20
118
 11
110.161
 21
118
  0
LINE
  8
0
 10
110.161
 20
118
 11
110.161
 21
121.1
  0
LINE
  8
0
 10
110.161
 20
121.1
 11
119.926
 21
121.1
  0
LINE
  8
0
 10
119.926
 20
121.1
 11
119.926
 21
118
  0
LINE
  8
0
 10
119.926
 20
118
 11
129.291
 21
118
  0
LINE
  8
0
 10
129.291
 20
118
 11
129.291
 21
121.1
  0
LINE
  8
0
 10
129.291
 20
121.1
 11
139.057
 21
121.1
  0
LINE
  8
0
 10
139.057
 20
121.1
 11
139.057
 21
118
  0
LINE
  8
0
 10
139.057
 20
118
 11
148.422
 21
118
  0
LINE
  8
0
 10
148.422
 20
118
 11
148.422
 21
121.1
  0
LINE
  8
0
 10
148.422
 20
121.1
 11
158.187
 21
121.1
  0
LINE
  8
0
 10
158.187
 20
121.1
 11
158.187
 21
118
  0
LINE
  8
0
 10
158.187
 20
118
 11
167.552
 21
118
  0
LINE
  8
0
 10
167.552
 20
118
 11
167.552
 21
121.1
  0
LINE
  8
0
 10
167.552
 20
121.1
 11
177.317
 21
121.1
  0
LINE
  8
0
 10
177.317
 20
121.1
 11
177.317
 21
118
  0
LINE
  8
0
 10
177.317
 20
118
 11
186.683
 21
118
  0
LINE
  8
0
 10
186.683
 20
118
 11
186.683
 21
121.1
  0
LINE
  8
0
 10
186.683
 20
121.1
 11
196.448
 21
121.1
  0
LINE
  8
0
 10
196.448
 20
121.1
 11
196.448
 21
118
  0
LINE
  8
0
 10
196.448
 20
118
 11
205.813
 21
118
  0
LINE
  8
0
 10
205.813
 20
118
 11
205.813
 21
121.1
  0
LINE
  8
0
 10
205.813
 20
121.1
 11
215.578
 21
121.1
  0
LINE
  8
0
 10
215.578
 20
121.1
 11
215.578
 21
118
  0
LINE
  8
0
 10
215.578
 20
118
 11
224.943
 21
118
  0
LINE
  8
0
 10
224.943
 20
118
 11
224.943
 21
121.1
  0
LINE
  8
0
 10
224.943
 20
121.1
 11
234.709
 21
121.1
  0
LINE
  8
0
 10
234.709
 20
121.1
 11
234.709
 21
118
  0
LINE
  8
0
 10
234.709
 20
118
 11
244.074
 21
118
  0
LINE
  8
0
 10
244.074
 20
118
 11
244.074
 21
121.1
  0
LINE
  8
0
 10
244.074
 20
121.1
 11
253.839
 21
121.1
  0
LINE
  8
0
 10
253.839
 20
121.1
 11
253.839
 21
118
  0
LINE
  8
0
 10
253.839
 20
118
 11
263.204
 21
118
  0
LINE
  8
0
 10
263.204
 20
118
 11
263.204
 21
121.1
  0
LINE
  8
0
 10
263.204
 20
121.1
 11
272.97
 21
121.1
  0
LINE
  8
0
 10
272.97
 20
121.1
 11
272.97
 21
118
  0
LINE
  8
0
 10
272.97
 20
118
 11
282.335
 21
118
  0
LINE
  8
0
 10
282.335
 20
118
 11
282.335
 21
121.1
  0
LINE
  8
0
 10
282.335
 20
121.1
 11
292
 21
121.1
  0
LINE
  8
0
 10
292
 20
121.1
 11
292
 21
129.7
  0
LINE
  8
0
 10
292
 20
129.7
 11
288.9
 21
129.7
  0
LINE
  8
0
 10
288.9
 20
129.7
 11
288.9
 21
141.7
  0
LINE
  8
0
 10
288.9
 20
141.7
 11
292
 21
141.7
  0
LINE
  8
0
 10
292
 20
141.7
 11
292
 21
153.3
  0
LINE
  8
0
 10
292
 20
153.3
 11
288.9
 21
153.3
  0
LINE
  8
0
 10
288.9
 20
153.3
 11
288.9
 21
165.3
  0
LINE
  8
0
 10
288.9
 20
165.3
 11
292
 21
165.3
  0
LINE
  8
0
 10
292
 20
165.3
 11
292
 21
177
  0
LINE
  8
0
 10
292
 20
177
 11
72
 21
177
  0
LINE
  8
0
 10
72
 20
177
 11
72
 21
165.3
  0
LINE
  8
0
 10
72
 20
165.3
 11
75.1
 21
165.3
  0
LINE
  8
0
 10
75.1
 20
165.3
 11
75.1
 21
153.3
  0
LINE
  8
0
 10
75.1
 20
153.3
 11
72
 21
153.3
  0
LINE
  8
0
 10
72
 20
153.3
 11
72
 21
141.7
  0
LINE
  8
0
 10
72
 20
141.7
 11
75.1
 21
141.7
  0
LINE
  8
0
 10
75.1
 20
141.7
 11
75.1
 21
129.7
  0
LINE
  8
0
 10
75.1
 20
129.7
 11
72
 21
129.7
  0
LINE
  8
0
 10
72
 20
129.7
 11
72
 21
121.1
  0
LINE
  8
0
 10
72
 20
121.1
 11
81.6652
 21
121.1
  0
LINE
  8
0
 10
81.6652
 20
121.1
 11
81.6652
 21
118
  0
LINE
  8
0
 10
81.6652
 20
118
 11
91.0304
 21
118
  0
LINE
  8
0
 10
91.0304
 20
118
 11
91.0304
 21
121.1
  0
LINE
  8
0
 10
216.582
 20
149.022
 11
215.764
 21
149.196
  0
LINE
  8
0
 10
215.764
 20
149.196
 11
215
 21
149.536
  0
LINE
  8
0
 10
215
 20
149.536
 11
214.323
 21
150.027
  0
LINE
  8
0
 10
214.323
 20
150.027
 11
213.764
 21
150.649
  0
LINE
  8
0
 10
213.764
 20
150.649
 11
213.346
 21
151.373
  0
LINE
  8
0
 10
213.346
 20
151.373
 11
213.087
 21
152.168
  0
LINE
  8
0
 10
213.087
 20
152.168
 11
213
 21
153
  0
LINE
  8
0
 10
213
 20
153
 11
213.087
 21
153.832
  0
LINE
  8
0
 10
213.087
 20
153.832
 11
213.346
 21
154.627
  0
LINE
  8
0
 10
213.346
 20
154.627
 11
213.764
 21
155.351
  0
LINE
  8
0
 10
213.764
 20
155.351
 11
214.323
 21
155.973
  0
LINE
  8
0
 10
214.323
 20
155.973
 11
215
 21
156.464
  0
LINE
  8
0
 10
215
 20
156.464
 11
215.764
 21
156.804
  0
LINE
  8
0
 10
215.764
 20
156.804
 11
216.582
 21
156.978
  0
LINE
  8
0
 10
216.582
 20
156.978
 11
217.418
 21
156.978
  0
LINE
  8
0
 10
217.418
 20
156.978
 11
218.236
 21
156.804
  0
LINE
  8
0
 10
218.236
 20
156.804
 11
219
 21
156.464
  0
LINE
  8
0
 10
219
 20
156.464
 11
219.677
 21
155.973
  0
LINE
  8
0
 10
219.677
 20
155.973
 11
220.236
 21
155.351
  0
LINE
  8
0
 10
220.236
 20
155.351
 11
220.654
 21
154.627
  0
LINE
  8
0
 10
220.654
 20
154.627
 11
220.913
 21
153.832
  0
LINE
  8
0
 10
220.913
 20
153.832
 11
221
 21
153
  0
LINE
  8
0
 10
221
 20
153
 11
220.913
 21
152.168
  0
LINE
  8
0
 10
220.913
 20
152.168
 11
220.654
 21
151.373
  0
LINE
  8
0
 10
220.654
 20
151.373
 11
220.236
 21
150.649
  0
LINE
  8
0
 10
220.236
 20
150.649
 11
219.677
 21
150.027
  0
LINE
  8
0
 10
219.677
 20
150.027
 11
219
 21
149.536
  0
LINE
  8
0
 10
219
 20
149.536
 11
218.236
 21
149.196
  0
LINE
  8
0
 10
218.236
 20
149.196
 11
217.418
 21
149.022
  0
LINE
  8
0
 10
217.418
 20
149.022
 11
216.582
 21
149.022
  0
LINE
  8
0
 10
174.582
 20
149.022
 11
173.764
 21
149.196
  0
LINE
  8
0
 10
173.764
 20
149.196
 11
173
 21
149.536
  0
LINE
  8
0
 10
173
 20
149.536
 11
172.323
 21
150.027
  0
LINE
  8
0
 10
172.323
 20
150.027
 11
171.764
 21
150.649
  0
LINE
  8
0
 10
171.764
 20
150.649
 11
171.346
 21
151.373
  0
LINE
  8
0
 10
171.346
 20
151.373
 11
171.087
 21
152.168
  0
LINE
  8
0
 10
171.087
 20
152.168
 11
171
 21
153
  0
LINE
  8
0
 10
171
 20
153
 11
171.087
 21
153.832
  0
LINE
  8
0
 10
171.087
 20
153.832
 11
171.346
 21
154.627
  0
LINE
  8
0
 10
171.346
 20
154.627
 11
171.764
 21
155.351
  0
LINE
  8
0
 10
171.764
 20
155.351
 11
172.323
 21
155.973
  0
LINE
  8
0
 10
172.323
 20
155.973
 11
173
 21
156.464
  0
LINE
  8
0
 10
173
 20
156.464
 11
173.764
 21
156.804
  0
LINE
  8
0
 10
173.764
 20
156.804
 11
174.582
 21
156.978
  0
LINE
  8
0
 10
174.582
 20
156.978
 11
175.418
 21
156.978
  0
LINE
  8
0
 10
175.418
 20
156.978
 11
176.236
 21
156.804
  0
LINE
  8
0
 10
176.236
 20
156.804
 11
177
 21
156.464
  0
LINE
  8
0
 10
177
 20
156.464
 11
177.677
 21
155.973
  0
LINE
  8
0
 10
177.677
 20
155.973
 11
178.236
 21
155.351
  0
LINE
  8
0
 10
178.236
 20
155.351
 11
178.654
 21
154.627
  0
LINE
  8
0
 10
178.654
 20
154.627
 11
178.913
 21
153.832
  0
LINE
  8
0
 10
178.913
 20
153.832
 11
179
 21
153
  0
LINE
  8
0
 10
179
 20
153
 11
178.913
 21
152.168
  0
LINE
  8
0
 10
178.913
 20
152.168
 11
178.654
 21
151.373
  0
LINE
  8
0
 10
178.654
 20
151.373
 11
178.236
 21
150.649
  0
LINE
  8
0
 10
178.236
 20
150.649
 11
177.677
 21
150.027
  0
LINE
  8
0
 10
177.677
 20
150.027
 11
177
 21
149.536
  0
LINE
  8
0
 10
177
 20
149.536
 11
176.236
 21
149.196
  0
LINE
  8
0
 10
176.236
 20
149.196
 11
175.418
 21
149.022
  0
LINE
  8
0
 10
175.418
 20
149.022
 11
174.582
 21
149.022
  0
LINE
  8
0
 10
188.582
 20
149.022
 11
187.764
 21
149.196
  0
LINE
  8
0
 10
187.764
 20
149.196
 11
187
 21
149.536
  0
LINE
  8
0
 10
187
 20
149.536
 11
186.323
 21
150.027
  0
LINE
  8
0
 10
186.323
 20
150.027
 11
185.764
 21
150.649
  0
LINE
  8
0
 10
185.764
 20
150.649
 11
185.346
 21
151.373
  0
LINE
  8
0
 10
185.346
 20
151.373
 11
185.087
 21
152.168
  0
LINE
  8
0
 10
185.087
 20
152.168
 11
185
 21
153
  0
LINE
  8
0
 10
185
 20
153
 11
185.087
 21
153.832
  0
LINE
  8
0
 10
185.087
 20
153.832
 11
185.346
 21
154.627
  0
LINE
  8
0
 10
185.346
 20
154.627
 11
185.764
 21
155.351
  0
LINE
  8
0
 10
185.764
 20
155.351
 11
186.323
 21
155.973
  0
LINE
  8
0
 10
186.323
 20
155.973
 11
187
 21
156.464
  0
LINE
  8
0
 10
187
 20
156.464
 11
187.764
 21
156.804
  0
LINE
  8
0
 10
187.764
 20
156.804
 11
188.582
 21
156.978
  0
LINE
  8
0
 10
188.582
 20
156.978
 11
189.418
 21
156.978
  0
LINE
  8
0
 10
189.418
 20
156.978
 11
190.236
 21
156.804
  0
LINE
  8
0
 10
190.236
 20
156.804
 11
191
 21
156.464
  0
LINE
  8
0
 10
191
 20
156.464
 11
191.677
 21
155.973
  0
LINE
  8
0
 10
191.677
 20
155.973
 11
192.236
 21
155.351
  0
LINE
  8
0
 10
192.236
 20
155.351
 11
192.654
 21
154.627
  0
LINE
  8
0
 10
192.654
 20
154.627
 11
192.913
 21
153.832
  0
LINE
  8
0
 10
192.913
 20
153.832
 11
193
 21
153
  0
LINE
  8
0
 10
193
 20
153
 11
192.913
 21
152.168
  0
LINE
  8
0
 10
192.913
 20
152.168
 11
192.654
 21
151.373
  0
LINE
  8
0
 10
192.654
 20
151.373
 11
192.236
 21
150.649
  0
LINE
  8
0
 10
192.236
 20
150.649
 11
191.677
 21
150.027
  0
LINE
  8
0
 10
191.677
 20
150.027
 11
191
 21
149.536
  0
LINE
  8
0
 10
191
 20
149.536
 11
190.236
 21
149.196
  0
LINE
  8
0
 10
190.236
 20
149.196
 11
189.418
 21
149.022
  0
LINE
  8
0
 10
189.418
 20
149.022
 11
188.582
 21
149.022
  0
LINE
  8
0
 10
202.582
 20
149.022
 11
201.764
 21
149.196
  0
LINE
  8
0
 10
201.764
 20
149.196
 11
201
 21
149.536
  0
LINE
  8
0
 10
201
 20
149.536
 11
200.323
 21
150.027
  0
LINE
  8
0
 10
200.323
 20
150.027
 11
199.764
 21
150.649
  0
LINE
  8
0
 10
199.764
 20
150.649
 11
199.346
 21
151.373
  0
LINE
  8
0
 10
199.346
 20
151.373
 11
199.087
 21
152.168
  0
LINE
  8
0
 10
199.087
 20
152.168
 11
199
 21
153
  0
LINE
  8
0
 10
199
 20
153
 11
199.087
 21
153.832
  0
LINE
  8
0
 10
199.087
 20
153.832
 11
199.346
 21
154.627
  0
LINE
  8
0
 10
199.346
 20
154.627
 11
199.764
 21
155.351
  0
LINE
  8
0
 10
199.764
 20
155.351
 11
200.323
 21
155.973
  0
LINE
  8
0
 10
200.323
 20
155.973
 11
201
 21
156.464
  0
LINE
  8
0
 10
201
 20
156.464
 11
201.764
 21
156.804
  0
LINE
  8
0
 10
201.764
 20
156.804
 11
202.582
 21
156.978
  0
LINE
  8
0
 10
202.582
 20
156.978
 11
203.418
 21
156.978
  0
LINE
  8
0
 10
203.418
 20
156.978
 11
204.236
 21
156.804
  0
LINE
  8
0
 10
204.236
 20
156.804
 11
205
 21
156.464
  0
LINE
  8
0
 10
205
 20
156.464
 11
205.677
 21
155.973
  0
LINE
  8
0
 10
205.677
 20
155.973
 11
206.236
 21
155.351
  0
LINE
  8
0
 10
206.236
 20
155.351
 11
206.654
 21
154.627
  0
LINE
  8
0
 10
206.654
 20
154.627
 11
206.913
 21
153.832
  0
LINE
  8
0
 10
206.913
 20
153.832
 11
207
 21
153
  0
LINE
  8
0
 10
207
 20
153
 11
206.913
 21
152.168
  0
LINE
  8
0
 10
206.913
 20
152.168
 11
206.654
 21
151.373
  0
LINE
  8
0
 10
206.654
 20
151.373
 11
206.236
 21
150.649
  0
LINE
  8
0
 10
206.236
 20
150.649
 11
205.677
 21
150.027
  0
LINE
  8
0
 10
205.677
 20
150.027
 11
205
 21
149.536
  0
LINE
  8
0
 10
205
 20
149.536
 11
204.236
 21
149.196
  0
LINE
  8
0
 10
204.236
 20
149.196
 11
203.418
 21
149.022
  0
LINE
  8
0
 10
203.418
 20
149.022
 11
202.582
 21
149.022
  0
LINE
  8
0
 10
174.582
 20
124.022
 11
173.764
 21
124.196
  0
LINE
  8
0
 10
173.764
 20
124.196
 11
173
 21
124.536
  0
LINE
  8
0
 10
173
 20
124.536
 11
172.323
 21
125.027
  0
LINE
  8
0
 10
172.323
 20
125.027
 11
171.764
 21
125.649
  0
LINE
  8
0
 10
171.764
 20
125.649
 11
171.346
 21
126.373
  0
LINE
  8
0
 10
171.346
 20
126.373
 11
171.087
 21
127.168
  0
LINE
  8
0
 10
171.087
 20
127.168
 11
171
 21
128
  0
LINE
  8
0
 10
171
 20
128
 11
171.087
 21
128.832
  0
LINE
  8
0
 10
171.087
 20
128.832
 11
171.346
 21
129.627
  0
LINE
  8
0
 10
171.346
 20
129.627
 11
171.764
 21
130.351
  0
LINE
  8
0
 10
171.764
 20
130.351
 11
172.323
 21
130.973
  0
LINE
  8
0
 10
172.323
 20
130.973
 11
173
 21
131.464
  0
LINE
  8
0
 10
173
 20
131.464
 11
173.764
 21
131.804
  0
LINE
  8
0
 10
173.764
 20
131.804
 11
174.582
 21
131.978
  0
LINE
  8
0
 10
174.582
 20
131.978
 11
175.418
 21
131.978
  0
LINE
  8
0
 10
175.418
 20
131.978
 11
176.236
 21
131.804
  0
LINE
  8
0
 10
176.236
 20
131.804
 11
177
 21
131.464
  0
LINE
  8
0
 10
177
 20
131.464
 11
177.677
 21
130.973
  0
LINE
  8
0
 10
177.677
 20
130.973
 11
178.236
 21
130.351
  0
LINE
  8
0
 10
178.236
 20
130.351
 11
178.654
 21
129.627
  0
LINE
  8
0
 10
178.654
 20
129.627
 11
178.913
 21
128.832
  0
LINE
  8
0
 10
178.913
 20
128.832
 11
179
 21
128
  0
LINE
  8
0
 10
179
 20
128
 11
178.913
 21
127.168
  0
LINE
  8
0
 10
178.913
 20
127.168
 11
178.654
 21
126.373
  0
LINE
  8
0
 10
178.654
 20
126.373
 11
178.236
 21
125.649
  0
LINE
  8
0
 10
178.236
 20
125.649
 11
177.677
 21
125.027
  0
LINE
  8
0
 10
177.677
 20
125.027
 11
177
 21
124.536
  0
LINE
  8
0
 10
177
 20
124.536
 11
176.236
 21
124.196
  0
LINE
  8
0
 10
176.236
 20
124.196
 11
175.418
 21
124.022
  0
LINE
  8
0
 10
175.418
 20
124.022
 11
174.582
 21
124.022
  0
LINE
  8
0
 10
188.582
 20
124.022
 11
187.764
 21
124.196
  0
LINE
  8
0
 10
187.764
 20
124.196
 11
187
 21
124.536
  0
LINE
  8
0
 10
187
 20
124.536
 11
186.323
 21
125.027
  0
LINE
  8
0
 10
186.323
 20
125.027
 11
185.764
 21
125.649
  0
LINE
  8
0
 10
185.764
 20
125.649
 11
185.346
 21
126.373
  0
LINE
  8
0
 10
185.346
 20
126.373
 11
185.087
 21
127.168
  0
LINE
  8
0
 10
185.087
 20
127.168
 11
185
 21
128
  0
LINE
  8
0
 10
185
 20
128
 11
185.087
 21
128.832
  0
LINE
  8
0
 10
185.087
 20
128.832
 11
185.346
 21
129.627
  0
LINE
  8
0
 10
185.346
 20
129.627
 11
185.764
 21
130.351
  0
LINE
  8
0
 10
185.764
 20
130.351
 11
186.323
 21
130.973
  0
LINE
  8
0
 10
186.323
 20
130.973
 11
187
 21
131.464
  0
LINE
  8
0
 10
187
 20
131.464
 11
187.764
 21
131.804
  0
LINE
  8
0
 10
187.764
 20
131.804
 11
188.582
 21
131.978
  0
LINE
  8
0
 10
188.582
 20
131.978
 11
189.418
 21
131.978
  0
LINE
  8
0
 10
189.418
 20
131.978
 11
190.236
 21
131.804
  0
LINE
  8
0
 10
190.236
 20
131.804
 11
191
 21
131.464
  0
LINE
  8
0
 10
191
 20
131.464
 11
191.677
 21
130.973
  0
LINE
  8
0
 10
191.677
 20
130.973
 11
192.236
 21
130.351
  0
LINE
  8
0
 10
192.236
 20
130.351
 11
192.654
 21
129.627
  0
LINE
  8
0
 10
192.654
 20
129.627
 11
192.913
 21
128.832
  0
LINE
  8
0
 10
192.913
 20
128.832
 11
193
 21
128
  0
LINE
  8
0
 10
193
 20
128
 11
192.913
 21
127.168
  0
LINE
  8
0
 10
192.913
 20
127.168
 11
192.654
 21
126.373
  0
LINE
  8
0
 10
192.654
 20
126.373
 11
192.236
 21
125.649
  0
LINE
  8
0
 10
192.236
 20
125.649
 11
191.677
 21
125.027
  0
LINE
  8
0
 10
191.677
 20
125.027
 11
191
 21
124.536
  0
LINE
  8
0
 10
191
 20
124.536
 11
190.236
 21
124.196
  0
LINE
  8
0
 10
190.236
 20
124.196
 11
189.418
 21
124.022
  0
LINE
  8
0
 10
189.418
 20
124.022
 11
188.582
 21
124.022
  0
LINE
  8
0
 10
202.582
 20
124.022
 11
201.764
 21
124.196
  0
LINE
  8
0
 10
201.764
 20
124.196
 11
201
 21
124.536
  0
LINE
  8
0
 10
201
 20
124.536
 11
200.323
 21
125.027
  0
LINE
  8
0
 10
200.323
 20
125.027
 11
199.764
 21
125.649
  0
LINE
  8
0
 10
199.764
 20
125.649
 11
199.346
 21
126.373
  0
LINE
  8
0
 10
199.346
 20
126.373
 11
199.087
 21
127.168
  0
LINE
  8
0
 10
199.087
 20
127.168
 11
199
 21
128
  0
LINE
  8
0
 10
199
 20
128
 11
199.087
 21
128.832
  0
LINE
  8
0
 10
199.087
 20
128.832
 11
199.346
 21
129.627
  0
LINE
  8
0
 10
199.346
 20
129.627
 11
199.764
 21
130.351
  0
LINE
  8
0
 10
199.764
 20
130.351
 11
200.323
 21
130.973
  0
LINE
  8
0
 10
200.323
 20
130.973
 11
201
 21
131.464
  0
LINE
  8
0
 10
201
 20
131.464
 11
201.764
 21
131.804
  0
LINE
  8
0
 10
201.764
 20
131.804
 11
202.582
 21
131.978
  0
LINE
  8
0
 10
202.582
 20
131.978
 11
203.418
 21
131.978
  0
LINE
  8
0
 10
203.418
 20
131.978
 11
204.236
 21
131.804
  0
LINE
  8
0
 10
204.236
 20
131.804
 11
205
 21
131.464
  0
LINE
  8
0
 10
205
 20
131.464
 11
205.677
 21
130.973
  0
LINE
  8
0
 10
205.677
 20
130.973
 11
206.236
 21
130.351
  0
LINE
  8
0
 10
206.236
 20
130.351
 11
206.654
 21
129.627
  0
LINE
  8
0
 10
206.654
 20
129.627
 11
206.913
 21
128.832
  0
LINE
  8
0
 10
206.913
 20
128.832
 11
207
 21
128
  0
LINE
  8
0
 10
207
 20
128
 11
206.913
 21
127.168
  0
LINE
  8
0
 10
206.913
 20
127.168
 11
206.654
 21
126.373
  0
LINE
  8
0
 10
206.654
 20
126.373
 11
206.236
 21
125.649
  0
LINE
  8
0
 10
206.236
 20
125.649
 11
205.677
 21
125.027
  0
LINE
  8
0
 10
205.677
 20
125.027
 11
205
 21
124.536
  0
LINE
  8
0
 10
205
 20
124.536
 11
204.236
 21
124.196
  0
LINE
  8
0
 10
204.236
 20
124.196
 11
203.418
 21
124.022
  0
LINE
  8
0
 10
203.418
 20
124.022
 11
202.582
 21
124.022
  0
LINE
  8
0
 10
216.582
 20
124.022
 11
215.764
 21
124.196
  0
LINE
  8
0
 10
215.764
 20
124.196
 11
215
 21
124.536
  0
LINE
  8
0
 10
215
 20
124.536
 11
214.323
 21
125.027
  0
LINE
  8
0
 10
214.323
 20
125.027
 11
213.764
 21
125.649
  0
LINE
  8
0
 10
213.764
 20
125.649
 11
213.346
 21
126.373
  0
LINE
  8
0
 10
213.346
 20
126.373
 11
213.087
 21
127.168
  0
LINE
  8
0
 10
213.087
 20
127.168
 11
213
 21
128
  0
LINE
  8
0
 10
213
 20
128
 11
213.087
 21
128.832
  0
LINE
  8
0
 10
213.087
 20
128.832
 11
213.346
 21
129.627
  0
LINE
  8
0
 10
213.346
 20
129.627
 11
213.764
 21
130.351
  0
LINE
  8
0
 10
213.764
 20
130.351
 11
214.323
 21
130.973
  0
LINE
  8
0
 10
214.323
 20
130.973
 11
215
 21
131.464
  0
LINE
  8
0
 10
215
 20
131.464
 11
215.764
 21
131.804
  0
LINE
  8
0
 10
215.764
 20
131.804
 11
216.582
 21
131.978
  0
LINE
  8
0
 10
216.582
 20
131.978
 11
217.418
 21
131.978
  0
LINE
  8
0
 10
217.418
 20
131.978
 11
218.236
 21
131.804
  0
LINE
  8
0
 10
218.236
 20
131.804
 11
219
 21
131.464
  0
LINE
  8
0
 10
219
 20
131.464
 11
219.677
 21
130.973
  0
LINE
  8
0
 10
219.677
 20
130.973
 11
220.236
 21
130.351
  0
LINE
  8
0
 10
220.236
 20
130.351
 11
220.654
 21
129.627
  0
LINE
  8
0
 10
220.654
 20
129.627
 11
220.913
 21
128.832
  0
LINE
  8
0
 10
220.913
 20
128.832
 11
221
 21
128
  0
LINE
  8
0
 10
221
 20
128
 11
220.913
 21
127.168
  0
LINE
  8
0
 10
220.913
 20
127.168
 11
220.654
 21
126.373
  0
LINE
  8
0
 10
220.654
 20
126.373
 11
220.236
 21
125.649
  0
LINE
  8
0
 10
220.236
 20
125.649
 11
219.677
 21
125.027
  0
LINE
  8
0
 10
219.677
 20
125.027
 11
219
 21
124.536
  0
LINE
  8
0
 10
219
 20
124.536
 11
218.236
 21
124.196
  0
LINE
  8
0
 10
218.236
 20
124.196
 11
217.418
 21
124.022
  0
LINE
  8
0
 10
217.418
 20
124.022
 11
216.582
 21
124.022
  0
LINE
  8
0
 10
-162.1
 20
121.1
 11
-151.9
 21
121.1
  0
LINE
  8
0
 10
-151.9
 20
121.1
 11
-151.9
 21
118
  0
LINE
  8
0
 10
-151.9
 20
118
 11
-142.1
 21
118
  0
LINE
  8
0
 10
-142.1
 20
118
 11
-142.1
 21
121.1
  0
LINE
  8
0
 10
-142.1
 20
121.1
 11
-131.9
 21
121.1
  0
LINE
  8
0
 10
-131.9
 20
121.1
 11
-131.9
 21
118
  0
LINE
  8
0
 10
-131.9
 20
118
 11
-122.1
 21
118
  0
LINE
  8
0
 10
-122.1
 20
118
 11
-122.1
 21
121.1
  0
LINE
  8
0
 10
-122.1
 20
121.1
 11
-111.9
 21
121.1
  0
LINE
  8
0
 10
-111.9
 20
121.1
 11
-111.9
 21
118
  0
LINE
  8
0
 10
-111.9
 20
118
 11
-102.1
 21
118
  0
LINE
  8
0
 10
-102.1
 20
118
 11
-102.1
 21
121.1
  0
LINE
  8
0
 10
-102.1
 20
121.1
 11
-91.9
 21
121.1
  0
LINE
  8
0
 10
-91.9
 20
121.1
 11
-91.9
 21
118
  0
LINE
  8
0
 10
-91.9
 20
118
 11
-82.1
 21
118
  0
LINE
  8
0
 10
-82.1
 20
118
 11
-82.1
 21
121.1
  0
LINE
  8
0
 10
-82.1
 20
121.1
 11
-71.9
 21
121.1
  0
LINE
  8
0
 10
-71.9
 20
121.1
 11
-71.9
 21
118
  0
LINE
  8
0
 10
-71.9
 20
118
 11
-62.1
 21
118
  0
LINE
  8
0
 10
-62.1
 20
118
 11
-62.1
 21
121.1
  0
LINE
  8
0
 10
-62.1
 20
121.1
 11
-51.9
 21
121.1
  0
LINE
  8
0
 10
-51.9
 20
121.1
 11
-51.9
 21
118
  0
LINE
  8
0
 10
-51.9
 20
118
 11
-42.1
 21
118
  0
LINE
  8
0
 10
-42.1
 20
118
 11
-42.1
 21
121.1
  0
LINE
  8
0
 10
-42.1
 20
121.1
 11
-31.9
 21
121.1
  0
LINE
  8
0
 10
-31.9
 20
121.1
 11
-31.9
 21
118
  0
LINE
  8
0
 10
-31.9
 20
118
 11
-22.1
 21
118
  0
LINE
  8
0
 10
-22.1
 20
118
 11
-22.1
 21
121.1
  0
LINE
  8
0
 10
-22.1
 20
121.1
 11
-11.9
 21
121.1
  0
LINE
  8
0
 10
-11.9
 20
121.1
 11
-11.9
 21
118
  0
LINE
  8
0
 10
-11.9
 20
118
 11
-2.10001
 21
118
  0
LINE
  8
0
 10
-2.10001
 20
118
 11
-2.10001
 21
121.1
  0
LINE
  8
0
 10
-2.10001
 20
121.1
 11
8.09999
 21
121.1
  0
LINE
  8
0
 10
8.09999
 20
121.1
 11
8.09999
 21
118
  0
LINE
  8
0
 10
8.09999
 20
118
 11
17.9
 21
118
  0
LINE
  8
0
 10
17.9
 20
118
 11
17.9
 21
121.1
  0
LINE
  8
0
 10
17.9
 20
121.1
 11
28.1
 21
121.1
  0
LINE
  8
0
 10
28.1
 20
121.1
 11
28.1
 21
118
  0
LINE
  8
0
 10
28.1
 20
118
 11
37.9
 21
118
  0
LINE
  8
0
 10
37.9
 20
118
 11
37.9
 21
121.1
  0
LINE
  8
0
 10
37.9
 20
121.1
 11
48.1
 21
121.1
  0
LINE
  8
0
 10
48.1
 20
121.1
 11
48.1
 21
118
  0
LINE
  8
0
 10
48.1
 20
118
 11
57.9
 21
118
  0
LINE
  8
0
 10
57.9
 20
118
 11
57.9
 21
121.1
  0
LINE
  8
0
 10
57.9
 20
121.1
 11
64.9
 21
121.1
  0
LINE
  8
0
 10
64.9
 20
121.1
 11
64.9
 21
129.9
  0
LINE
  8
0
 10
64.9
 20
129.9
 11
68
 21
129.9
  0
LINE
  8
0
 10
68
 20
129.9
 11
68
 21
141.5
  0
LINE
  8
0
 10
68
 20
141.5
 11
64.9
 21
141.5
  0
LINE
  8
0
 10
64.9
 20
141.5
 11
64.9
 21
153.5
  0
LINE
  8
0
 10
64.9
 20
153.5
 11
68
 21
153.5
  0
LINE
  8
0
 10
68
 20
153.5
 11
68
 21
165.1
  0
LINE
  8
0
 10
68
 20
165.1
 11
64.9
 21
165.1
  0
LINE
  8
0
 10
64.9
 20
165.1
 11
64.9
 21
177
  0
LINE
  8
0
 10
64.9
 20
177
 11
-178.9
 21
177
  0
LINE
  8
0
 10
-178.9
 20
177
 11
-178.9
 21
165.1
  0
LINE
  8
0
 10
-178.9
 20
165.1
 11
-182
 21
165.1
  0
LINE
  8
0
 10
-182
 20
165.1
 11
-182
 21
153.5
  0
LINE
  8
0
 10
-182
 20
153.5
 11
-178.9
 21
153.5
  0
LINE
  8
0
 10
-178.9
 20
153.5
 11
-178.9
 21
141.5
  0
LINE
  8
0
 10
-178.9
 20
141.5
 11
-182
 21
141.5
  0
LINE
  8
0
 10
-182
 20
141.5
 11
-182
 21
129.9
  0
LINE
  8
0
 10
-182
 20
129.9
 11
-178.9
 21
129.9
  0
LINE
  8
0
 10
-178.9
 20
129.9
 11
-178.9
 21
121.1
  0
LINE
  8
0
 10
-178.9
 20
121.1
 11
-171.9
 21
121.1
  0
LINE
  8
0
 10
-171.9
 20
121.1
 11
-171.9
 21
118
  0
LINE
  8
0
 10
-171.9
 20
118
 11
-162.1
 21
118
  0
LINE
  8
0
 10
-162.1
 20
118
 11
-162.1
 21
121.1
  0
LINE
  8
0
 10
-41
 20
156
 11
-41
 21
170
  0
LINE
  8
0
 10
-41
 20
170
 11
-25
 21
170
  0
LINE
  8
0
 10
-25
 20
170
 11
-25
 21
156
  0
LINE
  8
0
 10
-25
 20
156
 11
-41
 21
156
  0
LINE
  8
0
 10
-89
 20
156
 11
-89
 21
170
  0
LINE
  8
0
 10
-89
 20
170
 11
-73
 21
170
  0
LINE
  8
0
 10
-73
 20
170
 11
-73
 21
156
  0
LINE
  8
0
 10
-73
 20
156
 11
-89
 21
156
  0
LINE
  8
0
 10
-61
 20
156
 11
-61
 21
162
  0
LINE
  8
0
 10
-61
 20
162
 11
-53
 21
162
  0
LINE
  8
0
 10
-53
 20
162
 11
-53
 21
156
  0
LINE
  8
0
 10
-53
 20
156
 11
-61
 21
156
  0
LINE
  8
0
 10
-115.1
 20
-106.9
 11
-104.9
 21
-106.9
  0
LINE
  8
0
 10
-104.9
 20
-106.9
 11
-104.9
 21
-110
  0
LINE
  8
0
 10
-104.9
 20
-110
 11
-95.1
 21
-110
  0
LINE
  8
0
 10
-95.1
 20
-110
 11
-95.1
 21
-106.9
  0
LINE
  8
0
 10
-95.1
 20
-106.9
 11
-84.9
 21
-106.9
  0
LINE
  8
0
 10
-84.9
 20
-106.9
 11
-84.9
 21
-110
  0
LINE
  8
0
 10
-84.9
 20
-110
 11
-75.1
 21
-110
  0
LINE
  8
0
 10
-75.1
 20
-110
 11
-75.1
 21
-106.9
  0
LINE
  8
0
 10
-75.1
 20
-106.9
 11
-64.9
 21
-106.9
  0
LINE
  8
0
 10
-64.9
 20
-106.9
 11
-64.9
 21
-110
  0
LINE
  8
0
 10
-64.9
 20
-110
 11
-55.1
 21
-110
  0
LINE
  8
0
 10
-55.1
 20
-110
 11
-55.1
 21
-106.9
  0
LINE
  8
0
 10
-55.1
 20
-106.9
 11
-44.9
 21
-106.9
  0
LINE
  8
0
 10
-44.9
 20
-106.9
 11
-44.9
 21
-110
  0
LINE
  8
0
 10
-44.9
 20
-110
 11
-35.1
 21
-110
  0
LINE
  8
0
 10
-35.1
 20
-110
 11
-35.1
 21
-106.9
  0
LINE
  8
0
 10
-35.1
 20
-106.9
 11
-24.9
 21
-106.9
  0
LINE
  8
0
 10
-24.9
 20
-106.9
 11
-24.9
 21
-110
  0
LINE
  8
0
 10
-24.9
 20
-110
 11
-15.1
 21
-110
  0
LINE
  8
0
 10
-15.1
 20
-110
 11
-15.1
 21
-106.9
  0
LINE
  8
0
 10
-15.1
 20
-106.9
 11
-4.90001
 21
-106.9
  0
LINE
  8
0
 10
-4.90001
 20
-106.9
 11
-4.90001
 21
-110
  0
LINE
  8
0
 10
-4.90001
 20
-110
 11
4.89999
 21
-110
  0
LINE
  8
0
 10
4.89999
 20
-110
 11
4.89999
 21
-106.9
  0
LINE
  8
0
 10
4.89999
 20
-106.9
 11
15.1
 21
-106.9
  0
LINE
  8
0
 10
15.1
 20
-106.9
 11
15.1
 21
-110
  0
LINE
  8
0
 10
15.1
 20
-110
 11
24.9
 21
-110
  0
LINE
  8
0
 10
24.9
 20
-110
 11
24.9
 21
-106.9
  0
LINE
  8
0
 10
24.9
 20
-106.9
 11
35.1
 21
-106.9
  0
LINE
  8
0
 10
35.1
 20
-106.9
 11
35.1
 21
-110
  0
LINE
  8
0
 10
35.1
 20
-110
 11
44.9
 21
-110
  0
LINE
  8
0
 10
44.9
 20
-110
 11
44.9
 21
-106.9
  0
LINE
  8
0
 10
44.9
 20
-106.9
 11
55.1
 21
-106.9
  0
LINE
  8
0
 10
55.1
 20
-106.9
 11
55.1
 21
-110
  0
LINE
  8
0
 10
55.1
 20
-110
 11
64.9
 21
-110
  0
LINE
  8
0
 10
64.9
 20
-110
 11
64.9
 21
-106.9
  0
LINE
  8
0
 10
64.9
 20
-106.9
 11
75.1
 21
-106.9
  0
LINE
  8
0
 10
75.1
 20
-106.9
 11
75.1
 21
-110
  0
LINE
  8
0
 10
75.1
 20
-110
 11
84.9
 21
-110
  0
LINE
  8
0
 10
84.9
 20
-110
 11
84.9
 21
-106.9
  0
LINE
  8
0
 10
84.9
 20
-106.9
 11
95.1
 21
-106.9
  0
LINE
  8
0
 10
95.1
 20
-106.9
 11
95.1
 21
-110
  0
LINE
  8
0
 10
95.1
 20
-110
 11
104.9
 21
-110
  0
LINE
  8
0
 10
104.9
 20
-110
 11
104.9
 21
-106.9
  0
LINE
  8
0
 10
104.9
 20
-106.9
 11
115.1
 21
-106.9
  0
LINE
  8
0
 10
115.1
 20
-106.9
 11
115.1
 21
-110
  0
LINE
  8
0
 10
115.1
 20
-110
 11
125
 21
-110
  0
LINE
  8
0
 10
125
 20
-110
 11
125
 21
-100.535
  0
LINE
  8
0
 10
125
 20
-100.535
 11
121.9
 21
-100.535
  0
LINE
  8
0
 10
121.9
 20
-100.535
 11
121.9
 21
-90.7696
  0
LINE
  8
0
 10
121.9
 20
-90.7696
 11
125
 21
-90.7696
  0
LINE
  8
0
 10
125
 20
-90.7696
 11
125
 21
-81.4044
  0
LINE
  8
0
 10
125
 20
-81.4044
 11
121.9
 21
-81.4044
  0
LINE
  8
0
 10
121.9
 20
-81.4044
 11
121.9
 21
-71.6391
  0
LINE
  8
0
 10
121.9
 20
-71.6391
 11
125
 21
-71.6391
  0
LINE
  8
0
 10
125
 20
-71.6391
 11
125
 21
-62.2739
  0
LINE
  8
0
 10
125
 20
-62.2739
 11
121.9
 21
-62.2739
  0
LINE
  8
0
 10
121.9
 20
-62.2739
 11
121.9
 21
-52.5087
  0
LINE
  8
0
 10
121.9
 20
-52.5087
 11
125
 21
-52.5087
  0
LINE
  8
0
 10
125
 20
-52.5087
 11
125
 21
-43.1435
  0
LINE
  8
0
 10
125
 20
-43.1435
 11
121.9
 21
-43.1435
  0
LINE
  8
0
 10
121.9
 20
-43.1435
 11
121.9
 21
-33.3783
  0
LINE
  8
0
 10
121.9
 20
-33.3783
 11
125
 21
-33.3783
  0
LINE
  8
0
 10
125
 20
-33.3783
 11
125
 21
-24.013
  0
LINE
  8
0
 10
125
 20
-24.013
 11
121.9
 21
-24.013
  0
LINE
  8
0
 10
121.9
 20
-24.013
 11
121.9
 21
-14.2478
  0
LINE
  8
0
 10
121.9
 20
-14.2478
 11
125
 21
-14.2478
  0
LINE
  8
0
 10
125
 20
-14.2478
 11
125
 21
-10
  0
LINE
  8
0
 10
125
 20
-10
 11
140
 21
-10
  0
LINE
  8
0
 10
140
 20
-10
 11
140
 21
10
  0
LINE
  8
0
 10
140
 20
10
 11
125
 21
10
  0
LINE
  8
0
 10
125
 20
10
 11
125
 21
14.2478
  0
LINE
  8
0
 10
125
 20
14.2478
 11
121.9
 21
14.2478
  0
LINE
  8
0
 10
121.9
 20
14.2478
 11
121.9
 21
24.013
  0
LINE
  8
0
 10
121.9
 20
24.013
 11
125
 21
24.013
  0
LINE
  8
0
 10
125
 20
24.013
 11
125
 21
33.3783
  0
LINE
  8
0
 10
125
 20
33.3783
 11
121.9
 21
33.3783
  0
LINE
  8
0
 10
121.9
 20
33.3783
 11
121.9
 21
43.1435
  0
LINE
  8
0
 10
121.9
 20
43.1435
 11
125
 21
43.1435
  0
LINE
  8
0
 10
125
 20
43.1435
 11
125
 21
52.5087
  0
LINE
  8
0
 10
125
 20
52.5087
 11
121.9
 21
52.5087
  0
LINE
  8
0
 10
121.9
 20
52.5087
 11
121.9
 21
62.2739
  0
LINE
  8
0
 10
121.9
 20
62.2739
 11
125
 21
62.2739
  0
LINE
  8
0
 10
125
 20
62.2739
 11
125
 21
71.6391
  0
LINE
  8
0
 10
125
 20
71.6391
 11
121.9
 21
71.6391
  0
LINE
  8
0
 10
121.9
 20
71.6391
 11
121.9
 21
81.4043
  0
LINE
  8
0
 10
121.9
 20
81.4043
 11
125
 21
81.4043
  0
LINE
  8
0
 10
125
 20
81.4043
 11
125
 21
90.7696
  0
LINE
  8
0
 10
125
 20
90.7696
 11
121.9
 21
90.7696
  0
LINE
  8
0
 10
121.9
 20
90.7696
 11
121.9
 21
100.535
  0
LINE
  8
0
 10
121.9
 20
100.535
 11
125
 21
100.535
  0
LINE
  8
0
 10
125
 20
100.535
 11
125
 21
110
  0
LINE
  8
0
 10
125
 20
110
 11
115.1
 21
110
  0
LINE
  8
0
 10
115.1
 20
110
 11
115.1
 21
106.9
  0
LINE
  8
0
 10
115.1
 20
106.9
 11
104.9
 21
106.9
  0
LINE
  8
0
 10
104.9
 20
106.9
 11
104.9
 21
110
  0
LINE
  8
0
 10
104.9
 20
110
 11
95.1
 21
110
  0
LINE
  8
0
 10
95.1
 20
110
 11
95.1
 21
106.9
  0
LINE
  8
0
 10
95.1
 20
106.9
 11
84.9
 21
106.9
  0
LINE
  8
0
 10
84.9
 20
106.9
 11
84.9
 21
110
  0
LINE
  8
0
 10
84.9
 20
110
 11
75.1
 21
110
  0
LINE
  8
0
 10
75.1
 20
110
 11
75.1
 21
106.9
  0
LINE
  8
0
 10
75.1
 20
106.9
 11
64.9
 21
106.9
  0
LINE
  8
0
 10
64.9
 20
106.9
 11
64.9
 21
110
  0
LINE
  8
0
 10
64.9
 20
110
 11
55.1
 21
110
  0
LINE
  8
0
 10
55.1
 20
110
 11
55.1
 21
106.9
  0
LINE
  8
0
 10
55.1
 20
106.9
 11
44.9
 21
106.9
  0
LINE
  8
0
 10
44.9
 20
106.9
 11
44.9
 21
110
  0
LINE
  8
0
 10
44.9
 20
110
 11
35.1
 21
110
  0
LINE
  8
0
 10
35.1
 20
110
 11
35.1
 21
106.9
  0
LINE
  8
0
 10
35.1
 20
106.9
 11
24.9
 21
106.9
  0
LINE
  8
0
 10
24.9
 20
106.9
 11
24.9
 21
110
  0
LINE
  8
0
 10
24.9
 20
110
 11
15.1
 21
110
  0
LINE
  8
0
 10
15.1
 20
110
 11
15.1
 21
106.9
  0
LINE
  8
0
 10
15.1
 20
106.9
 11
4.89999
 21
106.9
  0
LINE
  8
0
 10
4.89999
 20
106.9
 11
4.89999
 21
110
  0
LINE
  8
0
 10
4.89999
 20
110
 11
-4.90001
 21
110
  0
LINE
  8
0
 10
-4.90001
 20
110
 11
-4.90001
 21
106.9
  0
LINE
  8
0
 10
-4.90001
 20
106.9
 11
-15.1
 21
106.9
  0
LINE
  8
0
 10
-15.1
 20
106.9
 11
-15.1
 21
110
  0
LINE
  8
0
 10
-15.1
 20
110
 11
-24.9
 21
110
  0
LINE
  8
0
 10
-24.9
 20
110
 11
-24.9
 21
106.9
  0
LINE
  8
0
 10
-24.9
 20
106.9
 11
-35.1
 21
106.9
  0
LINE
  8
0
 10
-35.1
 20
106.9
 11
-35.1
 21
110
  0
LINE
  8
0
 10
-35.1
 20
110
 11
-44.9
 21
110
  0
LINE
  8
0
 10
-44.9
 20
110
 11
-44.9
 21
106.9
  0
LINE
  8
0
 10
-44.9
 20
106.9
 11
-55.1
 21
106.9
  0
LINE
  8
0
 10
-55.1
 20
106.9
 11
-55.1
 21
110
  0
LINE
  8
0
 10
-55.1
 20
110
 11
-64.9
 21
110
  0
LINE
  8
0
 10
-64.9
 20
110
 11
-64.9
 21
106.9
  0
LINE
  8
0
 10
-64.9
 20
106.9
 11
-75.1
 21
106.9
  0
LINE
  8
0
 10
-75.1
 20
106.9
 11
-75.1
 21
110
  0
LINE
  8
0
 10
-75.1
 20
110
 11
-84.9
 21
110
  0
LINE
  8
0
 10
-84.9
 20
110
 11
-84.9
 21
106.9
  0
LINE
  8
0
 10
-84.9
 20
106.9
 11
-95.1
 21
106.9
  0
LINE
  8
0
 10
-95.1
 20
106.9
 11
-95.1
 21
110
  0
LINE
  8
0
 10
-95.1
 20
110
 11
-104.9
 21
110
  0
LINE
  8
0
 10
-104.9
 20
110
 11
-104.9
 21
106.9
  0
LINE
  8
0
 10
-104.9
 20
106.9
 11
-115.1
 21
106.9
  0
LINE
  8
0
 10
-115.1
 20
106.9
 11
-115.1
 21
110
  0
LINE
  8
0
 10
-115.1
 20
110
 11
-125
 21
110
  0
LINE
  8
0
 10
-125
 20
110
 11
-125
 21
100.535
  0
LINE
  8
0
 10
-125
 20
100.535
 11
-121.9
 21
100.535
  0
LINE
  8
0
 10
-121.9
 20
100.535
 11
-121.9
 21
90.7696
  0
LINE
  8
0
 10
-121.9
 20
90.7696
 11
-125
 21
90.7696
  0
LINE
  8
0
 10
-125
 20
90.7696
 11
-125
 21
81.4043
  0
LINE
  8
0
 10
-125
 20
81.4043
 11
-121.9
 21
81.4043
  0
LINE
  8
0
 10
-121.9
 20
81.4043
 11
-121.9
 21
71.6391
  0
LINE
  8
0
 10
-121.9
 20
71.6391
 11
-125
 21
71.6391
  0
LINE
  8
0
 10
-125
 20
71.6391
 11
-125
 21
62.2739
  0
LINE
  8
0
 10
-125
 20
62.2739
 11
-121.9
 21
62.2739
  0
LINE
  8
0
 10
-121.9
 20
62.2739
 11
-121.9
 21
52.5087
  0
LINE
  8
0
 10
-121.9
 20
52.5087
 11
-125
 21
52.5087
  0
LINE
  8
0
 10
-125
 20
52.5087
 11
-125
 21
43.1435
  0
LINE
  8
0
 10
-125
 20
43.1435
 11
-121.9
 21
43.1435
  0
LINE
  8
0
 10
-121.9
 20
43.1435
 11
-121.9
 21
33.3783
  0
LINE
  8
0
 10
-121.9
 20
33.3783
 11
-125
 21
33.3783
  0
LINE
  8
0
 10
-125
 20
33.3783
 11
-125
 21
24.013
  0
LINE
  8
0
 10
-125
 20
24.013
 11
-121.9
 21
24.013
  0
LINE
  8
0
 10
-121.9
 20
24.013
 11
-121.9
 21
14.2478
  0
LINE
  8
0
 10
-121.9
 20
14.2478
 11
-125
 21
14.2478
  0
LINE
  8
0
 10
-125
 20
14.2478
 11
-125
 21
10
  0
LINE
  8
0
 10
-125
 20
10
 11
-140
 21
10
  0
LINE
  8
0
 10
-140
 20
10
 11
-140
 21
-10
  0
LINE
  8
0
 10
-140
 20
-10
 11
-125
 21
-10
  0
LINE
  8
0
 10
-125
 20
-10
 11
-125
 21
-14.2478
  0
LINE
  8
0
 10
-125
 20
-14.2478
 11
-121.9
 21
-14.2478
  0
LINE
  8
0
 10
-121.9
 20
-14.2478
 11
-121.9
 21
-24.013
  0
LINE
  8
0
 10
-121.9
 20
-24.013
 11
-125
 21
-24.013
  0
LINE
  8
0
 10
-125
 20
-24.013
 11
-125
 21
-33.3783
  0
LINE
  8
0
 10
-125
 20
-33.3783
 11
-121.9
 21
-33.3783
  0
LINE
  8
0
 10
-121.9
 20
-33.3783
 11
-121.9
 21
-43.1435
  0
LINE
  8
0
 10
-121.9
 20
-43.1435
 11
-125
 21
-43.1435
  0
LINE
  8
0
 10
-125
 20
-43.1435
 11
-125
 21
-52.5087
  0
LINE
  8
0
 10
-125
 20
-52.5087
 11
-121.9
 21
-52.5087
  0
LINE
  8
0
 10
-121.9
 20
-52.5087
 11
-121.9
 21
-62.2739
  0
LINE
  8
0
 10
-121.9
 20
-62.2739
 11
-125
 21
-62.2739
  0
LINE
  8
0
 10
-125
 20
-62.2739
 11
-125
 21
-71.6391
  0
LINE
  8
0
 10
-125
 20
-71.6391
 11
-121.9
 21
-71.6391
  0
LINE
  8
0
 10
-121.9
 20
-71.6391
 11
-121.9
 21
-81.4044
  0
LINE
  8
0
 10
-121.9
 20
-81.4044
 11
-125
 21
-81.4044
  0
LINE
  8
0
 10
-125
 20
-81.4044
 11
-125
 21
-90.7696
  0
LINE
  8
0
 10
-125
 20
-90.7696
 11
-121.9
 21
-90.7696
  0
LINE
  8
0
 10
-121.9
 20
-90.7696
 11
-121.9
 21
-100.535
  0
LINE
  8
0
 10
-121.9
 20
-100.535
 11
-125
 21
-100.535
  0
LINE
  8
0
 10
-125
 20
-100.535
 11
-125
 21
-110
  0
LINE
  8
0
 10
-125
 20
-110
 11
-115.1
 21
-110
  0
LINE
  8
0
 10
-115.1
 20
-110
 11
-115.1
 21
-106.9
  0
LINE
  8
0
 10
114.459
 20
98.3356
 11
113.971
 21
98.5842
  0
LINE
  8
0
 10
113.971
 20
98.5842
 11
113.584
 21
98.9714
  0
LINE
  8
0
 10
113.584
 20
98.9714
 11
113.336
 21
99.4592
  0
LINE
  8
0
 10
113.336
 20
99.4592
 11
113.25
 21
100
  0
LINE
  8
0
 10
113.25
 20
100
 11
113.336
 21
100.541
  0
LINE
  8
0
 10
113.336
 20
100.541
 11
113.584
 21
101.029
  0
LINE
  8
0
 10
113.584
 20
101.029
 11
113.971
 21
101.416
  0
LINE
  8
0
 10
113.971
 20
101.416
 11
114.459
 21
101.664
  0
LINE
  8
0
 10
114.459
 20
101.664
 11
115
 21
101.75
  0
LINE
  8
0
 10
115
 20
101.75
 11
115.541
 21
101.664
  0
LINE
  8
0
 10
115.541
 20
101.664
 11
116.029
 21
101.416
  0
LINE
  8
0
 10
116.029
 20
101.416
 11
116.416
 21
101.029
  0
LINE
  8
0
 10
116.416
 20
101.029
 11
116.664
 21
100.541
  0
LINE
  8
0
 10
116.664
 20
100.541
 11
116.75
 21
100
  0
LINE
  8
0
 10
116.75
 20
100
 11
116.664
 21
99.4592
  0
LINE
  8
0
 10
116.664
 20
99.4592
 11
116.416
 21
98.9714
  0
LINE
  8
0
 10
116.416
 20
98.9714
 11
116.029
 21
98.5842
  0
LINE
  8
0
 10
116.029
 20
98.5842
 11
115.541
 21
98.3356
  0
LINE
  8
0
 10
115.541
 20
98.3356
 11
115
 21
98.25
  0
LINE
  8
0
 10
115
 20
98.25
 11
114.459
 21
98.3356
  0
LINE
  8
0
 10
-115.541
 20
98.3356
 11
-116.029
 21
98.5842
  0
LINE
  8
0
 10
-116.029
 20
98.5842
 11
-116.416
 21
98.9714
  0
LINE
  8
0
 10
-116.416
 20
98.9714
 11
-116.664
 21
99.4592
  0
LINE
  8
0
 10
-116.664
 20
99.4592
 11
-116.75
 21
100
  0
LINE
  8
0
 10
-116.75
 20
100
 11
-116.664
 21
100.541
  0
LINE
  8
0
 10
-116.664
 20
100.541
 11
-116.416
 21
101.029
  0
LINE
  8
0
 10
-116.416
 20
101.029
 11
-116.029
 21
101.416
  0
LINE
  8
0
 10
-116.029
 20
101.416
 11
-115.541
 21
101.664
  0
LINE
  8
0
 10
-115.541
 20
101.664
 11
-115
 21
101.75
  0
LINE
  8
0
 10
-115
 20
101.75
 11
-114.459
 21
101.664
  0
LINE
  8
0
 10
-114.459
 20
101.664
 11
-113.971
 21
101.416
  0
LINE
  8
0
 10
-113.971
 20
101.416
 11
-113.584
 21
101.029
  0
LINE
  8
0
 10
-113.584
 20
101.029
 11
-113.336
 21
100.541
  0
LINE
  8
0
 10
-113.336
 20
100.541
 11
-113.25
 21
100
  0
LINE
  8
0
 10
-113.25
 20
100
 11
-113.336
 21
99.4592
  0
LINE
  8
0
 10
-113.336
 20
99.4592
 11
-113.584
 21
98.9714
  0
LINE
  8
0
 10
-113.584
 20
98.9714
 11
-113.971
 21
98.5842
  0
LINE
  8
0
 10
-113.971
 20
98.5842
 11
-114.459
 21
98.3356
  0
LINE
  8
0
 10
-114.459
 20
98.3356
 11
-115
 21
98.25
  0
LINE
  8
0
 10
-115
 20
98.25
 11
-115.541
 21
98.3356
  0
LINE
  8
0
 10
-110.523
 20
90.0274
 11
-111.545
 21
90.2447
  0
LINE
  8
0
 10
-111.545
 20
90.2447
 11
-112.5
 21
90.6699
  0
LINE
  8
0
 10
-112.5
 20
90.6699
 11
-113.346
 21
91.2843
  0
LINE
  8
0
 10
-113.346
 20
91.2843
 11
-114.045
 21
92.0611
  0
LINE
  8
0
 10
-114.045
 20
92.0611
 11
-114.568
 21
92.9663
  0
LINE
  8
0
 10
-114.568
 20
92.9663
 11
-114.891
 21
93.9604
  0
LINE
  8
0
 10
-114.891
 20
93.9604
 11
-115
 21
95
  0
LINE
  8
0
 10
-115
 20
95
 11
-114.891
 21
96.0396
  0
LINE
  8
0
 10
-114.891
 20
96.0396
 11
-114.568
 21
97.0337
  0
LINE
  8
0
 10
-114.568
 20
97.0337
 11
-114.045
 21
97.9389
  0
LINE
  8
0
 10
-114.045
 20
97.9389
 11
-113.346
 21
98.7157
  0
LINE
  8
0
 10
-113.346
 20
98.7157
 11
-112.5
 21
99.3301
  0
LINE
  8
0
 10
-112.5
 20
99.3301
 11
-111.545
 21
99.7553
  0
LINE
  8
0
 10
-111.545
 20
99.7553
 11
-110.523
 21
99.9726
  0
LINE
  8
0
 10
-110.523
 20
99.9726
 11
-109.477
 21
99.9726
  0
LINE
  8
0
 10
-109.477
 20
99.9726
 11
-108.455
 21
99.7553
  0
LINE
  8
0
 10
-108.455
 20
99.7553
 11
-107.5
 21
99.3301
  0
LINE
  8
0
 10
-107.5
 20
99.3301
 11
-106.654
 21
98.7157
  0
LINE
  8
0
 10
-106.654
 20
98.7157
 11
-105.955
 21
97.9389
  0
LINE
  8
0
 10
-105.955
 20
97.9389
 11
-105.432
 21
97.0337
  0
LINE
  8
0
 10
-105.432
 20
97.0337
 11
-105.109
 21
96.0396
  0
LINE
  8
0
 10
-105.109
 20
96.0396
 11
-105
 21
95
  0
LINE
  8
0
 10
-105
 20
95
 11
-105.109
 21
93.9604
  0
LINE
  8
0
 10
-105.109
 20
93.9604
 11
-105.432
 21
92.9663
  0
LINE
  8
0
 10
-105.432
 20
92.9663
 11
-105.955
 21
92.0611
  0
LINE
  8
0
 10
-105.955
 20
92.0611
 11
-106.654
 21
91.2843
  0
LINE
  8
0
 10
-106.654
 20
91.2843
 11
-107.5
 21
90.6699
  0
LINE
  8
0
 10
-107.5
 20
90.6699
 11
-108.455
 21
90.2447
  0
LINE
  8
0
 10
-108.455
 20
90.2447
 11
-109.477
 21
90.0274
  0
LINE
  8
0
 10
-109.477
 20
90.0274
 11
-110.523
 21
90.0274
  0
LINE
  8
0
 10
109.477
 20
90.0274
 11
108.455
 21
90.2447
  0
LINE
  8
0
 10
108.455
 20
90.2447
 11
107.5
 21
90.6699
  0
LINE
  8
0
 10
107.5
 20
90.6699
 11
106.654
 21
91.2843
  0
LINE
  8
0
 10
106.654
 20
91.2843
 11
105.955
 21
92.0611
  0
LINE
  8
0
 10
105.955
 20
92.0611
 11
105.432
 21
92.9663
  0
LINE
  8
0
 10
105.432
 20
92.9663
 11
105.109
 21
93.9604
  0
LINE
  8
0
 10
105.109
 20
93.9604
 11
105
 21
95
  0
LINE
  8
0
 10
105
 20
95
 11
105.109
 21
96.0396
  0
LINE
  8
0
 10
105.109
 20
96.0396
 11
105.432
 21
97.0337
  0
LINE
  8
0
 10
105.432
 20
97.0337
 11
105.955
 21
97.9389
  0
LINE
  8
0
 10
105.955
 20
97.9389
 11
106.654
 21
98.7157
  0
LINE
  8
0
 10
106.654
 20
98.7157
 11
107.5
 21
99.3301
  0
LINE
  8
0
 10
107.5
 20
99.3301
 11
108.455
 21
99.7553
  0
LINE
  8
0
 10
108.455
 20
99.7553
 11
109.477
 21
99.9726
  0
LINE
  8
0
 10
109.477
 20
99.9726
 11
110.523
 21
99.9726
  0
LINE
  8
0
 10
110.523
 20
99.9726
 11
111.545
 21
99.7553
  0
LINE
  8
0
 10
111.545
 20
99.7553
 11
112.5
 21
99.3301
  0
LINE
  8
0
 10
112.5
 20
99.3301
 11
113.346
 21
98.7157
  0
LINE
  8
0
 10
113.346
 20
98.7157
 11
114.045
 21
97.9389
  0
LINE
  8
0
 10
114.045
 20
97.9389
 11
114.568
 21
97.0337
  0
LINE
  8
0
 10
114.568
 20
97.0337
 11
114.891
 21
96.0396
  0
LINE
  8
0
 10
114.891
 20
96.0396
 11
115
 21
95
  0
LINE
  8
0
 10
115
 20
95
 11
114.891
 21
93.9604
  0
LINE
  8
0
 10
114.891
 20
93.9604
 11
114.568
 21
92.9663
  0
LINE
  8
0
 10
114.568
 20
92.9663
 11
114.045
 21
92.0611
  0
LINE
  8
0
 10
114.045
 20
92.0611
 11
113.346
 21
91.2843
  0
LINE
  8
0
 10
113.346
 20
91.2843
 11
112.5
 21
90.6699
  0
LINE
  8
0
 10
112.5
 20
90.6699
 11
111.545
 21
90.2447
  0
LINE
  8
0
 10
111.545
 20
90.2447
 11
110.523
 21
90.0274
  0
LINE
  8
0
 10
110.523
 20
90.0274
 11
109.477
 21
90.0274
  0
LINE
  8
0
 10
57.6137
 20
95.5612
 11
57.2653
 21
95.7387
  0
LINE
  8
0
 10
57.2653
 20
95.7387
 11
56.9887
 21
96.0153
  0
LINE
  8
0
 10
56.9887
 20
96.0153
 11
56.8112
 21
96.3637
  0
LINE
  8
0
 10
56.8112
 20
96.3637
 11
56.75
 21
96.75
  0
LINE
  8
0
 10
56.75
 20
96.75
 11
56.8112
 21
97.1363
  0
LINE
  8
0
 10
56.8112
 20
97.1363
 11
56.9887
 21
97.4847
  0
LINE
  8
0
 10
56.9887
 20
97.4847
 11
57.2653
 21
97.7613
  0
LINE
  8
0
 10
57.2653
 20
97.7613
 11
57.6137
 21
97.9388
  0
LINE
  8
0
 10
57.6137
 20
97.9388
 11
58
 21
98
  0
LINE
  8
0
 10
58
 20
98
 11
58.3863
 21
97.9388
  0
LINE
  8
0
 10
58.3863
 20
97.9388
 11
58.7347
 21
97.7613
  0
LINE
  8
0
 10
58.7347
 20
97.7613
 11
59.0113
 21
97.4847
  0
LINE
  8
0
 10
59.0113
 20
97.4847
 11
59.1888
 21
97.1363
  0
LINE
  8
0
 10
59.1888
 20
97.1363
 11
59.25
 21
96.75
  0
LINE
  8
0
 10
59.25
 20
96.75
 11
59.1888
 21
96.3637
  0
LINE
  8
0
 10
59.1888
 20
96.3637
 11
59.0113
 21
96.0153
  0
LINE
  8
0
 10
59.0113
 20
96.0153
 11
58.7347
 21
95.7387
  0
LINE
  8
0
 10
58.7347
 20
95.7387
 11
58.3863
 21
95.5612
  0
LINE
  8
0
 10
58.3863
 20
95.5612
 11
58
 21
95.5
  0
LINE
  8
0
 10
58
 20
95.5
 11
57.6137
 21
95.5612
  0
LINE
  8
0
 10
21.6137
 20
95.5612
 11
21.2653
 21
95.7387
  0
LINE
  8
0
 10
21.2653
 20
95.7387
 11
20.9887
 21
96.0153
  0
LINE
  8
0
 10
20.9887
 20
96.0153
 11
20.8112
 21
96.3637
  0
LINE
  8
0
 10
20.8112
 20
96.3637
 11
20.75
 21
96.75
  0
LINE
  8
0
 10
20.75
 20
96.75
 11
20.8112
 21
97.1363
  0
LINE
  8
0
 10
20.8112
 20
97.1363
 11
20.9887
 21
97.4847
  0
LINE
  8
0
 10
20.9887
 20
97.4847
 11
21.2653
 21
97.7613
  0
LINE
  8
0
 10
21.2653
 20
97.7613
 11
21.6137
 21
97.9388
  0
LINE
  8
0
 10
21.6137
 20
97.9388
 11
22
 21
98
  0
LINE
  8
0
 10
22
 20
98
 11
22.3863
 21
97.9388
  0
LINE
  8
0
 10
22.3863
 20
97.9388
 11
22.7347
 21
97.7613
  0
LINE
  8
0
 10
22.7347
 20
97.7613
 11
23.0113
 21
97.4847
  0
LINE
  8
0
 10
23.0113
 20
97.4847
 11
23.1888
 21
97.1363
  0
LINE
  8
0
 10
23.1888
 20
97.1363
 11
23.25
 21
96.75
  0
LINE
  8
0
 10
23.25
 20
96.75
 11
23.1888
 21
96.3637
  0
LINE
  8
0
 10
23.1888
 20
96.3637
 11
23.0113
 21
96.0153
  0
LINE
  8
0
 10
23.0113
 20
96.0153
 11
22.7347
 21
95.7387
  0
LINE
  8
0
 10
22.7347
 20
95.7387
 11
22.3863
 21
95.5612
  0
LINE
  8
0
 10
22.3863
 20
95.5612
 11
22
 21
95.5
  0
LINE
  8
0
 10
22
 20
95.5
 11
21.6137
 21
95.5612
  0
LINE
  8
0
 10
-46.8863
 20
93.8112
 11
-47.2347
 21
93.9887
  0
LINE
  8
0
 10
-47.2347
 20
93.9887
 11
-47.5113
 21
94.2653
  0
LINE
  8
0
 10
-47.5113
 20
94.2653
 11
-47.6888
 21
94.6137
  0
LINE
  8
0
 10
-47.6888
 20
94.6137
 11
-47.75
 21
95
  0
LINE
  8
0
 10
-47.75
 20
95
 11
-47.6888
 21
95.3863
  0
LINE
  8
0
 10
-47.6888
 20
95.3863
 11
-47.5113
 21
95.7347
  0
LINE
  8
0
 10
-47.5113
 20
95.7347
 11
-47.2347
 21
96.0113
  0
LINE
  8
0
 10
-47.2347
 20
96.0113
 11
-46.8863
 21
96.1888
  0
LINE
  8
0
 10
-46.8863
 20
96.1888
 11
-46.5
 21
96.25
  0
LINE
  8
0
 10
-46.5
 20
96.25
 11
-46.1137
 21
96.1888
  0
LINE
  8
0
 10
-46.1137
 20
96.1888
 11
-45.7653
 21
96.0113
  0
LINE
  8
0
 10
-45.7653
 20
96.0113
 11
-45.4887
 21
95.7347
  0
LINE
  8
0
 10
-45.4887
 20
95.7347
 11
-45.3112
 21
95.3863
  0
LINE
  8
0
 10
-45.3112
 20
95.3863
 11
-45.25
 21
95
  0
LINE
  8
0
 10
-45.25
 20
95
 11
-45.3112
 21
94.6137
  0
LINE
  8
0
 10
-45.3112
 20
94.6137
 11
-45.4887
 21
94.2653
  0
LINE
  8
0
 10
-45.4887
 20
94.2653
 11
-45.7653
 21
93.9887
  0
LINE
  8
0
 10
-45.7653
 20
93.9887
 11
-46.1137
 21
93.8112
  0
LINE
  8
0
 10
-46.1137
 20
93.8112
 11
-46.5
 21
93.75
  0
LINE
  8
0
 10
-46.5
 20
93.75
 11
-46.8863
 21
93.8112
  0
LINE
  8
0
 10
-93.8863
 20
93.8112
 11
-94.2347
 21
93.9887
  0
LINE
  8
0
 10
-94.2347
 20
93.9887
 11
-94.5113
 21
94.2653
  0
LINE
  8
0
 10
-94.5113
 20
94.2653
 11
-94.6888
 21
94.6137
  0
LINE
  8
0
 10
-94.6888
 20
94.6137
 11
-94.75
 21
95
  0
LINE
  8
0
 10
-94.75
 20
95
 11
-94.6888
 21
95.3863
  0
LINE
  8
0
 10
-94.6888
 20
95.3863
 11
-94.5113
 21
95.7347
  0
LINE
  8
0
 10
-94.5113
 20
95.7347
 11
-94.2347
 21
96.0113
  0
LINE
  8
0
 10
-94.2347
 20
96.0113
 11
-93.8863
 21
96.1888
  0
LINE
  8
0
 10
-93.8863
 20
96.1888
 11
-93.5
 21
96.25
  0
LINE
  8
0
 10
-93.5
 20
96.25
 11
-93.1137
 21
96.1888
  0
LINE
  8
0
 10
-93.1137
 20
96.1888
 11
-92.7653
 21
96.0113
  0
LINE
  8
0
 10
-92.7653
 20
96.0113
 11
-92.4887
 21
95.7347
  0
LINE
  8
0
 10
-92.4887
 20
95.7347
 11
-92.3112
 21
95.3863
  0
LINE
  8
0
 10
-92.3112
 20
95.3863
 11
-92.25
 21
95
  0
LINE
  8
0
 10
-92.25
 20
95
 11
-92.3112
 21
94.6137
  0
LINE
  8
0
 10
-92.3112
 20
94.6137
 11
-92.4887
 21
94.2653
  0
LINE
  8
0
 10
-92.4887
 20
94.2653
 11
-92.7653
 21
93.9887
  0
LINE
  8
0
 10
-92.7653
 20
93.9887
 11
-93.1137
 21
93.8112
  0
LINE
  8
0
 10
-93.1137
 20
93.8112
 11
-93.5
 21
93.75
  0
LINE
  8
0
 10
-93.5
 20
93.75
 11
-93.8863
 21
93.8112
  0
LINE
  8
0
 10
-5.88628
 20
81.8112
 11
-6.23474
 21
81.9887
  0
LINE
  8
0
 10
-6.23474
 20
81.9887
 11
-6.51128
 21
82.2653
  0
LINE
  8
0
 10
-6.51128
 20
82.2653
 11
-6.68883
 21
82.6137
  0
LINE
  8
0
 10
-6.68883
 20
82.6137
 11
-6.75
 21
83
  0
LINE
  8
0
 10
-6.75
 20
83
 11
-6.68883
 21
83.3863
  0
LINE
  8
0
 10
-6.68883
 20
83.3863
 11
-6.51128
 21
83.7347
  0
LINE
  8
0
 10
-6.51128
 20
83.7347
 11
-6.23474
 21
84.0113
  0
LINE
  8
0
 10
-6.23474
 20
84.0113
 11
-5.88628
 21
84.1888
  0
LINE
  8
0
 10
-5.88628
 20
84.1888
 11
-5.5
 21
84.25
  0
LINE
  8
0
 10
-5.5
 20
84.25
 11
-5.11374
 21
84.1888
  0
LINE
  8
0
 10
-5.11374
 20
84.1888
 11
-4.76527
 21
84.0113
  0
LINE
  8
0
 10
-4.76527
 20
84.0113
 11
-4.48874
 21
83.7347
  0
LINE
  8
0
 10
-4.48874
 20
83.7347
 11
-4.31119
 21
83.3863
  0
LINE
  8
0
 10
-4.31119
 20
83.3863
 11
-4.25
 21
83
  0
LINE
  8
0
 10
-4.25
 20
83
 11
-4.31119
 21
82.6137
  0
LINE
  8
0
 10
-4.31119
 20
82.6137
 11
-4.48874
 21
82.2653
  0
LINE
  8
0
 10
-4.48874
 20
82.2653
 11
-4.76527
 21
81.9887
  0
LINE
  8
0
 10
-4.76527
 20
81.9887
 11
-5.11374
 21
81.8112
  0
LINE
  8
0
 10
-5.11374
 20
81.8112
 11
-5.5
 21
81.75
  0
LINE
  8
0
 10
-5.5
 20
81.75
 11
-5.88628
 21
81.8112
  0
LINE
  8
0
 10
57.6137
 20
72.0612
 11
57.2653
 21
72.2387
  0
LINE
  8
0
 10
57.2653
 20
72.2387
 11
56.9887
 21
72.5153
  0
LINE
  8
0
 10
56.9887
 20
72.5153
 11
56.8112
 21
72.8637
  0
LINE
  8
0
 10
56.8112
 20
72.8637
 11
56.75
 21
73.25
  0
LINE
  8
0
 10
56.75
 20
73.25
 11
56.8112
 21
73.6363
  0
LINE
  8
0
 10
56.8112
 20
73.6363
 11
56.9887
 21
73.9847
  0
LINE
  8
0
 10
56.9887
 20
73.9847
 11
57.2653
 21
74.2613
  0
LINE
  8
0
 10
57.2653
 20
74.2613
 11
57.6137
 21
74.4388
  0
LINE
  8
0
 10
57.6137
 20
74.4388
 11
58
 21
74.5
  0
LINE
  8
0
 10
58
 20
74.5
 11
58.3863
 21
74.4388
  0
LINE
  8
0
 10
58.3863
 20
74.4388
 11
58.7347
 21
74.2613
  0
LINE
  8
0
 10
58.7347
 20
74.2613
 11
59.0113
 21
73.9847
  0
LINE
  8
0
 10
59.0113
 20
73.9847
 11
59.1888
 21
73.6363
  0
LINE
  8
0
 10
59.1888
 20
73.6363
 11
59.25
 21
73.25
  0
LINE
  8
0
 10
59.25
 20
73.25
 11
59.1888
 21
72.8637
  0
LINE
  8
0
 10
59.1888
 20
72.8637
 11
59.0113
 21
72.5153
  0
LINE
  8
0
 10
59.0113
 20
72.5153
 11
58.7347
 21
72.2387
  0
LINE
  8
0
 10
58.7347
 20
72.2387
 11
58.3863
 21
72.0612
  0
LINE
  8
0
 10
58.3863
 20
72.0612
 11
58
 21
72
  0
LINE
  8
0
 10
58
 20
72
 11
57.6137
 21
72.0612
  0
LINE
  8
0
 10
21.6137
 20
72.0612
 11
21.2653
 21
72.2387
  0
LINE
  8
0
 10
21.2653
 20
72.2387
 11
20.9887
 21
72.5153
  0
LINE
  8
0
 10
20.9887
 20
72.5153
 11
20.8112
 21
72.8637
  0
LINE
  8
0
 10
20.8112
 20
72.8637
 11
20.75
 21
73.25
  0
LINE
  8
0
 10
20.75
 20
73.25
 11
20.8112
 21
73.6363
  0
LINE
  8
0
 10
20.8112
 20
73.6363
 11
20.9887
 21
73.9847
  0
LINE
  8
0
 10
20.9887
 20
73.9847
 11
21.2653
 21
74.2613
  0
LINE
  8
0
 10
21.2653
 20
74.2613
 11
21.6137
 21
74.4388
  0
LINE
  8
0
 10
21.6137
 20
74.4388
 11
22
 21
74.5
  0
LINE
  8
0
 10
22
 20
74.5
 11
22.3863
 21
74.4388
  0
LINE
  8
0
 10
22.3863
 20
74.4388
 11
22.7347
 21
74.2613
  0
LINE
  8
0
 10
22.7347
 20
74.2613
 11
23.0113
 21
73.9847
  0
LINE
  8
0
 10
23.0113
 20
73.9847
 11
23.1888
 21
73.6363
  0
LINE
  8
0
 10
23.1888
 20
73.6363
 11
23.25
 21
73.25
  0
LINE
  8
0
 10
23.25
 20
73.25
 11
23.1888
 21
72.8637
  0
LINE
  8
0
 10
23.1888
 20
72.8637
 11
23.0113
 21
72.5153
  0
LINE
  8
0
 10
23.0113
 20
72.5153
 11
22.7347
 21
72.2387
  0
LINE
  8
0
 10
22.7347
 20
72.2387
 11
22.3863
 21
72.0612
  0
LINE
  8
0
 10
22.3863
 20
72.0612
 11
22
 21
72
  0
LINE
  8
0
 10
22
 20
72
 11
21.6137
 21
72.0612
  0
LINE
  8
0
 10
62.6137
 20
55.3112
 11
62.2653
 21
55.4887
  0
LINE
  8
0
 10
62.2653
 20
55.4887
 11
61.9887
 21
55.7653
  0
LINE
  8
0
 10
61.9887
 20
55.7653
 11
61.8112
 21
56.1137
  0
LINE
  8
0
 10
61.8112
 20
56.1137
 11
61.75
 21
56.5
  0
LINE
  8
0
 10
61.75
 20
56.5
 11
61.8112
 21
56.8863
  0
LINE
  8
0
 10
61.8112
 20
56.8863
 11
61.9887
 21
57.2347
  0
LINE
  8
0
 10
61.9887
 20
57.2347
 11
62.2653
 21
57.5113
  0
LINE
  8
0
 10
62.2653
 20
57.5113
 11
62.6137
 21
57.6888
  0
LINE
  8
0
 10
62.6137
 20
57.6888
 11
63
 21
57.75
  0
LINE
  8
0
 10
63
 20
57.75
 11
63.3863
 21
57.6888
  0
LINE
  8
0
 10
63.3863
 20
57.6888
 11
63.7347
 21
57.5113
  0
LINE
  8
0
 10
63.7347
 20
57.5113
 11
64.0113
 21
57.2347
  0
LINE
  8
0
 10
64.0113
 20
57.2347
 11
64.1888
 21
56.8863
  0
LINE
  8
0
 10
64.1888
 20
56.8863
 11
64.25
 21
56.5
  0
LINE
  8
0
 10
64.25
 20
56.5
 11
64.1888
 21
56.1137
  0
LINE
  8
0
 10
64.1888
 20
56.1137
 11
64.0113
 21
55.7653
  0
LINE
  8
0
 10
64.0113
 20
55.7653
 11
63.7347
 21
55.4887
  0
LINE
  8
0
 10
63.7347
 20
55.4887
 11
63.3863
 21
55.3112
  0
LINE
  8
0
 10
63.3863
 20
55.3112
 11
63
 21
55.25
  0
LINE
  8
0
 10
63
 20
55.25
 11
62.6137
 21
55.3112
  0
LINE
  8
0
 10
16.6137
 20
55.3112
 11
16.2653
 21
55.4887
  0
LINE
  8
0
 10
16.2653
 20
55.4887
 11
15.9887
 21
55.7653
  0
LINE
  8
0
 10
15.9887
 20
55.7653
 11
15.8112
 21
56.1137
  0
LINE
  8
0
 10
15.8112
 20
56.1137
 11
15.75
 21
56.5
  0
LINE
  8
0
 10
15.75
 20
56.5
 11
15.8112
 21
56.8863
  0
LINE
  8
0
 10
15.8112
 20
56.8863
 11
15.9887
 21
57.2347
  0
LINE
  8
0
 10
15.9887
 20
57.2347
 11
16.2653
 21
57.5113
  0
LINE
  8
0
 10
16.2653
 20
57.5113
 11
16.6137
 21
57.6888
  0
LINE
  8
0
 10
16.6137
 20
57.6888
 11
17
 21
57.75
  0
LINE
  8
0
 10
17
 20
57.75
 11
17.3863
 21
57.6888
  0
LINE
  8
0
 10
17.3863
 20
57.6888
 11
17.7347
 21
57.5113
  0
LINE
  8
0
 10
17.7347
 20
57.5113
 11
18.0113
 21
57.2347
  0
LINE
  8
0
 10
18.0113
 20
57.2347
 11
18.1888
 21
56.8863
  0
LINE
  8
0
 10
18.1888
 20
56.8863
 11
18.25
 21
56.5
  0
LINE
  8
0
 10
18.25
 20
56.5
 11
18.1888
 21
56.1137
  0
LINE
  8
0
 10
18.1888
 20
56.1137
 11
18.0113
 21
55.7653
  0
LINE
  8
0
 10
18.0113
 20
55.7653
 11
17.7347
 21
55.4887
  0
LINE
  8
0
 10
17.7347
 20
55.4887
 11
17.3863
 21
55.3112
  0
LINE
  8
0
 10
17.3863
 20
55.3112
 11
17
 21
55.25
  0
LINE
  8
0
 10
17
 20
55.25
 11
16.6137
 21
55.3112
  0
LINE
  8
0
 10
104.114
 20
38.8112
 11
103.765
 21
38.9887
  0
LINE
  8
0
 10
103.765
 20
38.9887
 11
103.489
 21
39.2653
  0
LINE
  8
0
 10
103.489
 20
39.2653
 11
103.311
 21
39.6137
  0
LINE
  8
0
 10
103.311
 20
39.6137
 11
103.25
 21
40
  0
LINE
  8
0
 10
103.25
 20
40
 11
103.311
 21
40.3863
  0
LINE
  8
0
 10
103.311
 20
40.3863
 11
103.489
 21
40.7347
  0
LINE
  8
0
 10
103.489
 20
40.7347
 11
103.765
 21
41.0113
  0
LINE
  8
0
 10
103.765
 20
41.0113
 11
104.114
 21
41.1888
  0
LINE
  8
0
 10
104.114
 20
41.1888
 11
104.5
 21
41.25
  0
LINE
  8
0
 10
104.5
 20
41.25
 11
104.886
 21
41.1888
  0
LINE
  8
0
 10
104.886
 20
41.1888
 11
105.235
 21
41.0113
  0
LINE
  8
0
 10
105.235
 20
41.0113
 11
105.511
 21
40.7347
  0
LINE
  8
0
 10
105.511
 20
40.7347
 11
105.689
 21
40.3863
  0
LINE
  8
0
 10
105.689
 20
40.3863
 11
105.75
 21
40
  0
LINE
  8
0
 10
105.75
 20
40
 11
105.689
 21
39.6137
  0
LINE
  8
0
 10
105.689
 20
39.6137
 11
105.511
 21
39.2653
  0
LINE
  8
0
 10
105.511
 20
39.2653
 11
105.235
 21
38.9887
  0
LINE
  8
0
 10
105.235
 20
38.9887
 11
104.886
 21
38.8112
  0
LINE
  8
0
 10
104.886
 20
38.8112
 11
104.5
 21
38.75
  0
LINE
  8
0
 10
104.5
 20
38.75
 11
104.114
 21
38.8112
  0
LINE
  8
0
 10
16.6137
 20
32.3112
 11
16.2653
 21
32.4887
  0
LINE
  8
0
 10
16.2653
 20
32.4887
 11
15.9887
 21
32.7653
  0
LINE
  8
0
 10
15.9887
 20
32.7653
 11
15.8112
 21
33.1137
  0
LINE
  8
0
 10
15.8112
 20
33.1137
 11
15.75
 21
33.5
  0
LINE
  8
0
 10
15.75
 20
33.5
 11
15.8112
 21
33.8863
  0
LINE
  8
0
 10
15.8112
 20
33.8863
 11
15.9887
 21
34.2347
  0
LINE
  8
0
 10
15.9887
 20
34.2347
 11
16.2653
 21
34.5113
  0
LINE
  8
0
 10
16.2653
 20
34.5113
 11
16.6137
 21
34.6888
  0
LINE
  8
0
 10
16.6137
 20
34.6888
 11
17
 21
34.75
  0
LINE
  8
0
 10
17
 20
34.75
 11
17.3863
 21
34.6888
  0
LINE
  8
0
 10
17.3863
 20
34.6888
 11
17.7347
 21
34.5113
  0
LINE
  8
0
 10
17.7347
 20
34.5113
 11
18.0113
 21
34.2347
  0
LINE
  8
0
 10
18.0113
 20
34.2347
 11
18.1888
 21
33.8863
  0
LINE
  8
0
 10
18.1888
 20
33.8863
 11
18.25
 21
33.5
  0
LINE
  8
0
 10
18.25
 20
33.5
 11
18.1888
 21
33.1137
  0
LINE
  8
0
 10
18.1888
 20
33.1137
 11
18.0113
 21
32.7653
  0
LINE
  8
0
 10
18.0113
 20
32.7653
 11
17.7347
 21
32.4887
  0
LINE
  8
0
 10
17.7347
 20
32.4887
 11
17.3863
 21
32.3112
  0
LINE
  8
0
 10
17.3863
 20
32.3112
 11
17
 21
32.25
  0
LINE
  8
0
 10
17
 20
32.25
 11
16.6137
 21
32.3112
  0
LINE
  8
0
 10
62.6137
 20
32.3112
 11
62.2653
 21
32.4887
  0
LINE
  8
0
 10
62.2653
 20
32.4887
 11
61.9887
 21
32.7653
  0
LINE
  8
0
 10
61.9887
 20
32.7653
 11
61.8112
 21
33.1137
  0
LINE
  8
0
 10
61.8112
 20
33.1137
 11
61.75
 21
33.5
  0
LINE
  8
0
 10
61.75
 20
33.5
 11
61.8112
 21
33.8863
  0
LINE
  8
0
 10
61.8112
 20
33.8863
 11
61.9887
 21
34.2347
  0
LINE
  8
0
 10
61.9887
 20
34.2347
 11
62.2653
 21
34.5113
  0
LINE
  8
0
 10
62.2653
 20
34.5113
 11
62.6137
 21
34.6888
  0
LINE
  8
0
 10
62.6137
 20
34.6888
 11
63
 21
34.75
  0
LINE
  8
0
 10
63
 20
34.75
 11
63.3863
 21
34.6888
  0
LINE
  8
0
 10
63.3863
 20
34.6888
 11
63.7347
 21
34.5113
  0
LINE
  8
0
 10
63.7347
 20
34.5113
 11
64.0113
 21
34.2347
  0
LINE
  8
0
 10
64.0113
 20
34.2347
 11
64.1888
 21
33.8863
  0
LINE
  8
0
 10
64.1888
 20
33.8863
 11
64.25
 21
33.5
  0
LINE
  8
0
 10
64.25
 20
33.5
 11
64.1888
 21
33.1137
  0
LINE
  8
0
 10
64.1888
 20
33.1137
 11
64.0113
 21
32.7653
  0
LINE
  8
0
 10
64.0113
 20
32.7653
 11
63.7347
 21
32.4887
  0
LINE
  8
0
 10
63.7347
 20
32.4887
 11
63.3863
 21
32.3112
  0
LINE
  8
0
 10
63.3863
 20
32.3112
 11
63
 21
32.25
  0
LINE
  8
0
 10
63
 20
32.25
 11
62.6137
 21
32.3112
  0
LINE
  8
0
 10
-34.8863
 20
25.8112
 11
-35.2347
 21
25.9887
  0
LINE
  8
0
 10
-35.2347
 20
25.9887
 11
-35.5113
 21
26.2653
  0
LINE
  8
0
 10
-35.5113
 20
26.2653
 11
-35.6888
 21
26.6137
  0
LINE
  8
0
 10
-35.6888
 20
26.6137
 11
-35.75
 21
27
  0
LINE
  8
0
 10
-35.75
 20
27
 11
-35.6888
 21
27.3863
  0
LINE
  8
0
 10
-35.6888
 20
27.3863
 11
-35.5113
 21
27.7347
  0
LINE
  8
0
 10
-35.5113
 20
27.7347
 11
-35.2347
 21
28.0113
  0
LINE
  8
0
 10
-35.2347
 20
28.0113
 11
-34.8863
 21
28.1888
  0
LINE
  8
0
 10
-34.8863
 20
28.1888
 11
-34.5
 21
28.25
  0
LINE
  8
0
 10
-34.5
 20
28.25
 11
-34.1137
 21
28.1888
  0
LINE
  8
0
 10
-34.1137
 20
28.1888
 11
-33.7653
 21
28.0113
  0
LINE
  8
0
 10
-33.7653
 20
28.0113
 11
-33.4887
 21
27.7347
  0
LINE
  8
0
 10
-33.4887
 20
27.7347
 11
-33.3112
 21
27.3863
  0
LINE
  8
0
 10
-33.3112
 20
27.3863
 11
-33.25
 21
27
  0
LINE
  8
0
 10
-33.25
 20
27
 11
-33.3112
 21
26.6137
  0
LINE
  8
0
 10
-33.3112
 20
26.6137
 11
-33.4887
 21
26.2653
  0
LINE
  8
0
 10
-33.4887
 20
26.2653
 11
-33.7653
 21
25.9887
  0
LINE
  8
0
 10
-33.7653
 20
25.9887
 11
-34.1137
 21
25.8112
  0
LINE
  8
0
 10
-34.1137
 20
25.8112
 11
-34.5
 21
25.75
  0
LINE
  8
0
 10
-34.5
 20
25.75
 11
-34.8863
 21
25.8112
  0
LINE
  8
0
 10
75.1137
 20
18.8112
 11
74.7653
 21
18.9887
  0
LINE
  8
0
 10
74.7653
 20
18.9887
 11
74.4887
 21
19.2653
  0
LINE
  8
0
 10
74.4887
 20
19.2653
 11
74.3112
 21
19.6137
  0
LINE
  8
0
 10
74.3112
 20
19.6137
 11
74.25
 21
20
  0
LINE
  8
0
 10
74.25
 20
20
 11
74.3112
 21
20.3863
  0
LINE
  8
0
 10
74.3112
 20
20.3863
 11
74.4887
 21
20.7347
  0
LINE
  8
0
 10
74.4887
 20
20.7347
 11
74.7653
 21
21.0113
  0
LINE
  8
0
 10
74.7653
 20
21.0113
 11
75.1137
 21
21.1888
  0
LINE
  8
0
 10
75.1137
 20
21.1888
 11
75.5
 21
21.25
  0
LINE
  8
0
 10
75.5
 20
21.25
 11
75.8863
 21
21.1888
  0
LINE
  8
0
 10
75.8863
 20
21.1888
 11
76.2347
 21
21.0113
  0
LINE
  8
0
 10
76.2347
 20
21.0113
 11
76.5113
 21
20.7347
  0
LINE
  8
0
 10
76.5113
 20
20.7347
 11
76.6888
 21
20.3863
  0
LINE
  8
0
 10
76.6888
 20
20.3863
 11
76.75
 21
20
  0
LINE
  8
0
 10
76.75
 20
20
 11
76.6888
 21
19.6137
  0
LINE
  8
0
 10
76.6888
 20
19.6137
 11
76.5113
 21
19.2653
  0
LINE
  8
0
 10
76.5113
 20
19.2653
 11
76.2347
 21
18.9887
  0
LINE
  8
0
 10
76.2347
 20
18.9887
 11
75.8863
 21
18.8112
  0
LINE
  8
0
 10
75.8863
 20
18.8112
 11
75.5
 21
18.75
  0
LINE
  8
0
 10
75.5
 20
18.75
 11
75.1137
 21
18.8112
  0
LINE
  8
0
 10
56.1137
 20
15.3112
 11
55.7653
 21
15.4887
  0
LINE
  8
0
 10
55.7653
 20
15.4887
 11
55.4887
 21
15.7653
  0
LINE
  8
0
 10
55.4887
 20
15.7653
 11
55.3112
 21
16.1137
  0
LINE
  8
0
 10
55.3112
 20
16.1137
 11
55.25
 21
16.5
  0
LINE
  8
0
 10
55.25
 20
16.5
 11
55.3112
 21
16.8863
  0
LINE
  8
0
 10
55.3112
 20
16.8863
 11
55.4887
 21
17.2347
  0
LINE
  8
0
 10
55.4887
 20
17.2347
 11
55.7653
 21
17.5113
  0
LINE
  8
0
 10
55.7653
 20
17.5113
 11
56.1137
 21
17.6888
  0
LINE
  8
0
 10
56.1137
 20
17.6888
 11
56.5
 21
17.75
  0
LINE
  8
0
 10
56.5
 20
17.75
 11
56.8863
 21
17.6888
  0
LINE
  8
0
 10
56.8863
 20
17.6888
 11
57.2347
 21
17.5113
  0
LINE
  8
0
 10
57.2347
 20
17.5113
 11
57.5113
 21
17.2347
  0
LINE
  8
0
 10
57.5113
 20
17.2347
 11
57.6888
 21
16.8863
  0
LINE
  8
0
 10
57.6888
 20
16.8863
 11
57.75
 21
16.5
  0
LINE
  8
0
 10
57.75
 20
16.5
 11
57.6888
 21
16.1137
  0
LINE
  8
0
 10
57.6888
 20
16.1137
 11
57.5113
 21
15.7653
  0
LINE
  8
0
 10
57.5113
 20
15.7653
 11
57.2347
 21
15.4887
  0
LINE
  8
0
 10
57.2347
 20
15.4887
 11
56.8863
 21
15.3112
  0
LINE
  8
0
 10
56.8863
 20
15.3112
 11
56.5
 21
15.25
  0
LINE
  8
0
 10
56.5
 20
15.25
 11
56.1137
 21
15.3112
  0
LINE
  8
0
 10
121.9
 20
-4.88261
 11
121.9
 21
4.8826
  0
LINE
  8
0
 10
121.9
 20
4.8826
 11
125
 21
4.8826
  0
LINE
  8
0
 10
125
 20
4.8826
 11
125
 21
-4.88261
  0
LINE
  8
0
 10
125
 20
-4.88261
 11
121.9
 21
-4.88261
  0
LINE
  8
0
 10
-125
 20
-4.88261
 11
-125
 21
4.8826
  0
LINE
  8
0
 10
-125
 20
4.8826
 11
-121.9
 21
4.8826
  0
LINE
  8
0
 10
-121.9
 20
4.8826
 11
-121.9
 21
-4.88261
  0
LINE
  8
0
 10
-121.9
 20
-4.88261
 11
-125
 21
-4.88261
  0
LINE
  8
0
 10
-133.195
 20
-2.13986
 11
-133.823
 21
-1.82028
  0
LINE
  8
0
 10
-133.823
 20
-1.82028
 11
-134.32
 21
-1.32251
  0
LINE
  8
0
 10
-134.32
 20
-1.32251
 11
-134.64
 21
-0.695282
  0
LINE
  8
0
 10
-134.64
 20
-0.695282
 11
-134.75
 21
0
  0
LINE
  8
0
 10
-134.75
 20
0
 11
-134.64
 21
0.695282
  0
LINE
  8
0
 10
-134.64
 20
0.695282
 11
-134.32
 21
1.32251
  0
LINE
  8
0
 10
-134.32
 20
1.32251
 11
-133.823
 21
1.82028
  0
LINE
  8
0
 10
-133.823
 20
1.82028
 11
-133.195
 21
2.13986
  0
LINE
  8
0
 10
-133.195
 20
2.13986
 11
-132.5
 21
2.25
  0
LINE
  8
0
 10
-132.5
 20
2.25
 11
-131.805
 21
2.13986
  0
LINE
  8
0
 10
-131.805
 20
2.13986
 11
-131.177
 21
1.82028
  0
LINE
  8
0
 10
-131.177
 20
1.82028
 11
-130.68
 21
1.32251
  0
LINE
  8
0
 10
-130.68
 20
1.32251
 11
-130.36
 21
0.695282
  0
LINE
  8
0
 10
-130.36
 20
0.695282
 11
-130.25
 21
0
  0
LINE
  8
0
 10
-130.25
 20
0
 11
-130.36
 21
-0.695282
  0
LINE
  8
0
 10
-130.36
 20
-0.695282
 11
-130.68
 21
-1.32251
  0
LINE
  8
0
 10
-130.68
 20
-1.32251
 11
-131.177
 21
-1.82028
  0
LINE
  8
0
 10
-131.177
 20
-1.82028
 11
-131.805
 21
-2.13986
  0
LINE
  8
0
 10
-131.805
 20
-2.13986
 11
-132.5
 21
-2.25
  0
LINE
  8
0
 10
-132.5
 20
-2.25
 11
-133.195
 21
-2.13986
  0
LINE
  8
0
 10
-93.8863
 20
-0.188812
 11
-94.2347
 21
-0.011261
  0
LINE
  8
0
 10
-94.2347
 20
-0.011261
 11
-94.5113
 21
0.265274
  0
LINE
  8
0
 10
-94.5113
 20
0.265274
 11
-94.6888
 21
0.613739
  0
LINE
  8
0
 10
-94.6888
 20
0.613739
 11
-94.75
 21
1
  0
LINE
  8
0
 10
-94.75
 20
1
 11
-94.6888
 21
1.38628
  0
LINE
  8
0
 10
-94.6888
 20
1.38628
 11
-94.5113
 21
1.73474
  0
LINE
  8
0
 10
-94.5113
 20
1.73474
 11
-94.2347
 21
2.01128
  0
LINE
  8
0
 10
-94.2347
 20
2.01128
 11
-93.8863
 21
2.18883
  0
LINE
  8
0
 10
-93.8863
 20
2.18883
 11
-93.5
 21
2.25
  0
LINE
  8
0
 10
-93.5
 20
2.25
 11
-93.1137
 21
2.18883
  0
LINE
  8
0
 10
-93.1137
 20
2.18883
 11
-92.7653
 21
2.01128
  0
LINE
  8
0
 10
-92.7653
 20
2.01128
 11
-92.4887
 21
1.73474
  0
LINE
  8
0
 10
-92.4887
 20
1.73474
 11
-92.3112
 21
1.38628
  0
LINE
  8
0
 10
-92.3112
 20
1.38628
 11
-92.25
 21
1
  0
LINE
  8
0
 10
-92.25
 20
1
 11
-92.3112
 21
0.613739
  0
LINE
  8
0
 10
-92.3112
 20
0.613739
 11
-92.4887
 21
0.265274
  0
LINE
  8
0
 10
-92.4887
 20
0.265274
 11
-92.7653
 21
-0.011261
  0
LINE
  8
0
 10
-92.7653
 20
-0.011261
 11
-93.1137
 21
-0.188812
  0
LINE
  8
0
 10
-93.1137
 20
-0.188812
 11
-93.5
 21
-0.25
  0
LINE
  8
0
 10
-93.5
 20
-0.25
 11
-93.8863
 21
-0.188812
  0
LINE
  8
0
 10
-46.8863
 20
-0.188812
 11
-47.2347
 21
-0.011261
  0
LINE
  8
0
 10
-47.2347
 20
-0.011261
 11
-47.5113
 21
0.265274
  0
LINE
  8
0
 10
-47.5113
 20
0.265274
 11
-47.6888
 21
0.613739
  0
LINE
  8
0
 10
-47.6888
 20
0.613739
 11
-47.75
 21
1
  0
LINE
  8
0
 10
-47.75
 20
1
 11
-47.6888
 21
1.38628
  0
LINE
  8
0
 10
-47.6888
 20
1.38628
 11
-47.5113
 21
1.73474
  0
LINE
  8
0
 10
-47.5113
 20
1.73474
 11
-47.2347
 21
2.01128
  0
LINE
  8
0
 10
-47.2347
 20
2.01128
 11
-46.8863
 21
2.18883
  0
LINE
  8
0
 10
-46.8863
 20
2.18883
 11
-46.5
 21
2.25
  0
LINE
  8
0
 10
-46.5
 20
2.25
 11
-46.1137
 21
2.18883
  0
LINE
  8
0
 10
-46.1137
 20
2.18883
 11
-45.7653
 21
2.01128
  0
LINE
  8
0
 10
-45.7653
 20
2.01128
 11
-45.4887
 21
1.73474
  0
LINE
  8
0
 10
-45.4887
 20
1.73474
 11
-45.3112
 21
1.38628
  0
LINE
  8
0
 10
-45.3112
 20
1.38628
 11
-45.25
 21
1
  0
LINE
  8
0
 10
-45.25
 20
1
 11
-45.3112
 21
0.613739
  0
LINE
  8
0
 10
-45.3112
 20
0.613739
 11
-45.4887
 21
0.265274
  0
LINE
  8
0
 10
-45.4887
 20
0.265274
 11
-45.7653
 21
-0.011261
  0
LINE
  8
0
 10
-45.7653
 20
-0.011261
 11
-46.1137
 21
-0.188812
  0
LINE
  8
0
 10
-46.1137
 20
-0.188812
 11
-46.5
 21
-0.25
  0
LINE
  8
0
 10
-46.5
 20
-0.25
 11
-46.8863
 21
-0.188812
  0
LINE
  8
0
 10
131.805
 20
-2.13986
 11
131.177
 21
-1.82028
  0
LINE
  8
0
 10
131.177
 20
-1.82028
 11
130.68
 21
-1.32251
  0
LINE
  8
0
 10
130.68
 20
-1.32251
 11
130.36
 21
-0.695282
  0
LINE
  8
0
 10
130.36
 20
-0.695282
 11
130.25
 21
0
  0
LINE
  8
0
 10
130.25
 20
0
 11
130.36
 21
0.695282
  0
LINE
  8
0
 10
130.36
 20
0.695282
 11
130.68
 21
1.32251
  0
LINE
  8
0
 10
130.68
 20
1.32251
 11
131.177
 21
1.82028
  0
LINE
  8
0
 10
131.177
 20
1.82028
 11
131.805
 21
2.13986
  0
LINE
  8
0
 10
131.805
 20
2.13986
 11
132.5
 21
2.25
  0
LINE
  8
0
 10
132.5
 20
2.25
 11
133.195
 21
2.13986
  0
LINE
  8
0
 10
133.195
 20
2.13986
 11
133.823
 21
1.82028
  0
LINE
  8
0
 10
133.823
 20
1.82028
 11
134.32
 21
1.32251
  0
LINE
  8
0
 10
134.32
 20
1.32251
 11
134.64
 21
0.695282
  0
LINE
  8
0
 10
134.64
 20
0.695282
 11
134.75
 21
0
  0
LINE
  8
0
 10
134.75
 20
0
 11
134.64
 21
-0.695282
  0
LINE
  8
0
 10
134.64
 20
-0.695282
 11
134.32
 21
-1.32251
  0
LINE
  8
0
 10
134.32
 20
-1.32251
 11
133.823
 21
-1.82028
  0
LINE
  8
0
 10
133.823
 20
-1.82028
 11
133.195
 21
-2.13986
  0
LINE
  8
0
 10
133.195
 20
-2.13986
 11
132.5
 21
-2.25
  0
LINE
  8
0
 10
132.5
 20
-2.25
 11
131.805
 21
-2.13986
  0
LINE
  8
0
 10
23.1137
 20
-1.68881
 11
22.7653
 21
-1.51126
  0
LINE
  8
0
 10
22.7653
 20
-1.51126
 11
22.4887
 21
-1.23473
  0
LINE
  8
0
 10
22.4887
 20
-1.23473
 11
22.3112
 21
-0.886261
  0
LINE
  8
0
 10
22.3112
 20
-0.886261
 11
22.25
 21
-0.5
  0
LINE
  8
0
 10
22.25
 20
-0.5
 11
22.3112
 21
-0.113724
  0
LINE
  8
0
 10
22.3112
 20
-0.113724
 11
22.4887
 21
0.234741
  0
LINE
  8
0
 10
22.4887
 20
0.234741
 11
22.7653
 21
0.511276
  0
LINE
  8
0
 10
22.7653
 20
0.511276
 11
23.1137
 21
0.688828
  0
LINE
  8
0
 10
23.1137
 20
0.688828
 11
23.5
 21
0.75
  0
LINE
  8
0
 10
23.5
 20
0.75
 11
23.8863
 21
0.688828
  0
LINE
  8
0
 10
23.8863
 20
0.688828
 11
24.2347
 21
0.511276
  0
LINE
  8
0
 10
24.2347
 20
0.511276
 11
24.5113
 21
0.234741
  0
LINE
  8
0
 10
24.5113
 20
0.234741
 11
24.6888
 21
-0.113724
  0
LINE
  8
0
 10
24.6888
 20
-0.113724
 11
24.75
 21
-0.5
  0
LINE
  8
0
 10
24.75
 20
-0.5
 11
24.6888
 21
-0.886261
  0
LINE
  8
0
 10
24.6888
 20
-0.886261
 11
24.5113
 21
-1.23473
  0
LINE
  8
0
 10
24.5113
 20
-1.23473
 11
24.2347
 21
-1.51126
  0
LINE
  8
0
 10
24.2347
 20
-1.51126
 11
23.8863
 21
-1.68881
  0
LINE
  8
0
 10
23.8863
 20
-1.68881
 11
23.5
 21
-1.75
  0
LINE
  8
0
 10
23.5
 20
-1.75
 11
23.1137
 21
-1.68881
  0
LINE
  8
0
 10
-16
 20
-66
 11
-16
 21
-46
  0
LINE
  8
0
 10
-16
 20
-46
 11
-14
 21
-46
  0
LINE
  8
0
 10
-14
 20
-46
 11
-14
 21
-66
  0
LINE
  8
0
 10
-14
 20
-66
 11
-16
 21
-66
  0
LINE
  8
0
 10
-22
 20
-66
 11
-22
 21
-46
  0
LINE
  8
0
 10
-22
 20
-46
 11
-20
 21
-46
  0
LINE
  8
0
 10
-20
 20
-46
 11
-20
 21
-66
  0
LINE
  8
0
 10
-20
 20
-66
 11
-22
 21
-66
  0
LINE
  8
0
 10
-10
 20
-66
 11
-10
 21
-46
  0
LINE
  8
0
 10
-10
 20
-46
 11
-8
 21
-46
  0
LINE
  8
0
 10
-8
 20
-46
 11
-8
 21
-66
  0
LINE
  8
0
 10
-8
 20
-66
 11
-10
 21
-66
  0
LINE
  8
0
 10
-4
 20
-66
 11
-4
 21
-46
  0
LINE
  8
0
 10
-4
 20
-46
 11
-2
 21
-46
  0
LINE
  8
0
 10
-2
 20
-46
 11
-2
 21
-66
  0
LINE
  8
0
 10
-2
 20
-66
 11
-4
 21
-66
  0
LINE
  8
0
 10
2
 20
-66
 11
2
 21
-46
  0
LINE
  8
0
 10
2
 20
-46
 11
4
 21
-46
  0
LINE
  8
0
 10
4
 20
-46
 11
4
 21
-66
  0
LINE
  8
0
 10
4
 20
-66
 11
2
 21
-66
  0
LINE
  8
0
 10
8
 20
-66
 11
8
 21
-46
  0
LINE
  8
0
 10
8
 20
-46
 11
10
 21
-46
  0
LINE
  8
0
 10
10
 20
-46
 11
10
 21
-66
  0
LINE
  8
0
 10
10
 20
-66
 11
8
 21
-66
  0
LINE
  8
0
 10
14
 20
-66
 11
14
 21
-46
  0
LINE
  8
0
 10
14
 20
-46
 11
16
 21
-46
  0
LINE
  8
0
 10
16
 20
-46
 11
16
 21
-66
  0
LINE
  8
0
 10
16
 20
-66
 11
14
 21
-66
  0
LINE
  8
0
 10
20
 20
-66
 11
20
 21
-46
  0
LINE
  8
0
 10
20
 20
-46
 11
22
 21
-46
  0
LINE
  8
0
 10
22
 20
-46
 11
22
 21
-66
  0
LINE
  8
0
 10
22
 20
-66
 11
20
 21
-66
  0
LINE
  8
0
 10
-110.523
 20
-99.9726
 11
-111.545
 21
-99.7553
  0
LINE
  8
0
 10
-111.545
 20
-99.7553
 11
-112.5
 21
-99.3301
  0
LINE
  8
0
 10
-112.5
 20
-99.3301
 11
-113.346
 21
-98.7157
  0
LINE
  8
0
 10
-113.346
 20
-98.7157
 11
-114.045
 21
-97.9389
  0
LINE
  8
0
 10
-114.045
 20
-97.9389
 11
-114.568
 21
-97.0337
  0
LINE
  8
0
 10
-114.568
 20
-97.0337
 11
-114.891
 21
-96.0396
  0
LINE
  8
0
 10
-114.891
 20
-96.0396
 11
-115
 21
-95
  0
LINE
  8
0
 10
-115
 20
-95
 11
-114.891
 21
-93.9604
  0
LINE
  8
0
 10
-114.891
 20
-93.9604
 11
-114.568
 21
-92.9663
  0
LINE
  8
0
 10
-114.568
 20
-92.9663
 11
-114.045
 21
-92.0611
  0
LINE
  8
0
 10
-114.045
 20
-92.0611
 11
-113.346
 21
-91.2843
  0
LINE
  8
0
 10
-113.346
 20
-91.2843
 11
-112.5
 21
-90.6699
  0
LINE
  8
0
 10
-112.5
 20
-90.6699
 11
-111.545
 21
-90.2447
  0
LINE
  8
0
 10
-111.545
 20
-90.2447
 11
-110.523
 21
-90.0274
  0
LINE
  8
0
 10
-110.523
 20
-90.0274
 11
-109.477
 21
-90.0274
  0
LINE
  8
0
 10
-109.477
 20
-90.0274
 11
-108.455
 21
-90.2447
  0
LINE
  8
0
 10
-108.455
 20
-90.2447
 11
-107.5
 21
-90.6699
  0
LINE
  8
0
 10
-107.5
 20
-90.6699
 11
-106.654
 21
-91.2843
  0
LINE
  8
0
 10
-106.654
 20
-91.2843
 11
-105.955
 21
-92.0611
  0
LINE
  8
0
 10
-105.955
 20
-92.0611
 11
-105.432
 21
-92.9663
  0
LINE
  8
0
 10
-105.432
 20
-92.9663
 11
-105.109
 21
-93.9604
  0
LINE
  8
0
 10
-105.109
 20
-93.9604
 11
-105
 21
-95
  0
LINE
  8
0
 10
-105
 20
-95
 11
-105.109
 21
-96.0396
  0
LINE
  8
0
 10
-105.109
 20
-96.0396
 11
-105.432
 21
-97.0337
  0
LINE
  8
0
 10
-105.432
 20
-97.0337
 11
-105.955
 21
-97.9389
  0
LINE
  8
0
 10
-105.955
 20
-97.9389
 11
-106.654
 21
-98.7157
  0
LINE
  8
0
 10
-106.654
 20
-98.7157
 11
-107.5
 21
-99.3301
  0
LINE
  8
0
 10
-107.5
 20
-99.3301
 11
-108.455
 21
-99.7553
  0
LINE
  8
0
 10
-108.455
 20
-99.7553
 11
-109.477
 21
-99.9726
  0
LINE
  8
0
 10
-109.477
 20
-99.9726
 11
-110.523
 21
-99.9726
  0
LINE
  8
0
 10
109.477
 20
-99.9726
 11
108.455
 21
-99.7553
  0
LINE
  8
0
 10
108.455
 20
-99.7553
 11
107.5
 21
-99.3301
  0
LINE
  8
0
 10
107.5
 20
-99.3301
 11
106.654
 21
-98.7157
  0
LINE
  8
0
 10
106.654
 20
-98.7157
 11
105.955
 21
-97.9389
  0
LINE
  8
0
 10
105.955
 20
-97.9389
 11
105.432
 21
-97.0337
  0
LINE
  8
0
 10
105.432
 20
-97.0337
 11
105.109
 21
-96.0396
  0
LINE
  8
0
 10
105.109
 20
-96.0396
 11
105
 21
-95
  0
LINE
  8
0
 10
105
 20
-95
 11
105.109
 21
-93.9604
  0
LINE
  8
0
 10
105.109
 20
-93.9604
 11
105.432
 21
-92.9663
  0
LINE
  8
0
 10
105.432
 20
-92.9663
 11
105.955
 21
-92.0611
  0
LINE
  8
0
 10
105.955
 20
-92.0611
 11
106.654
 21
-91.2843
  0
LINE
  8
0
 10
106.654
 20
-91.2843
 11
107.5
 21
-90.6699
  0
LINE
  8
0
 10
107.5
 20
-90.6699
 11
108.455
 21
-90.2447
  0
LINE
  8
0
 10
108.455
 20
-90.2447
 11
109.477
 21
-90.0274
  0
LINE
  8
0
 10
109.477
 20
-90.0274
 11
110.523
 21
-90.0274
  0
LINE
  8
0
 10
110.523
 20
-90.0274
 11
111.545
 21
-90.2447
  0
LINE
  8
0
 10
111.545
 20
-90.2447
 11
112.5
 21
-90.6699
  0
LINE
  8
0
 10
112.5
 20
-90.6699
 11
113.346
 21
-91.2843
  0
LINE
  8
0
 10
113.346
 20
-91.2843
 11
114.045
 21
-92.0611
  0
LINE
  8
0
 10
114.045
 20
-92.0611
 11
114.568
 21
-92.9663
  0
LINE
  8
0
 10
114.568
 20
-92.9663
 11
114.891
 21
-93.9604
  0
LINE
  8
0
 10
114.891
 20
-93.9604
 11
115
 21
-95
  0
LINE
  8
0
 10
115
 20
-95
 11
114.891
 21
-96.0396
  0
LINE
  8
0
 10
114.891
 20
-96.0396
 11
114.568
 21
-97.0337
  0
LINE
  8
0
 10
114.568
 20
-97.0337
 11
114.045
 21
-97.9389
  0
LINE
  8
0
 10
114.045
 20
-97.9389
 11
113.346
 21
-98.7157
  0
LINE
  8
0
 10
113.346
 20
-98.7157
 11
112.5
 21
-99.3301
  0
LINE
  8
0
 10
112.5
 20
-99.3301
 11
111.545
 21
-99.7553
  0
LINE
  8
0
 10
111.545
 20
-99.7553
 11
110.523
 21
-99.9726
  0
LINE
  8
0
 10
110.523
 20
-99.9726
 11
109.477
 21
-99.9726
  0
LINE
  8
0
 10
114.459
 20
-101.664
 11
113.971
 21
-101.416
  0
LINE
  8
0
 10
113.971
 20
-101.416
 11
113.584
 21
-101.029
  0
LINE
  8
0
 10
113.584
 20
-101.029
 11
113.336
 21
-100.541
  0
LINE
  8
0
 10
113.336
 20
-100.541
 11
113.25
 21
-100
  0
LINE
  8
0
 10
113.25
 20
-100
 11
113.336
 21
-99.4592
  0
LINE
  8
0
 10
113.336
 20
-99.4592
 11
113.584
 21
-98.9714
  0
LINE
  8
0
 10
113.584
 20
-98.9714
 11
113.971
 21
-98.5842
  0
LINE
  8
0
 10
113.971
 20
-98.5842
 11
114.459
 21
-98.3356
  0
LINE
  8
0
 10
114.459
 20
-98.3356
 11
115
 21
-98.25
  0
LINE
  8
0
 10
115
 20
-98.25
 11
115.541
 21
-98.3356
  0
LINE
  8
0
 10
115.541
 20
-98.3356
 11
116.029
 21
-98.5842
  0
LINE
  8
0
 10
116.029
 20
-98.5842
 11
116.416
 21
-98.9714
  0
LINE
  8
0
 10
116.416
 20
-98.9714
 11
116.664
 21
-99.4592
  0
LINE
  8
0
 10
116.664
 20
-99.4592
 11
116.75
 21
-100
  0
LINE
  8
0
 10
116.75
 20
-100
 11
116.664
 21
-100.541
  0
LINE
  8
0
 10
116.664
 20
-100.541
 11
116.416
 21
-101.029
  0
LINE
  8
0
 10
116.416
 20
-101.029
 11
116.029
 21
-101.416
  0
LINE
  8
0
 10
116.029
 20
-101.416
 11
115.541
 21
-101.664
  0
LINE
  8
0
 10
115.541
 20
-101.664
 11
115
 21
-101.75
  0
LINE
  8
0
 10
115
 20
-101.75
 11
114.459
 21
-101.664
  0
LINE
  8
0
 10
-115.541
 20
-101.664
 11
-116.029
 21
-101.416
  0
LINE
  8
0
 10
-116.029
 20
-101.416
 11
-116.416
 21
-101.029
  0
LINE
  8
0
 10
-116.416
 20
-101.029
 11
-116.664
 21
-100.541
  0
LINE
  8
0
 10
-116.664
 20
-100.541
 11
-116.75
 21
-100
  0
LINE
  8
0
 10
-116.75
 20
-100
 11
-116.664
 21
-99.4592
  0
LINE
  8
0
 10
-116.664
 20
-99.4592
 11
-116.416
 21
-98.9714
  0
LINE
  8
0
 10
-116.416
 20
-98.9714
 11
-116.029
 21
-98.5842
  0
LINE
  8
0
 10
-116.029
 20
-98.5842
 11
-115.541
 21
-98.3356
  0
LINE
  8
0
 10
-115.541
 20
-98.3356
 11
-115
 21
-98.25
  0
LINE
  8
0
 10
-115
 20
-98.25
 11
-114.459
 21
-98.3356
  0
LINE
  8
0
 10
-114.459
 20
-98.3356
 11
-113.971
 21
-98.5842
  0
LINE
  8
0
 10
-113.971
 20
-98.5842
 11
-113.584
 21
-98.9714
  0
LINE
  8
0
 10
-113.584
 20
-98.9714
 11
-113.336
 21
-99.4592
  0
LINE
  8
0
 10
-113.336
 20
-99.4592
 11
-113.25
 21
-100
  0
LINE
  8
0
 10
-113.25
 20
-100
 11
-113.336
 21
-100.541
  0
LINE
  8
0
 10
-113.336
 20
-100.541
 11
-113.584
 21
-101.029
  0
LINE
  8
0
 10
-113.584
 20
-101.029
 11
-113.971
 21
-101.416
  0
LINE
  8
0
 10
-113.971
 20
-101.416
 11
-114.459
 21
-101.664
  0
LINE
  8
0
 10
-114.459
 20
-101.664
 11
-115
 21
-101.75
  0
LINE
  8
0
 10
-115
 20
-101.75
 11
-115.541
 21
-101.664
  0
LINE
  8
0
 10
-162.1
 20
-173.9
 11
-151.9
 21
-173.9
  0
LINE
  8
0
 10
-151.9
 20
-173.9
 11
-151.9
 21
-177
  0
LINE
  8
0
 10
-151.9
 20
-177
 11
-142.1
 21
-177
  0
LINE
  8
0
 10
-142.1
 20
-177
 11
-142.1
 21
-173.9
  0
LINE
  8
0
 10
-142.1
 20
-173.9
 11
-131.9
 21
-173.9
  0
LINE
  8
0
 10
-131.9
 20
-173.9
 11
-131.9
 21
-177
  0
LINE
  8
0
 10
-131.9
 20
-177
 11
-122.1
 21
-177
  0
LINE
  8
0
 10
-122.1
 20
-177
 11
-122.1
 21
-173.9
  0
LINE
  8
0
 10
-122.1
 20
-173.9
 11
-111.9
 21
-173.9
  0
LINE
  8
0
 10
-111.9
 20
-173.9
 11
-111.9
 21
-177
  0
LINE
  8
0
 10
-111.9
 20
-177
 11
-102.1
 21
-177
  0
LINE
  8
0
 10
-102.1
 20
-177
 11
-102.1
 21
-173.9
  0
LINE
  8
0
 10
-102.1
 20
-173.9
 11
-91.9
 21
-173.9
  0
LINE
  8
0
 10
-91.9
 20
-173.9
 11
-91.9
 21
-177
  0
LINE
  8
0
 10
-91.9
 20
-177
 11
-82.1
 21
-177
  0
LINE
  8
0
 10
-82.1
 20
-177
 11
-82.1
 21
-173.9
  0
LINE
  8
0
 10
-82.1
 20
-173.9
 11
-71.9
 21
-173.9
  0
LINE
  8
0
 10
-71.9
 20
-173.9
 11
-71.9
 21
-177
  0
LINE
  8
0
 10
-71.9
 20
-177
 11
-62.1
 21
-177
  0
LINE
  8
0
 10
-62.1
 20
-177
 11
-62.1
 21
-173.9
  0
LINE
  8
0
 10
-62.1
 20
-173.9
 11
-51.9
 21
-173.9
  0
LINE
  8
0
 10
-51.9
 20
-173.9
 11
-51.9
 21
-177
  0
LINE
  8
0
 10
-51.9
 20
-177
 11
-42.1
 21
-177
  0
LINE
  8
0
 10
-42.1
 20
-177
 11
-42.1
 21
-173.9
  0
LINE
  8
0
 10
-42.1
 20
-173.9
 11
-31.9
 21
-173.9
  0
LINE
  8
0
 10
-31.9
 20
-173.9
 11
-31.9
 21
-177
  0
LINE
  8
0
 10
-31.9
 20
-177
 11
-22.1
 21
-177
  0
LINE
  8
0
 10
-22.1
 20
-177
 11
-22.1
 21
-173.9
  0
LINE
  8
0
 10
-22.1
 20
-173.9
 11
-11.9
 21
-173.9
  0
LINE
  8
0
 10
-11.9
 20
-173.9
 11
-11.9
 21
-177
  0
LINE
  8
0
 10
-11.9
 20
-177
 11
-2.10001
 21
-177
  0
LINE
  8
0
 10
-2.10001
 20
-177
 11
-2.10001
 21
-173.9
  0
LINE
  8
0
 10
-2.10001
 20
-173.9
 11
8.09999
 21
-173.9
  0
LINE
  8
0
 10
8.09999
 20
-173.9
 11
8.09999
 21
-177
  0
LINE
  8
0
 10
8.09999
 20
-177
 11
17.9
 21
-177
  0
LINE
  8
0
 10
17.9
 20
-177
 11
17.9
 21
-173.9
  0
LINE
  8
0
 10
17.9
 20
-173.9
 11
28.1
 21
-173.9
  0
LINE
  8
0
 10
28.1
 20
-173.9
 11
28.1
 21
-177
  0
LINE
  8
0
 10
28.1
 20
-177
 11
37.9
 21
-177
  0
LINE
  8
0
 10
37.9
 20
-177
 11
37.9
 21
-173.9
  0
LINE
  8
0
 10
37.9
 20
-173.9
 11
48.1
 21
-173.9
  0
LINE
  8
0
 10
48.1
 20
-173.9
 11
48.1
 21
-177
  0
LINE
  8
0
 10
48.1
 20
-177
 11
57.9
 21
-177
  0
LINE
  8
0
 10
57.9
 20
-177
 11
57.9
 21
-173.9
  0
LINE
  8
0
 10
57.9
 20
-173.9
 11
64.9
 21
-173.9
  0
LINE
  8
0
 10
64.9
 20
-173.9
 11
64.9
 21
-165.1
  0
LINE
  8
0
 10
64.9
 20
-165.1
 11
68
 21
-165.1
  0
LINE
  8
0
 10
68
 20
-165.1
 11
68
 21
-153.5
  0
LINE
  8
0
 10
68
 20
-153.5
 11
64.9
 21
-153.5
  0
LINE
  8
0
 10
64.9
 20
-153.5
 11
64.9
 21
-141.5
  0
LINE
  8
0
 10
64.9
 20
-141.5
 11
68
 21
-141.5
  0
LINE
  8
0
 10
68
 20
-141.5
 11
68
 21
-129.9
  0
LINE
  8
0
 10
68
 20
-129.9
 11
64.9
 21
-129.9
  0
LINE
  8
0
 10
64.9
 20
-129.9
 11
64.9
 21
-118
  0
LINE
  8
0
 10
64.9
 20
-118
 11
-178.9
 21
-118
  0
LINE
  8
0
 10
-178.9
 20
-118
 11
-178.9
 21
-129.9
  0
LINE
  8
0
 10
-178.9
 20
-129.9
 11
-182
 21
-129.9
  0
LINE
  8
0
 10
-182
 20
-129.9
 11
-182
 21
-141.5
  0
LINE
  8
0
 10
-182
 20
-141.5
 11
-178.9
 21
-141.5
  0
LINE
  8
0
 10
-178.9
 20
-141.5
 11
-178.9
 21
-153.5
  0
LINE
  8
0
 10
-178.9
 20
-153.5
 11
-182
 21
-153.5
  0
LINE
  8
0
 10
-182
 20
-153.5
 11
-182
 21
-165.1
  0
LINE
  8
0
 10
-182
 20
-165.1
 11
-178.9
 21
-165.1
  0
LINE
  8
0
 10
-178.9
 20
-165.1
 11
-178.9
 21
-173.9
  0
LINE
  8
0
 10
-178.9
 20
-173.9
 11
-171.9
 21
-173.9
  0
LINE
  8
0
 10
-171.9
 20
-173.9
 11
-171.9
 21
-177
  0
LINE
  8
0
 10
-171.9
 20
-177
 11
-162.1
 21
-177
  0
LINE
  8
0
 10
-162.1
 20
-177
 11
-162.1
 21
-173.9
  0
LINE
  8
0
 10
-117
 20
-141
 11
-117
 21
-138
  0
LINE
  8
0
 10
-117
 20
-138
 11
3
 21
-138
  0
LINE
  8
0
 10
3
 20
-138
 11
3
 21
-141
  0
LINE
  8
0
 10
3
 20
-141
 11
-117
 21
-141
  0
LINE
  8
0
 10
-117
 20
-155
 11
-117
 21
-152
  0
LINE
  8
0
 10
-117
 20
-152
 11
3
 21
-152
  0
LINE
  8
0
 10
3
 20
-152
 11
3
 21
-155
  0
LINE
  8
0
 10
3
 20
-155
 11
-117
 21
-155
  0
LINE
  8
0
 10
-117
 20
-169
 11
-117
 21
-166
  0
LINE
  8
0
 10
-117
 20
-166
 11
3
 21
-166
  0
LINE
  8
0
 10
3
 20
-166
 11
3
 21
-169
  0
LINE
  8
0
 10
3
 20
-169
 11
-117
 21
-169
  0
LINE
  8
0
 10
91.0304
 20
-173.9
 11
100.796
 21
-173.9
  0
LINE
  8
0
 10
100.796
 20
-173.9
 11
100.796
 21
-177
  0
LINE
  8
0
 10
100.796
 20
-177
 11
110.161
 21
-177
  0
LINE
  8
0
 10
110.161
 20
-177
 11
110.161
 21
-173.9
  0
LINE
  8
0
 10
110.161
 20
-173.9
 11
119.926
 21
-173.9
  0
LINE
  8
0
 10
119.926
 20
-173.9
 11
119.926
 21
-177
  0
LINE
  8
0
 10
119.926
 20
-177
 11
129.291
 21
-177
  0
LINE
  8
0
 10
129.291
 20
-177
 11
129.291
 21
-173.9
  0
LINE
  8
0
 10
129.291
 20
-173.9
 11
139.057
 21
-173.9
  0
LINE
  8
0
 10
139.057
 20
-173.9
 11
139.057
 21
-177
  0
LINE
  8
0
 10
139.057
 20
-177
 11
148.422
 21
-177
  0
LINE
  8
0
 10
148.422
 20
-177
 11
148.422
 21
-173.9
  0
LINE
  8
0
 10
148.422
 20
-173.9
 11
158.187
 21
-173.9
  0
LINE
  8
0
 10
158.187
 20
-173.9
 11
158.187
 21
-177
  0
LINE
  8
0
 10
158.187
 20
-177
 11
167.552
 21
-177
  0
LINE
  8
0
 10
167.552
 20
-177
 11
167.552
 21
-173.9
  0
LINE
  8
0
 10
167.552
 20
-173.9
 11
177.317
 21
-173.9
  0
LINE
  8
0
 10
177.317
 20
-173.9
 11
177.317
 21
-177
  0
LINE
  8
0
 10
177.317
 20
-177
 11
186.683
 21
-177
  0
LINE
  8
0
 10
186.683
 20
-177
 11
186.683
 21
-173.9
  0
LINE
  8
0
 10
186.683
 20
-173.9
 11
196.448
 21
-173.9
  0
LINE
  8
0
 10
196.448
 20
-173.9
 11
196.448
 21
-177
  0
LINE
  8
0
 10
196.448
 20
-177
 11
205.813
 21
-177
  0
LINE
  8
0
 10
205.813
 20
-177
 11
205.813
 21
-173.9
  0
LINE
  8
0
 10
205.813
 20
-173.9
 11
215.578
 21
-173.9
  0
LINE
  8
0
 10
215.578
 20
-173.9
 11
215.578
 21
-177
  0
LINE
  8
0
 10
215.578
 20
-177
 11
224.943
 21
-177
  0
LINE
  8
0
 10
224.943
 20
-177
 11
224.943
 21
-173.9
  0
LINE
  8
0
 10
224.943
 20
-173.9
 11
234.709
 21
-173.9
  0
LINE
  8
0
 10
234.709
 20
-173.9
 11
234.709
 21
-177
  0
LINE
  8
0
 10
234.709
 20
-177
 11
244.074
 21
-177
  0
LINE
  8
0
 10
244.074
 20
-177
 11
244.074
 21
-173.9
  0
LINE
  8
0
 10
244.074
 20
-173.9
 11
253.839
 21
-173.9
  0
LINE
  8
0
 10
253.839
 20
-173.9
 11
253.839
 21
-177
  0
LINE
  8
0
 10
253.839
 20
-177
 11
263.204
 21
-177
  0
LINE
  8
0
 10
263.204
 20
-177
 11
263.204
 21
-173.9
  0
LINE
  8
0
 10
263.204
 20
-173.9
 11
272.97
 21
-173.9
  0
LINE
  8
0
 10
272.97
 20
-173.9
 11
272.97
 21
-177
  0
LINE
  8
0
 10
272.97
 20
-177
 11
282.335
 21
-177
  0
LINE
  8
0
 10
282.335
 20
-177
 11
282.335
 21
-173.9
  0
LINE
  8
0
 10
282.335
 20
-173.9
 11
292
 21
-173.9
  0
LINE
  8
0
 10
292
 20
-173.9
 11
292
 21
-165.3
  0
LINE
  8
0
 10
292
 20
-165.3
 11
288.9
 21
-165.3
  0
LINE
  8
0
 10
288.9
 20
-165.3
 11
288.9
 21
-153.3
  0
LINE
  8
0
 10
288.9
 20
-153.3
 11
292
 21
-153.3
  0
LINE
  8
0
 10
292
 20
-153.3
 11
292
 21
-141.7
  0
LINE
  8
0
 10
292
 20
-141.7
 11
288.9
 21
-141.7
  0
LINE
  8
0
 10
288.9
 20
-141.7
 11
288.9
 21
-129.7
  0
LINE
  8
0
 10
288.9
 20
-129.7
 11
292
 21
-129.7
  0
LINE
  8
0
 10
292
 20
-129.7
 11
292
 21
-118
  0
LINE
  8
0
 10
292
 20
-118
 11
72
 21
-118
  0
LINE
  8
0
 10
72
 20
-118
 11
72
 21
-129.7
  0
LINE
  8
0
 10
72
 20
-129.7
 11
75.1
 21
-129.7
  0
LINE
  8
0
 10
75.1
 20
-129.7
 11
75.1
 21
-141.7
  0
LINE
  8
0
 10
75.1
 20
-141.7
 11
72
 21
-141.7
  0
LINE
  8
0
 10
72
 20
-141.7
 11
72
 21
-153.3
  0
LINE
  8
0
 10
72
 20
-153.3
 11
75.1
 21
-153.3
  0
LINE
  8
0
 10
75.1
 20
-153.3
 11
75.1
 21
-165.3
  0
LINE
  8
0
 10
75.1
 20
-165.3
 11
72
 21
-165.3
  0
LINE
  8
0
 10
72
 20
-165.3
 11
72
 21
-173.9
  0
LINE
  8
0
 10
72
 20
-173.9
 11
81.6652
 21
-173.9
  0
LINE
  8
0
 10
81.6652
 20
-173.9
 11
81.6652
 21
-177
  0
LINE
  8
0
 10
81.6652
 20
-177
 11
91.0304
 21
-177
  0
LINE
  8
0
 10
91.0304
 20
-177
 11
91.0304
 21
-173.9
  0
LINE
  8
0
 10
248.4
 20
-162.6
 11
248.4
 21
-131.4
  0
LINE
  8
0
 10
248.4
 20
-131.4
 11
275.6
 21
-131.4
  0
LINE
  8
0
 10
275.6
 20
-131.4
 11
275.6
 21
-162.6
  0
LINE
  8
0
 10
275.6
 20
-162.6
 11
248.4
 21
-162.6
  0
LINE
  8
0
 10
186.75
 20
-157.85
 11
186.75
 21
-136.15
  0
LINE
  8
0
 10
186.75
 20
-136.15
 11
227.25
 21
-136.15
  0
LINE
  8
0
 10
227.25
 20
-136.15
 11
227.25
 21
-157.85
  0
LINE
  8
0
 10
227.25
 20
-157.85
 11
186.75
 21
-157.85
  0
ENDSEC
  0
SECTION
  2
OBJECTS
  0
DICTIONARY
  0
ENDSEC
  0
EOF
